<svg width="45" height="44" fill="none" xmlns="http://www.w3.org/2000/svg"><path fill-rule="evenodd" clip-rule="evenodd" d="M36.635 10.877H8.365l10.812 9.53a5.29 5.29 0 006.645 0l10.813-9.53zM6.662 12.224a1.416 1.416 0 00-.002.068v19.416c0 .782.645 1.415 1.44 1.415h28.8c.795 0 1.44-.633 1.44-1.415V12.292c0-.023 0-.045-.002-.068l-11.14 9.82a7.48 7.48 0 01-9.396 0l-11.14-9.82zm-2.162.068c0-1.954 1.612-3.538 3.6-3.538h28.8c1.988 0 3.6 1.584 3.6 3.538v19.416c0 1.954-1.612 3.538-3.6 3.538H8.1c-1.988 0-3.6-1.584-3.6-3.538V12.292z" fill="#4F4840"/></svg>