<svg width="44" height="44" fill="none" xmlns="http://www.w3.org/2000/svg"><path fill-rule="evenodd" clip-rule="evenodd" d="M14.286 6.16h15.428a8.125 8.125 0 018.126 8.126v15.428a8.125 8.125 0 01-8.126 8.126h-6.729V26.61h3.732l.555-4.456h-4.287v-2.839c0-1.285.349-2.166 2.142-2.166H27.4v-3.972A29.327 29.327 0 0024.07 13c-3.298 0-5.563 2.072-5.563 5.875v3.27H14.8v4.456h3.715V37.84h-4.23a8.125 8.125 0 01-8.125-8.126V14.286a8.126 8.126 0 018.126-8.126zm0-2.16h15.428A10.286 10.286 0 0140 14.286v15.428A10.286 10.286 0 0129.714 40H14.286A10.286 10.286 0 014 29.714V14.286A10.286 10.286 0 0114.286 4z" fill="#4F4840"/></svg>