<svg xmlns="http://www.w3.org/2000/svg" width="991" height="42" fill="none"><path fill="#78756E" d="M227.376 21.94a1.677 1.677 0 011.374 1.308c.074.502.148.475.211.982a2339.64 2339.64 0 012.046 17.205.6.6 0 00.597.528h5.238a.603.603 0 00.602-.633c-.158-3.07-.386-6.136-.698-9.17a106.322 106.322 0 00-1.802-10.917c-.528-2.638.629-3.83 2.971-3.693 16.241.813 21.907 1.704 38.148 2.517 1.967.116 2.802.886 2.759 2.902-.063 6.146-.142 12.272-.169 18.408a.6.6 0 00.608.607h5.164a.597.597 0 00.602-.596 843.46 843.46 0 000-17.57c-.042-2.638 1.004-3.445 3.436-3.366 7.7.232 28.656.311 36.357.66 1.057.036 2.801 1.055 2.886 1.778.729 6.099 1.337 12.203 1.95 18.55a.605.605 0 00.597.528h6.104a.599.599 0 00.603-.654c-.576-6.374-1.131-15.781-.27-18.662v-.1c.117-.343 1.813-1.383 2.759-1.42 6.152-.464 7.548-.733 13.7-1.055v.153c10.713 0 13.54-.037 24.259.043 4.392 0 4.519.269 4.144 4.912-.423 5.381-.841 10.758-1.131 16.14a.594.594 0 00.164.446.613.613 0 00.438.187h6.707a.61.61 0 00.602-.565c.339-5.63.598-11.275 1.084-16.884.085-1.055 1.385-2.706 2.262-2.785 7.072-.618 22.156-.85 29.227-1.314 3.224-.195 4.44 1.16 4.525 4.49.174 5.503.592 11.011 1.057 16.488a.6.6 0 00.602.554h5.777a.6.6 0 00.581-.739 15.687 15.687 0 01-.438-2.564c-.291-4.026-.376-8.088-.672-12.135-.163-2.4.529-3.166 3.055-3.694 7.801-1.688 24.841-1.007 35.596-.284 0 .184.032.348.043.47.084 1.234.338 2.437.528 3.634.656 4.925 1.302 9.85 1.94 14.774a.597.597 0 00.597.527h5.285a.613.613 0 00.442-.188.604.604 0 00.166-.45 144.944 144.944 0 00-.639-7.355 88.305 88.305 0 00-1.797-9.909c-.529-2.4.629-3.482 2.97-3.366 16.236.733 24.021 1.546 40.258 2.28 1.966.078 2.806.812 2.764 2.637-.058 5.245-.138 10.49-.164 15.75a.594.594 0 00.371.56c.073.03.152.047.232.047h5.174a.603.603 0 00.602-.597c.053-4.986.037-9.972 0-14.947-.042-2.4 1.005-3.134 3.43-3.055 7.701.232 22.315.27 30.015.58 1.057.037 2.807.966 2.891 1.626.687 5.212 1.264 10.441 1.84 15.854a.6.6 0 00.602.528h8.414a.608.608 0 00.603-.528c.069-.59.127-1.187.174-1.772.085-1.056.212-2.554-.417-3.06-4.017-3.25-1.258-7.055-2.22-10.812-.085-.269 1.76-1.276 2.764-1.356 5.74-.395 33.091-1.904 43.767-1.867 4.397.079 4.519 3.514 4.144 7.735-.391 4.548-.777 6.695-1.057 11.027a.594.594 0 00.363.59.594.594 0 00.239.048h6.712a.61.61 0 00.603-.564c.307-4.78.56-9.049 1.02-13.792.085-.929 1.379-2.48 2.257-2.554 7.056-.527 32.155-1.298 39.275-1.688 3.224-.195 4.434 2.11 4.518 5.118.169 4.68.529 8.283.962 12.932a.598.598 0 00.598.527h5.634a.6.6 0 00.586-.733 9.64 9.64 0 01-.206-1.34c-.291-3.694-.375-7.355-.666-11.033-.169-2.163.529-2.86 3.055-3.366 8.589-1.678 28.503-.75 39.639-.058a.6.6 0 01.529.527c.09.707.153 1.22.18 1.436.311 2.59.803 7.988 1.31 14.013a.608.608 0 00.603.554h5.777a.606.606 0 00.607-.643 152.038 152.038 0 00-.528-5.989 105.198 105.198 0 00-1.802-10.916c-.529-2.638.629-3.83 2.975-3.694 16.237.813 28.245 1.704 44.486 2.517 1.966.116 2.807.886 2.764 2.902-.053 5.086-.116 10.162-.153 15.238a.605.605 0 00.603.606h5.19a.603.603 0 00.602-.596c.032-4.801.019-9.6-.037-14.399-.037-2.638 1.01-3.445 3.436-3.366 7.7.232 19.671.311 27.372.66 1.057.037 2.801 1.055 2.886 1.778.607 5.076 1.131 10.156 1.643 15.38a.605.605 0 00.598.528h6.152a.603.603 0 00.602-.644c-.454-5.983-.74-13.07 0-15.502v-.1c.116-.343 1.813-1.382 2.759-1.42 6.152-.463 12.304-.733 18.456-1.055v.154c10.718 0 9.318-.037 20.031.042 4.392 0 4.519.269 4.144 4.912-.339 4.321-.677 8.642-.946 12.964a.601.601 0 00.602.638h6.707a.6.6 0 00.603-.57c.259-4.574.528-9.149.898-13.686.085-1.056 1.385-2.712 2.262-2.791 7.072-.618 26.384-.85 33.461-1.314 3.219-.195 4.434 1.16 4.519 4.49.143 4.442.444 8.885.793 13.317a.604.604 0 00.602.554h6.189a.968.968 0 000-.132c-.29-4.026-.375-8.088-.671-12.135-.164-2.4.529-3.166 3.06-3.694 4.688-1.018 12.722-1.176 20.718-.98 0 0 10.338 0 15.491-.075 2.469 0 2.96 3.762 2.712 5.804a534.576 534.576 0 00-1.211 10.552.6.6 0 00.155.466.602.602 0 00.448.2h5.285a.599.599 0 00.597-.528c.455-3.404.894-6.812 1.258-10.22.249-2.512 1.549-3.055 4.059-2.823.809.084 1.708-.401 2.595-.85a.607.607 0 00.096-1.018c-.788-.601-1.586-1.23-2.4-1.345-2.341-.27-3.43-.813-3.171-3.33.446-4.558.622-9.139.528-13.718 0-.85-1.22-1.725-2.114-2.58a.592.592 0 00-.75-.074c-1.136.76-2.569 1.42-2.939 2.422-.713 1.973-.586 4.221-.84 6.331a.92.92 0 01-.264.47.616.616 0 01-.761.132 53.596 53.596 0 00-1.898-1.055.582.582 0 00-.528 0l-.127.058a.601.601 0 00-.328.723c.724 2.363 1.448 4.748 2.188 7.186a.598.598 0 01-.097.54.612.612 0 01-.495.24c-10.47-.29-30.015-.6-38.582-.849-2.178-.079-2.886-1.055-2.97-3.166-.169-4.796-.529-4.32-.878-9.08-.253-3.018-2.473-3.213-4.814-3.055-2.553.19-2.68 1.778-2.511 3.905.375 4.3.671 3.318.671 7.613 0 1.055-1.215 3.018-1.929 3.018-7.362.348-26.886.428-34.254.465-1.881 0-2.51-.966-2.928-3.166-.755-3.91.793-4.11 1.131-7.751.529-5.376 0-5.957-5.316-5.804-.506.04-1.007.116-1.501.227a.614.614 0 00-.529.596v8.864a.606.606 0 01-.372.556.602.602 0 01-.231.046h-1.849a.61.61 0 00-.592.49.62.62 0 00.01.275c.529 1.973 1.057 2.073 1.544 4.062a.596.596 0 01-.08.474.6.6 0 01-.401.265 9.004 9.004 0 01-1.375.211c-16.384.385-20.702-.285-37.107.106-7.822.19-8.076.976-8.953-7.113a62.991 62.991 0 00-1.343-7.967c-.206-1.055-1.966-2.638-2.759-2.516-1.215.195-2.468 1.55-3.224 2.712-.528.812-.29 2.163-.29 3.25.121 3.693.206 4.748.459 8.442.122 2.11-.338 3.213-2.722 3.165-7.742-.116-19.714-.116-27.483-.073-2.384 0-3.171-.934-2.928-3.372.333-3.166.375-4.274.502-7.445.127-2.4-.296-4.49-3.224-4.801-3.097-.311-3.171 2.11-3.345 4.142-.296 3.055-.629 4.041-.529 7.101.101 3.06-1.131 3.947-3.853 3.557-12.013-1.741-39.798-3.166-43.106-3.367-2.299-.116-3.43-1.118-3.515-3.635-.042-1.82-.127-3.989-1.089-5.34-.861-1.181-2.642-1.646-4.17-2.316a.604.604 0 00-.771.28 12.692 12.692 0 00-1.295 3.04c-.249 1.16.417 2.553.084 3.64-.174.575.349 5.37.835 9.455a.594.594 0 01-.153.476.61.61 0 01-.46.199c-11.368-.269-30.908-.528-39.433-.77-2.177-.08-2.891-.929-2.975-2.865-.164-4.337-.529-8.711-.878-13.043-.248-2.749-2.468-2.944-4.815-2.786-2.552.19-2.674 1.625-2.51 3.52.446 3.54.704 7.1.771 10.668 0 .965-1.215 3.234-1.923 3.276-7.368.306-32.705 1.44-40.068 1.478-1.887 0-2.51-1.377-2.933-3.393-.751-3.556.798-6.616 1.131-9.903.528-4.88 0-5.419-5.285-5.277-.504.029-1.006.092-1.501.19a.614.614 0 00-.529.597v6.932a.6.6 0 01-.602.602l-1.85.528a.602.602 0 00-.582.749c.296 1.224.788 2.242 1.544 5.376a.614.614 0 01-.088.473.6.6 0 01-.404.26 9.06 9.06 0 01-1.363.175c-16.385.348-27.41.907-43.82 1.256-7.822.153-6.649.242-7.527-7.113a75.177 75.177 0 00-1.337-8.584c-.211-.966-1.966-2.396-2.764-2.28-1.21.19-2.468 1.393-3.224 2.438-.528.734-.291 1.936-.291 2.939.127 3.366.212 6.696.46 10.062.127 1.9-.333 2.907-2.722 2.865-7.742-.116-22.351-.116-30.094-.074-2.389 0-3.171-.855-2.933-3.06.338-2.865.38-5.804.502-8.706.127-2.206-.291-4.068-3.219-4.337-3.097-.27-3.171 1.9-3.351 3.756a56.158 56.158 0 00-.528 8.358c.127 2.786-1.131 3.598-3.848 3.213-12.013-1.583-35.532-2.865-38.841-3.018-2.299-.116-3.43-1.055-3.515-3.33-.042-1.666-.121-3.64-1.088-4.837-.862-1.082-2.643-1.504-4.186-2.11a.604.604 0 00-.751.258 10.816 10.816 0 00-1.295 2.743c-.164.676.286 5.324.666 9.038a.588.588 0 01-.359.617.594.594 0 01-.249.048c-10.877-.264-27.261-.527-34.882-.754-2.178-.08-2.886-1.056-2.971-3.166-.169-4.796-.528-4.321-.882-9.08-.275-3.05-2.49-3.224-4.836-3.05-2.553.19-2.68 1.778-2.511 3.904.376 4.3.666 3.32.666 7.614 0 1.055-1.21 3.018-1.924 3.018-7.367.348-22.657.427-30.025.464-1.882 0-2.511-.965-2.928-3.165-.756-3.91.793-4.11 1.131-7.751.502-5.377 0-5.957-5.317-5.804-.507.04-1.01.116-1.506.227a.612.612 0 00-.502.596v8.848a.601.601 0 01-.603.602h-1.85a.605.605 0 00-.593.49.596.596 0 00.012.275c.528 1.973 1.057 2.073 1.543 4.063a.594.594 0 01-.081.472.615.615 0 01-.4.266 8.959 8.959 0 01-1.379.206c-16.384.39-20.169.776-36.574 1.166-7.828.19-8.076-.08-8.953-8.168a63.742 63.742 0 00-1.343-7.967c-.206-1.055-1.966-2.638-2.759-2.516-1.215.195-2.473 1.55-3.224 2.712-.502.812-.296 2.163-.296 3.25.127 3.693.212 4.748.46 8.442.127 2.11-.333 3.208-2.716 3.165-7.743-.116-28.699-.116-36.469-.079-2.383 0-3.171-.928-2.928-3.366.333-3.166.376-4.274.503-7.445.121-2.4-.296-4.49-3.224-4.801-3.098-.311-3.172 2.11-3.351 4.142-.291 3.055-.624 4.041-.529 7.102.095 3.06-1.126 3.946-3.847 3.556-12.014-1.741-33.461-3.166-36.765-3.366-2.304-.117-3.43-1.12-3.514-3.636-.043-1.82-.127-3.989-1.089-5.34-.867-1.181-2.643-1.646-4.175-2.316a.6.6 0 00-.767.28 12.541 12.541 0 00-1.295 3.04c-.253 1.16.502 2.11.169 3.191a7.558 7.558 0 01-2.182 2.96 1.61 1.61 0 00-.529.628 1.873 1.873 0 00.444 2.174c.302.25.668.41 1.057.464 1.01.2 1.432 1.055 1.665 2.042a1.793 1.793 0 01-.341 1.556 1.803 1.803 0 01-1.445.676l-22.124-.528-12.236-.833c-.713 0-1.929-1.974-1.929-3.018 0-4.295.296-3.314.671-7.614.169-2.11.043-3.693-2.51-3.904-2.347-.159-4.561.037-4.815 3.055-.375 4.748-.708 4.284-.877 9.08-.085 2.11-.793 3.097-2.971 3.166-7.642.221-21.489.49-32.24.754a.602.602 0 01-.586-.412.604.604 0 01-.027-.253c.386-3.693.835-8.362.671-9.038-.3-.972-.737-1.896-1.3-2.743a.593.593 0 00-.75-.259c-1.538.607-3.319 1.029-4.186 2.11-.962 1.198-1.057 3.166-1.089 4.839-.079 2.284-1.21 3.213-3.515 3.33-3.303.152-22.594 1.429-34.607 3.017-2.722.385-3.975-.427-3.848-3.213a56.882 56.882 0 00-.528-8.358c-.17-1.857-.254-4.025-3.351-3.756-2.928.269-3.346 2.11-3.224 4.337.126 2.902.169 5.84.528 8.706.254 2.205-.528 3.06-2.928 3.06-7.743-.043-28.17-.043-35.94.074-2.383.042-2.843-.966-2.716-2.865.248-3.367.333-6.696.46-10.062 0-1.003.206-2.206-.296-2.939-.75-1.055-2.009-2.248-3.219-2.438-.798-.116-2.553 1.314-2.764 2.28-.714 3.165-.962 6.426-1.337 9.64-.883 7.354-1.131 7.587-8.985 7.428-16.385-.348-13.826-.696-30.232-1.055a9.042 9.042 0 01-1.363-.174.596.596 0 01-.492-.734c.529-2.11 1.004-4.22 1.543-6.431a.6.6 0 00-.581-.75H.575a.604.604 0 01-.602-.6V3.99a.606.606 0 00-.529-.596 10.74 10.74 0 00-1.495-.19c-5.317-.153-5.814.385-5.317 5.276.338 3.287 1.887 6.332 1.13 9.904-.417 2.015-1.056 2.865-2.927 2.865-2.95 0-2.114 3.06.877 3.292.883.074 2.178 1.625 2.262 2.554.455 4.748.714 9.54 1.02 14.32a.606.606 0 00.603.564H2.32a.61.61 0 00.607-.639c-.29-4.558-.676-9.112-1.057-13.665-.38-4.22-.253-4.49 4.144-4.57 10.713-.036 21.469 0 32.182 0v-.152c6.152.311-6.723.527-.571.965 1.004.08 2.849 1.087 2.764 1.356-.972 3.746 1.787 8.078-2.225 11.328-.629.528-.502 2.016-.418 3.06.043.586.106 1.182.175 1.773a.601.601 0 00.597.528h8.42a.603.603 0 00.597-.528c.581-5.413 1.157-10.642 1.844-15.828.085-.66 1.845-1.583 2.891-1.625 7.701-.312 28.128-.348 35.83-.58 2.425-.08 3.472.654 3.43 3.054a563.39 563.39 0 000 14.948.596.596 0 00.602.596h5.174a.609.609 0 00.581-.638c-.026-5.277-.105-10.505-.163-15.75-.043-1.82.792-2.554 2.758-2.638 16.242-.733 19.794-1.546 36.035-2.28 2.342-.116 3.515.966 2.97 3.367a88.545 88.545 0 00-1.802 9.909 149.699 149.699 0 00-.634 7.355.602.602 0 00.602.638h5.286a.596.596 0 00.597-.528c.634-4.924 1.279-9.849 1.934-14.773.169-1.198.418-2.4.529-3.635 0-.122 0-.285.047-.47 10.745-.723 25.153-1.403 32.949.285 2.515.528 3.224 1.314 3.054 3.693-.29 4.026-.375 8.089-.665 12.136a15.802 15.802 0 01-.444 2.564.605.605 0 00.586.739h5.782a.6.6 0 00.603-.554c.454-5.477.872-10.986 1.057-16.489.084-3.329 1.3-4.157 4.519-3.962l33.889.97z"/></svg>