<svg xmlns="http://www.w3.org/2000/svg" width="500" height="397.31"><defs><style>.cls-1{fill:#89522c}.cls-2{fill:#774625}.cls-4{fill:#a86d42}.cls-5{fill:#bc7d53}.cls-6{fill:#ce8d6a}.cls-8{fill:#995d30}.cls-10{fill:#8e542d}</style></defs><g id="Слой_2" data-name="Слой 2"><g id="Lager_1" data-name="Lager 1"><path class="cls-1" d="M122.16 214.9s-22.21 36.88-39.25 53c0 0-1.31 14.6-3.22 19.92s2.55 27.63 3.4 31 11.08 35.24 12.12 36.6c2.5 3.26 10.78 5.51 17.75 15.16l.1 3.51s-8.43 19.24-24.58 4.57c0 0 2.81-9.43-3.78-12S78 365 74.85 354.55 68.07 324.32 65 313c0 0-3.21-9.64-3.85-15.38s-9.16-32.44-9.16-32.44l42.19-49 25.82-11.4z"/><path class="cls-2" d="M98.48 197.74l23.68 17.16c-6.89 11.07-18 31.38-39.25 53 0 0-15.06 7.18-15.79 21.47-.25 4.93 3.32 25.59 5.9 38.1 3.1 15 4.53 32.57 7.83 34.79 1.9 1.28 8.11 1 10.21 4.76 1.42 2.51 4.76 12 4.76 12s-5.52 1.44-8.42-.59c0 0 1.36-9.12-3-10.74-6.63-2.45-7.64 2.45-10.63-7.44-1.91-6.31-5.7-33.34-11-55a165.81 165.81 0 00-9.41-27z"/><path class="cls-1" d="M300.41 288.19s-2.86 9.39-2.86 11.73-1.91 12.54-3.83 15.94-9.14 28.27-9.35 31.24-3.15 12.73 8.77 22.63a39 39 0 014.78 4.85c1.39 3.29 2.45 7.63 2 10s-13.89 11-24.94 2.36c0 0-1.61-2.59-.55-7.9s-5-8.79-5.29-8.79-7.78-1.29-6.18-8.52 14.37-54.13 14.8-65.18 2.76-24.66 3.83-30.18 6.16-27.63 6.16-31-1.7-21.89-1.7-21.89l21.95 4.61z"/><path class="cls-2" d="M284.44 253.05A103.16 103.16 0 00287 236c0-3.4-2.57-23.45-2.57-23.45l23.57 5.54-7.56 70.1s-2.86 9.39-2.86 11.73c-.03 0-11.9-31.18-13.14-46.87z"/><path class="cls-2" d="M261.29 364.76c1.59-7.23 16.07-57.19 16.49-68.25s2.76-24.66 3.83-30.18 6.16-27.63 6.16-31c0-2.44-.87-12.64-1.37-18.21 9.1 12.79 4.72 29 1.71 43.18-1.95 9.17-3 18.45-4.17 27.75-1.06 8.66-6.26 32.17-8.53 40.56-2.35 8.7-7.31 28.15-7.51 32.83-.13 3 5.36 5.25 6.55 6.61 2.38 2.72 2.82 6.55 3.37 12.3 0 0-5.69 2.45-5.79 2.66a14.75 14.75 0 01.22-3.88 5.6 5.6 0 00-4.12-6.81c-.31-.04-8.43-.32-6.84-7.56z"/><path d="M148.36 206.52s-15.37 10-16.17 12.42-10.68-7.31-21.52-6.21c0 0 3.38-15.09 12.43-15s25.26 8.79 25.26 8.79z" fill="#874c25"/><path class="cls-4" d="M299.35 227.88s-4.27-7.66-19.51-7.88-87.71 1.06-124.91-11.48-47.82 3.61-47.82 3.61l-3-6.58L139 177.07l179.17 22.53z"/><path class="cls-5" d="M18.05 337.93a103.82 103.82 0 001.79-19.24c-.27-7.83-.64-37.61-1-43.19s2.29-6.41 2.29-6.41c19.13-8.61 40.24-38.67 31.63-67.68s-10.84-71.42 0-87S84.68 93 112.1 88.22s96.9 7.33 119.56 6.38S273.74 83.12 283 79.93 320.08 56.55 347.5 37s76.09-21.89 76.09-21.89C459.93 3.63 464.4 37 466.52 43.16S478 62.5 481 64.63s12.33 16.79 14.67 17.85a8.65 8.65 0 013.61 3.83c.27 5.74-7.12 15.62-7.12 15.62s.64 3-4.46 5.1-8.29.32-8.29.32-6.85 1.28-12.27-.32-7.33-11.16-7.33-11.16c-7.17-1-14.67-9.25-14.67-9.25a41.42 41.42 0 01-30.61-8.29c-3.83 1.43-13.55 11-19.61 19.45s-20 23.17-32.31 37.83-12.75 22.1-12.75 22.1c7.23 17 5.1 28.48 3 40s-8.08 15.09-8.08 15.09c-3.61 9.78-8.34 20.51-16.15 44.9s-3.19 26-3.83 31.72-2.71 4.62-5.26 15 .48 44.79.64 53.56 10.26 14.66 12.18 15.3c0 0-14.17 5.24-13.53 2.05s-5.81-3.64-5.81-3.64c-13.07 1.59-13.39-5.42-14-8.93s2.46-41.76 2.46-42.76c0-.76.79-12.24.34-19.56.58-5.19 1.77-10.23 2.81-15.41a130.67 130.67 0 002.06-21.23c.44-13.2 2-28.35-1.9-41.17-2.51-8.26-6.85-16.75-16.06-18.79-5.09-1.13-10.24-1-15.41-1.41-7.19-.51-14.33-1.36-21.48-2.24-14.41-1.78-28.63-1.87-43.09-2.68s-28.5-3.14-42.8-5c-12-1.56-24-1.21-34.84 4.56-4.72 2.51-10.51 5.08-14.21 9.06-2.49 2.68-11.14 7.76-12.78 10.88-19.94 20.6-59.1 62.37-64.8 68.84-7.17 8.13-5.18 68.27-5.18 68.27s-1.61 15.52 4.28 17.75a29.08 29.08 0 018.79 4.89l2.19 10.42c-18.33 9.72-23.8-1.7-23.8-1.7a67.91 67.91 0 00-.14-7.69 5.16 5.16 0 00-6.73-4.53c-2.86.74-1.79-30.71-.68-35.33z"/><path class="cls-6" d="M115.42 163.73c1.17-6 2.08-12.4 1.62-18.56-.2-2.69-3.37-30.12 4.27-37.52 3.31-3.21 12.47-8.53 16.86-3 7.13 8.92 6.65 24.76 5.32 31.53-2.23 11.33-5.88 37-38.73 48.9 5.89-5.08 9.24-14.08 10.66-21.35z"/><path class="cls-4" d="M19.84 318.69c.33-4-.64-37.61-1-43.19s2.29-6.41 2.29-6.41c19.13-8.61 40.24-38.67 31.63-67.68s-10.84-71.42 0-87S84.68 93 112.1 88.22c0 0-2.54.85-4.18 1.5-16 6.32-23.7 13.43-32.86 24.7-16.56 20.35-20.16 54.17 2 71.95 9.73 7.81 18.7 8.65 31.15 7.15 12.09-1.47 26.54-11.28 33.53-22.35 7.26-11.49 11-16.06 13.63-29.49 4.14-21.26-3.77-41.09-2.6-39.59 9 11.51 12.07 27.4 11.7 41.73-.26 10.12-1.09 20.86 2.44 30.55 4 10.92 13.92 15.64 24.81 18.21 9.24 2.18 43.87 6.3 76.52 2.15 6.87-.87 15.38-3.16 22.2-1.07 2.78.85 6.72 5.42 7.15 6.19 5.13 9.3 12.77 21.86 24 24.36 10 2.22 17.21-2.35 22.24-9.54l.23-.13c-1.45 3.83-3.08 7.93-5 13-12.09 11.58-19.43 31.53-19.55 47.74 0 4.18.31 7.63-.94 11.61-.86 2.75-1.88 5.7-1.91 8.62a11 11 0 003 8.16c-.06.25-.13.47-.19.73-2.55 10.36-.16 38.94.36 47.69.66 11.09 14.33 17 19.24 23.88 0 0-25.41 12.77-26.53 10.7s.55-8.79 1.19-12-.8-3-.8-3c-13.07 1.59-13.39-5.42-14-8.93s2.55-41.74 2.55-42.74.92-14.08.22-21.17a167.05 167.05 0 002.3-43 120.37 120.37 0 00-4.65-28c-1.08-6.11-4.16-15.92-9.66-20.73-7.65-6.7-141.87-11.8-148.25-12.75S126.77 203 121 205.55c-5.34 2.4-54 59.45-77.72 82.07-6.35 6.07-9.77 59.32-8.74 73.44.54 7.33 15 16.39 15 16.39L27 385.33a39.11 39.11 0 01-1.51-7.56c-.32-3.83-4.2-5.39-6.6-7.17-3.41-2.53-2.7-4.83-3-7.54s2.89-31.44 3.95-44.37z"/><path class="cls-6" d="M323 287.43a100 100 0 01-.37-11c.2-3.58.51-7.19.91-10.79a194.82 194.82 0 018-23 170.4 170.4 0 005.89-16.64c1.27-4.57 1-10 4.05-13.72 13.12-16.2 11.09-37.13 5.11-55.94-.17-.54-1-8.92-1.25-9.31 8.43 1.82 10.55-5.18 15.91-11.65 6-7.28 11.16-15.09 16.48-22.89 4.9-7.19 11.63-13.14 17.28-19.76 5.15-6 9.36-13 17.1-15.53a7.17 7.17 0 001.21-.52c.38.58.76 1.16 1.17 1.71-3.83 1.44-13.55 11-19.6 19.44s-20 23.17-32.31 37.83-12.75 22.1-12.75 22.1c7.23 17 5.1 28.48 3 40s-8.08 15.09-8.08 15.09c-3.61 9.78-8.34 20.51-16.15 44.9s-3.19 26-3.83 31.72c-.46 4.11-1.65 4.72-3.23 8.54.71-3.49 1.61-7.13 1.46-10.58z"/><path class="cls-5" d="M429.7 20.68S448.51 3.95 445.11 0c0 0-.72-.25-2.34 1.33-1.21 1.2-17.48 13.67-19.51 13.79 0 0-.47 4.08 6.44 5.56z"/><path d="M442 7.9s-3.88 8.53-5.9 10.5c0 0-4.2 2.44-6.43 2.28S438.71 12.13 442 7.9z" fill="#996039"/><path class="cls-8" d="M443.62 13.35S458 8.36 462 5.22c0 0 1.17-.9 1.28 0s-2.1 8.7-10.37 12.29z"/><path d="M462.59 7.62s-3.36 9.13-7.6 11.68l-5.42-1a36.81 36.81 0 0013.02-10.68z" fill="#93562c"/><path class="cls-10" d="M35.28 267.89S28.57 272.55 26 274c-1.92 1.13 1.56 6.26 1.7 15.3a52.59 52.59 0 001.69-10.15c.33-5.26 4.73-8 5.89-11.26z"/><path class="cls-4" d="M51.85 115.86a33.85 33.85 0 015.37-6.68q3.17-.58 6.35-1.07c-2 3.82-5.17 7.31-7.12 10.86a46.91 46.91 0 00-5.94 17.14c-1.05 8.89 0 17.57 1.93 26.12v.39a102.18 102.18 0 004.07 18.07c-.19 8-.87 16.15-3.4 23.31-.88-4.4-2.21-10.53-4.13-18.22-4.15-16.78-6.21-54.87 2.87-69.92zm-.11 122.32a50.72 50.72 0 0010.66-13.25c-2 8.94-6.59 19.18-15 31.6a86.94 86.94 0 004.34-18.35z"/><path class="cls-8" d="M18.88 313.47c0-11.64-.73-30.76-.86-34.43s0-8.58 1.86-9.77c1.32-.83 6.68-4.51 12.13-8.94l1 .88c-4.5 5.68-10.28 7.31-10.62 15-.21 4.73 1.13 44.09.67 54.2-.87 19.37-7.22 37.56-1.33 39.38 5.11 1.58 8 6 9.44 14.94 0 0-2.36 7.08.58 9.9l-8.8-8.31s.95-10.68-1.91-11.41c-2.16-.55-6-.18-6.9-5.08-.55-2.91 4.72-27.83 4.74-56.36zM451.86 60.06s-6.38 2.55-13.18-3.51c0 0 4.57 10.63 13.18 3.51z"/><path class="cls-4" d="M231.66 94.6c22.64-1 42.08-11.48 51.33-14.67S320.08 56.55 347.5 37s76.09-21.89 76.09-21.89c1.85-.58-2.09 5.48 0 11.55 2 5.78 5.82 8.6 10.43 10.28 3.79 2 12.25 4.18 16.22 6.5 1.53.89 5.18 2.36 8.43 10.65.22.57 3.12 10.09 3.06 10.38-.9-.44-6.07-6.46-15.14-6.93-5.34-.49-7.73-2.95-9.09-7.77-.53-1.2-.26-4-1.51-5.09-2.22-1.92-6.34 0-8.28.71-2.18.84-5.91 2.29-7.35 5.79-4.49 10.87 8.73 17.73 18.55 19 1.72 3 10.19 8.75 21.12 7 0 .63 2.63 7.52 10.85 12.64 0 0 3.79 13.9 12.16 15.13 0 0 1.6 2.35 3.44 2.48-4.37 1.35-7.05-.12-7.05-.12s-6.85 1.28-12.27-.32-7.33-11.16-7.33-11.16c-7.17-1-14.67-9.25-14.67-9.25a41.42 41.42 0 01-30.61-8.29c-3.83 1.43-13.55 11-19.61 19.45s-20 23.17-32.31 37.83-12.75 22.1-12.75 22.1c.25.6-4-16.27-4-17.55A84.43 84.43 0 01362.22 113c10.24-11.34 36.48-39.9 37.83-46.56.73-3.59-.12-8.79-4.52-8.2a18.31 18.31 0 00-3.67.88c-2-1.76-4.8-2.45-7.2-.65-1 .74-1.94 1.49-2.88 2.26-.32.18-.63.37-.95.56a5.69 5.69 0 00-3.2 1.68c-.6.62-1.22 1.19-1.85 1.74-2.23 1.65-4.41 3.37-6.74 4.91a6.19 6.19 0 00-2.92 5.18c-.46.43-.9.88-1.35 1.31a7.57 7.57 0 00-1.17.88l-.32.31a51.86 51.86 0 00-7.65 6.7c-.12.13-.23.27-.33.4a5.24 5.24 0 00-.55.44 6.51 6.51 0 00-1 .75 54.33 54.33 0 00-6.75 7.26 126 126 0 00-13 11.7c-4.74 4.82-10.72 9.84-12.06 16.81-1.23 6.4 2.72 11.64 3.71 17.72a65.91 65.91 0 01.79 7.61c0 .58.05 1.17.08 1.76l-.7-.51c-5.38-11.45-13.45-20.93-25.34-26.4-14.57-6.7-31.93-6.19-47.63-6.26-17.41-.07-35.4.69-52.46-3.38-15.7-3.75-28.15-11-38.09-23 27.3 2.41 56.22 6.25 69.36 5.7z"/><path class="cls-10" d="M349.84 157.72s-8.08-16.15-6.59-23.17c0 0 3.4 12.12 9.35 6.8S400.42 81 411.9 75.47c0 0 2.37 2.67 2.6 2.87 0 0-9.1 5.12-19 18.66s-16.69 19.6-16.69 19.6l-15.32 18s-11.21 12.28-13.65 23.12z"/><path d="M479.38 107.35a20.1 20.1 0 01-9.07-17.13 19.9 19.9 0 01-7-1.06 8.13 8.13 0 004.27 2.71s.63 12.19 11.8 15.48z" fill="#7c4825"/><path class="cls-10" d="M478.91 107.43s-14.09-.82-15.68-14c0 0-9-1.17-11.9-8.29 0 0 4.36-.43 6-6 0 0-6.7 6.06-12.75 3.61s-5.21-2.66-5.21-2.66-31.14 3.08-27.1-28.69c0 0-8.5 9.88-.32 24 0 0 11.16 13.5 33.21 11.16a32.52 32.52 0 0014.75 9.64s1.49 8.22 6.31 10.4 12.69.83 12.69.83z"/><path d="M492.55 101.61s0 4.34-6.49 6c-6.26 1.57-1.37-5.22-2.33-6.71s-5.21-4-4.36-10.2 6.27-10.31 2.34-15.52-16.58-10.2-21.15-20.72-1.91-15.73-1.91-15.73 3.36-5.87 7.56 3.11a39.94 39.94 0 006.3 12.27c4.92 6.79 8.11 10.74 10.78 13s7.53 10 7.53 10 4.41 5.16 6.2 6.36 3.82 2.74 2.61 6.43c-1.43 4.33-7.08 11.71-7.08 11.71z" fill="#ddc0b1"/><path d="M499.89 88.9c-1 5.68-7.34 12.71-7.34 12.71s0 4.34-6.49 6c-2.38.6-3.75.3-3.07-2.6 0 0 6.73 1 8.35-4.59.38-1.31 2.87-2.35 5.38-5.82a21 21 0 003.17-5.7z" fill="#c1a193"/><path d="M460.6 34.21a5.22 5.22 0 013.27-.1c1.38 4 2.1 7.45 2.65 9 2.13 6.16 11.59 18.67 14.41 21 5.82 4.78 12.69 17 14.94 18.19a8 8 0 013.77 3.61 2.71 2.71 0 01.28 1.06s-.12.88-1.72.65c-1.79-.26-2.25-1.13-3.64-3.08-3.58-5-8.76-9-12.76-13.81-8.85-10.61-16.08-21-20.4-34.19a7.11 7.11 0 00-.61-1.37v-.5c0 .33.46-.77-.19-.46z" fill="#efdfd5"/><path d="M490.46 85.41c-1.81-3.33-3.93-3.41-3.93-3.41s-4.19 2.61-3.31 7.45 2.69 4.93 3.91 5c1.06.03 5.14-5.71 3.33-9.04z" fill="#683d1f"/><path d="M484.7 83.72c-1 2.77 0 6.92 1.39 8.5.83.93 2.16.82 3.27-.13-.84 1.38-1.8 2.35-2.23 2.33-1.23-.05-3-.14-3.91-5a7 7 0 011.48-5.7z" fill="#845434"/><path d="M297.92 374.59s-9.24-.77-25.9 8.06c0 0 .56 5.37 1.73 7.29a36.3 36.3 0 0030.8-.2s.87-3.94-3.8-12a18.5 18.5 0 00-2.83-3.15zm-184.92-4s-8.89-1-25.55 7.87c0 0 .2 5.56 1.37 7.47a36.3 36.3 0 0030.8-.2s.5-4.66-3.8-12a18.87 18.87 0 00-2.82-3.14z" fill="#353535"/><path d="M339.1 376s-9.8-.53-27.49 8.84a19.41 19.41 0 001.6 7.49s15.73 8.11 32.92-.25c0 0 .93-4.18-4-12.74a19.65 19.65 0 00-3.03-3.34zm-289.57 1.44s-9.48-.53-26.6 8.84a20 20 0 001.55 7.49s15.22 8.11 31.85-.25c0 0 .9-4.18-3.9-12.74a19.43 19.43 0 00-2.9-3.34z" fill="#4f4f4f"/><path class="cls-8" d="M450.48 43.8s-6.54-1.7-10.63 2.23c0-.03 5.68-2.39 10.63-2.23z"/><path class="cls-10" d="M452.5 46s-8.34 3.72-12.86 5c0 0 6 7.3 13.34 5a3.83 3.83 0 003.83.69c2-.9-1.06-3.88-1.06-3.88s.52-5.66-3.25-6.81z"/><path d="M452.5 46a4.64 4.64 0 013.1 4.19c.25 3.36-1.24 6-4.32 6.23s-7.81-.27-8.77-6.33z"/><ellipse cx="451.49" cy="49.76" rx="1.75" ry="1.5" fill="#fff"/><path d="M439.64 12.8s13.18-1.94 21.89 7.89S467 44.34 467 44.34l-1.91-6.4s-.67 7.66-4.29 10.32c0 0 1.38-5.63-.11-8.93 0 0-1.7 4.57-3.83 5.84 0 0-.21-9.67-3-13.82 0 0-1.67 6.12-3.94 8.59 0 0 .88-7.35-.38-10.37 0 0-.5 7.49-4 10.72 0 0 1.8-11.54-1.57-18.55 0 0-1.45 7.9-7.76 11.54 0 0 5.08-6.94 1.29-16.68zm-16.38 2.32s-16.89 14-17.21 42A39.22 39.22 0 01404 42.31s-9.72 30.29-9.41 42.88c0 0-2.77-17.21-2.36-28.64 0 0-1.72 27-15.91 40.8 0 0 8.76-14.25 4.88-31.92 0 0-1.88 19.81-10.61 29-6.43 6.78-9.16 15.94-9.16 15.94s1.28-9.88 4.78-16.42 2.87-23.43 2.87-23.43-2.08 21.85-7.66 28.38-9.26 9.28-10.52 17.69c0 0-1.35-6.91 2.55-19 0 0-7.13 9.38-7.47 16.39-.23 4.62-1 13.17-3.92 15.92 0 0 2-3.85.23-13.34-.78-4.15.77-12.43.77-12.43s-5.56 11.32-5.4 19.93c0 0-2.75-7.49.55-17.9 0 0-4.4 5.84-4.4 10.41 0 3.51.55 10.75-3.48 13.71a10.72 10.72 0 000-10.68c-2-3.62 1.59-13.87 4.46-21.84 0 0-7.81 10.2-8.77 14.83s-.8 12.67-6.7 15.62c0 0 5.62-6.25 1.12-17.54 0 0-10.47 8.69-10.47 15.07 0 0-1.44-6.6 2.38-16.46 0 0-6.87 9-13.91 11.35 0 0 8.16-7.54 7.5-16.34 0 0-13.23 10-14.83 19 0 0-.64-11 3.51-16.26a15.87 15.87 0 00-11.62 10.2s-.8-10.68 6.22-15c0 0-11.48 4-14.19 11.8 0 0 3.51-15.3 10.68-20.09 0 0-11.8 2.55-15 8.77 0 0 4.14-10.52 12.75-15.3 0 0-11.3 3-16.25 10.82 0 0 3.76-9.07 5.4-11a118.25 118.25 0 01-18.91 3.63 80.17 80.17 0 009.55-3.51c6.18-2.68 23.47-11.86 33.46-20.36s42.09-29.13 49.72-33.62c14.18-8.37 55.13-23.99 76.83-18.25zM69.44 100.47s-14.93-3.28-34.72 3.87c-10.13 3.66-27.3 19.17-30.27 47s-8.93 46.25 1.28 68S27.67 259.74 26 274c0 0 4.27-8 2.57-13.73 0 0 20.45 23.87 15.2 48.06 0 0 6.47-10.9 6.41-17 0 0 1.74 13.92-2.29 23.08 0 0 25.4-37.47 15.41-70s-38.77-42.93-34.16-85.87 23-43.25 23-43.25 11.73 1.03 17.3-14.82z" fill="#2d1c06"/><path class="cls-10" d="M301.48 320c0-1 1.28-19.13-.32-24.23s-1.59-57.39-1.59-64.08c0-1.65-.22-3.81-.22-3.81a117.37 117.37 0 015.05 27.33c1.22 19.87 1.31 39.95 1 59.84-.16 9.53-.87 19.53-.81 29.07 0 8.14-1.07 17.2 1.22 20 1.86 2.3 4.8 2.89 7.69 3.11a4.38 4.38 0 014.25 3.94c.4 2.82.85 7.14.24 10.45 0 0-5.75 2.75-6.37 3.12.07-2.88 1.64-7.58 2.15-10.12.64-3.19-.8-3-.8-3-13.07 1.59-13.39-5.42-14-8.93s2.51-41.69 2.51-42.69z"/><path class="cls-6" d="M315.4 137.32s21.9 24.23 17.22 51.68-16.37-8.5-17.22-15.52-9.56-32.55-13.4-34.48-9.55-20.17 13.4-1.68z"/></g></g></svg>