<svg width="40" height="40" fill="none" xmlns="http://www.w3.org/2000/svg"><path d="M25.708 9.857l-2.987.323a1.353 1.353 0 00-1.195 1.16l-.445 3.24a1.353 1.353 0 001.053 1.505l1.544.337c2.03.58.467 4.952-.492 6.144a8.182 8.182 0 01-3.917 2.674 1.637 1.637 0 01-1.98-.88l-.53-1.158a1.353 1.353 0 00-1.962-.575l-3.074 1.977a1.353 1.353 0 00-.614 1.283l.2 1.86a2.706 2.706 0 002.982 2.399l2.69-.291c7.43-.803 12.803-7.477 12-14.907l-.292-2.691a2.706 2.706 0 00-2.981-2.4z" stroke="#78756E" stroke-width="1.5"/></svg>