<svg width="44" height="44" fill="none" xmlns="http://www.w3.org/2000/svg"><path fill-rule="evenodd" clip-rule="evenodd" d="M29.714 6.16H14.286a8.126 8.126 0 00-8.126 8.126v15.428a8.125 8.125 0 008.126 8.126h15.428a8.125 8.125 0 008.126-8.126V14.286a8.125 8.125 0 00-8.126-8.126zm0-2.16H14.286A10.286 10.286 0 004 14.286v15.428A10.286 10.286 0 0014.286 40h15.428A10.286 10.286 0 0040 29.714V14.286A10.286 10.286 0 0029.714 4zm4.287 8a2 2 0 11-4 0 2 2 0 014 0zM28.84 22a6.84 6.84 0 11-13.68 0 6.84 6.84 0 0113.68 0zM31 22a9 9 0 11-18 0 9 9 0 0118 0z" fill="#4F4840"/></svg>