<svg width="44" height="44" fill="none" xmlns="http://www.w3.org/2000/svg"><path fill-rule="evenodd" clip-rule="evenodd" d="M22 6.27c-2.814 0-5.506 1.12-7.484 3.102a10.529 10.529 0 00-3.08 7.439c0 1.34.628 3.325 1.714 5.681 1.065 2.31 2.495 4.82 3.94 7.154A131.887 131.887 0 0022 36.984a131.887 131.887 0 004.91-7.337c1.445-2.334 2.875-4.845 3.94-7.155 1.086-2.356 1.714-4.341 1.714-5.681 0-2.782-1.103-5.459-3.08-7.439A10.576 10.576 0 0022 6.27zm0 32.595l-.863.696-.01-.013-.026-.035-.1-.135a130.393 130.393 0 01-1.707-2.384c-1.1-1.574-2.57-3.743-4.042-6.12-1.469-2.372-2.953-4.97-4.073-7.401-1.1-2.386-1.929-4.772-1.929-6.662a12.84 12.84 0 013.749-9.073A12.72 12.72 0 0122 4a12.72 12.72 0 019.001 3.738 12.842 12.842 0 013.749 9.073c0 1.89-.829 4.276-1.929 6.662-1.12 2.43-2.604 5.03-4.073 7.402a134.209 134.209 0 01-5.75 8.503l-.1.135-.025.035-.009.012-.864-.695zm0 0l.864.695A1.08 1.08 0 0122 40a1.08 1.08 0 01-.863-.44l.863-.695z" fill="#4F4840"/><path fill-rule="evenodd" clip-rule="evenodd" d="M22 12.21a4.79 4.79 0 100 9.58 4.79 4.79 0 000-9.58zM15 17a7 7 0 1114 0 7 7 0 01-14 0z" fill="#4F4840"/></svg>