<svg xmlns="http://www.w3.org/2000/svg" width="54" height="53" fill="none"><g fill="#78756E" fill-rule="evenodd" clip-path="url(#a)" clip-rule="evenodd"><path d="M26.994 2.242c-13.256 0-24.002 10.746-24.002 24.002 0 13.256 10.746 24.002 24.002 24.002 13.256 0 24.002-10.746 24.002-24.002 0-13.256-10.746-24.002-24.002-24.002zM1.117 26.244C1.117 11.953 12.703.367 26.994.367c14.291 0 25.877 11.586 25.877 25.877 0 14.291-11.586 25.877-25.877 25.877-14.291 0-25.877-11.586-25.877-25.877z"/><path d="M19.184 14.819a.938.938 0 01.961-.212l15.846 5.544a.938.938 0 01-.62 1.77L21.29 16.993l10.333 32.964a.938.938 0 01-1.789.56L18.941 15.774a.937.937 0 01.243-.954z"/><path d="M20.413 14.754c.407.318.48.907.161 1.315l-6.562 8.399a.937.937 0 11-1.477-1.154l6.561-8.399a.938.938 0 011.317-.161zm2.484 11.019l10.39 3.418a.937.937 0 11-.586 1.781l-9.067-2.982-5.116 7.31a.938.938 0 01-1.536-1.075l5.915-8.452z"/></g><defs><clipPath id="a"><path fill="#fff" d="M.75 0h52.5v52.5H.75z"/></clipPath></defs></svg>