<svg width="160" height="159" fill="none" xmlns="http://www.w3.org/2000/svg"><g clip-path="url(#clip0_1100_7091)" fill="#78756E"><path d="M77.578 0h2.266c.156.016.304.047.46.047 1.68.008 3.36 0 5.04.023.836.016 1.672.094 2.5.148a.617.617 0 01-.352.195c-.555.133-1.117.258-1.664.406-.101.023-.273.148-.266.203.063.366.118.756.282 1.083.078.149.406.18.625.242 1.492.406 2.96.757 4.492.016.617-.297 1.203-.491 1.383-1.232.07-.289.265-.328.539-.25.765.21 1.539.382 2.305.593.476.125 1.039.187.937.967.094-.094.14-.125.148-.172.055-.35.243-.397.555-.273.29.117.594.195.89.297 2.055.662 4.118 1.349 6.274 1.528 1.43.117 2.711.577 3.946 1.24.203.109.414.21.632.304.133.055.274.078.407.101.734.133 1.382.468 1.992.897.179.125.336.289.531.39 2.711 1.443 5.43 2.862 8.133 4.32 3.281 1.77 6.453 3.712 9.328 6.09.891.733 1.719 1.537 2.57 2.316l-.047.164c-.898.125-1.796.25-2.703.374.008.063 0 .11.016.14.383.539.773 1.077 1.164 1.615a.298.298 0 00.148.109c.282.047 1.086-.483 1.164-.764l.399-1.357c.047-.016.086-.039.133-.055.804.827 1.656 1.607 2.398 2.496.586.701 1.219.928 2.086.701.649-.171 1.297-.062 1.914.18.57.226.859.67.867 1.271 0 .374-.07.749-.125 1.115-.039.257.032.398.25.577.485.398 1 .811 1.344 1.326.5.74.867 1.567 1.289 2.355.594 1.123 1.344 2.074 2.625 2.464.555.171.766.444.727 1.03-.055.771.164 1.465.578 2.097.195.288.398.577.617.858 1.625 2.035 2.953 4.25 3.852 6.698.32.873.687 1.677 1.453 2.254.359.273.476.592.172.99-.071.094-.102.234-.157.367.243.171.446.366.688.483.953.452 1.344 1.271 1.539 2.238.031.156.07.304.101.452.368 1.537.618 3.112 1.133 4.601a155.245 155.245 0 012.883 9.295c.609 2.191 1.125 4.398 1.273 6.675.11 1.552.305 3.104.376 4.656.054 1.24.015 2.487-.071 3.727-.047.64-.312 1.263-.437 1.903-.118.592-.172 1.185-.258 1.785-.234-.187-.36-.39-.5-.577-.078-.101-.18-.25-.274-.25-.5.009-1 .056-1.593.094.359.562.672 1.03.961 1.521.14.234.296.257.546.187.649-.187 1.297-.35 1.954-.522v1.17c-.172.826-.328 1.653-.508 2.471-.274 1.256-.649 2.496-.57 3.798.124 2.043-.29 3.985-1.04 5.856-.804 2.02-1.492 4.071-1.898 6.207-.469 2.449-1.336 4.742-2.422 6.964-.914 1.864-1.898 3.704-2.75 5.599-1.5 3.337-3.039 6.628-5.305 9.545-1.726 2.222-3.492 4.39-5.671 6.199a65.624 65.624 0 00-3.813 3.4c-1.016.982-1.93 2.074-2.906 3.103-.36.382-.766.718-1.149 1.076-.031-.023-.054-.046-.086-.062.157-.468.321-.936.508-1.489-.773.374-1.468.702-2.148 1.052a.463.463 0 00-.203.305c-.117.694-.219 1.388-.328 2.082-.008.062-.079.132-.141.171-.891.702-1.781 1.396-2.664 2.098-.227.179-.352.125-.5-.086-.25-.359-.539-.702-.781-1.068-.172-.265-.329-.312-.586-.094-.313.273-.625.569-.985.764-.664.375-.773.85-.515 1.537.148.405.218.795.773.74.008 0 .024.039.047.086-.461.367-.945.725-1.391 1.107-.453.39-.922.718-1.531.765-.015 0-.023.039-.047.07.039.031.086.054.125.086.031.031.063.07.117.124-2.164 1.739-4.578 2.987-7.085 4.125-.29-.514-.54-.998-.829-1.458-.078-.117-.289-.249-.414-.226-.601.117-1.187.296-1.781.445-.234.054-.266.187-.219.405.102.445.164.897.274 1.334.062.249.195.483.312.779-1.203.546-2.492 1.131-3.82 1.739v-.436c-.203-.032-.391-.071-.586-.086-.586-.055-.594-.055-.688.538-.054.327-.117.592-.507.725-1.094.367-2.172.795-3.266 1.17-.211.07-.477.047-.695-.016-.227-.062-.336-.054-.477.156-.117.172-.32.351-.515.398-2.383.53-4.758 1.123-7.165 1.528-2.96.499-5.937.85-8.914 1.256-.421.054-.843.062-1.273.093a62.545 62.545 0 00-.086-.631c-.352.148-.703.179-.828.577-.023.07-.188.124-.29.132-.687.039-1.382.039-2.062.094-.554.047-1.03-.024-1.336-.554-.023-.047-.101-.07-.187-.132-.18.257-.352.499-.523.733h-1.641c-.39-.024-.781-.078-1.164-.047-.531.039-.828-.195-1-.741 1.008-.6 1.836-1.489 2.898-1.895-1.172 0-2.406 0-3.64.008-.094 0-.204.054-.29.101-1.03.624-2.171 1.069-3.062 1.926-.117.11-.336.195-.484.172-2.008-.367-4.008-.749-6.008-1.131-.086-.015-.164-.07-.328-.132.445-.258.797-.515 1.187-.679.383-.156.797-.21 1.164-.296-.375-.32-.836-.569-1.43-.39-.109.031-.234.008-.35.016-1.08.07-2.157.171-3.235.21-.782.031-1.57.218-2.36-.07a10.996 10.996 0 00-1.648-.468c-1.016-.195-1.852-.632-2.36-1.575a.92.92 0 00-.25-.296c-.124-.094-.28-.195-.43-.211-.905-.07-1.812-.117-2.726-.179-.656-.047-1.312-.102-2.008-.164.141-.827.243-1.599.422-2.355.14-.585-.14-1.014-.375-1.544-.14.148-.234.249-.328.359-.625.725-1.258 1.458-1.883 2.191-.125.148-.234.257-.453.132-.625-.343-1.265-.67-1.89-1.005-.047-.024-.07-.086-.118-.156.414-.125.79-.242 1.204-.367-.274-.249-.516-.405-.829-.187-.648.46-1.257.351-1.859-.101-.125-.094-.273-.156-.406-.227l-1.117-.569c.312-.359.586-.67.93-1.076h-.54c-.742 0-1.484.008-2.226-.008-.188 0-.39-.047-.555-.132-4.328-2.114-8.25-4.827-11.945-7.907-3.867-3.221-7.305-6.839-10.524-10.684-.61-.725-1.101-1.489-1.406-2.394-.242-.733-.555-1.442-.836-2.16-.016.008-.031.008-.047.016l.485 2.316c-.11-.133-.196-.211-.258-.304-.766-1.022-1.563-2.012-2.281-3.065-.899-1.318-1.743-2.674-2.602-4.023-.25-.398-.445-.811.008-1.217-.125-.133-.219-.242-.32-.343-.97-.975-1.579-2.067-1.11-3.494.016-.062.008-.132.008-.195.008-.849-.297-1.614-.774-2.284-1.164-1.638-1.945-3.455-2.593-5.342-.742-2.176-1.47-4.351-2.258-6.503-1.258-3.44-1.68-6.917-.617-10.496a6.125 6.125 0 00-.102-3.868c-.437-1.225-.703-2.48-.601-3.782.093-1.201-.25-2.223-1-3.143-.493-.608-.704-1.325-.579-2.082.157-.943.407-1.871.649-2.8.07-.272.055-.467-.149-.662-.421-.421-.53-.928-.39-1.505.07-.312.086-.632.14-1.006-.164.039-.273.07-.382.094v-.546c.07-.484.171-.967.203-1.459.117-1.785.32-3.555.726-5.302a.913.913 0 01.172-.374c.258-.297.563-.562.805-.874.601-.787.586-.787.031-1.598-.094-.133-.125-.32-.148-.492-.04-.234.008-.49-.063-.701-.32-.92.047-2.363.774-2.886.734-.53 1.46-1.076 2.226-1.575.524-.343.836-.733.742-1.396-.039-.265.032-.546.047-.819.055-1.037.047-1.037-.922-1.387-.015-.008-.023-.008-.039-.016-.21-.078-.312-.195-.242-.445.203-.71.39-1.427.578-2.144.055-.218.172-.312.407-.328.687-.038 1.375-.132 2.062-.155.57-.024.953-.203 1.063-.811.078-.414.304-.82.289-1.217-.032-.944-.18-1.887-.266-2.83-.008-.118.016-.273.086-.36.937-1.099 1.71-2.37 3.078-3.04 1.164-.57 1.875-1.49 2.367-2.69.305-.742.461-1.334-.094-1.974-.18-.21-.14-.397.032-.616.656-.834 1.297-1.692 1.937-2.542.078-.109.149-.226.242-.359-.492-.202-.922-.382-1.398-.577.101-.132.156-.218.226-.296 1.157-1.302 2.32-2.597 3.47-3.915.234-.265.46-.405.82-.39.617.032 1.234.008 1.953.008-.211-.577-.36-1.029-.54-1.466-.18-.436-.1-.818.204-1.146.773-.826 1.562-1.637 2.336-2.456.21-.226.445-.32.758-.328.164-.008.43-.101.476-.226.234-.631.742-.81 1.32-.92.282-.055.555-.133.828-.218.407-.133.805-.219 1.094.226.008.008.047 0 .117-.008.118-.57.227-1.154.36-1.731.031-.148.086-.359.187-.398.563-.242 1.149-.444 1.797-.686.031.904.524 1.411 1.266 1.817-.195-.476-.39-.897-.531-1.334-.22-.701-.579-1.263-1.297-1.544-.055-.023-.094-.078-.203-.171 1.382-1.084 2.734-2.152 4.132-3.252.235.53.422.983.649 1.412.07.124.265.28.39.265.813-.078 1.625-.203 2.438-.312-.055.062-.11.132-.164.195-.14-.234-.266-.484-.43-.71-.21-.312-.46-.593-.672-.904a.53.53 0 00-.562-.258c-.39.047-.79.063-1.18.094-.016-.047-.039-.086-.055-.133 1.899-1.333 3.797-2.667 5.766-4.047.094.437.148.74.219 1.037.07.289-.04.39-.336.406-.524.03-1.055.101-1.602.156.446.662.5.678 1.18.428.094-.038.195-.085.297-.1.797-.118 1.125-.664 1.25-1.373a3.5 3.5 0 00.031-.811c-.016-.258.086-.398.305-.523a43.398 43.398 0 017.594-3.61c.257-.094.523-.18.843-.289-.273.928.157 1.958-.804 2.628l.117.047c.617-.445 1.242-.889 1.883-1.35-.266-.49-.524-.95-.79-1.442.22-.085.399-.156.587-.218 3.14-1.006 6.343-1.716 9.593-2.238 2.485-.406 4.977-.819 7.461-1.224.86-.14 1.719-.336 2.578-.016.352.133.696.086 1.063.016.75-.14 1.515-.242 2.273-.336C73.97.07 74.54.047 75.11.008h.391c.805.117 1.617.242 2.516.374-.22-.18-.329-.28-.438-.382zM28.297 40.502c-.492-.397-.86-.74-1.281-1.021-.961-.632-2.016-.554-2.813.273-.453.468-.789 1.053-1.11 1.63-.452.795-1.007 1.302-2.007 1.24-1.883-.117-3.5.584-4.883 1.809-2.844 2.526-4.734 5.653-5.719 9.334-.43 1.598-.562 3.244-.82 4.866-.43 2.737-.96 5.466-1.5 8.187-.695 3.51-1.21 7.027-1.117 10.63.055 2.019-.07 4.046-.133 6.074-.07 2.394-.008 4.788.57 7.12.391 1.574.797 3.134 1.032 4.748.156 1.06.32 2.152.703 3.143.922 2.386 1.937 4.733 2.984 7.065 1.524 3.376 3.29 6.628 5.11 9.856a53.941 53.941 0 007.968 10.746c1.946 2.043 3.977 4.008 5.93 6.035 1.969 2.044 4.14 3.821 6.625 5.225a20.618 20.618 0 013.969 2.948c.508.475 1.078.92 1.687 1.255 4.078 2.199 8.235 4.227 12.57 5.872 5.102 1.934 10.344 3.166 15.813 3.221 4.39.046 8.773 0 13.164.007 2.984.008 5.953-.187 8.883-.756 4.742-.92 9.391-2.199 13.883-4 5.117-2.051 9.906-4.773 14.656-7.557 1.43-.834 2.781-1.824 3.742-3.197 1.641-2.355 3.695-4.296 5.938-6.043 2.078-1.614 3.937-3.431 5.437-5.599 1.078-1.56 2.18-3.104 3.258-4.671.617-.897 1.297-1.77 1.781-2.737 1.156-2.301 2.203-4.648 3.305-6.971.758-1.599 1.445-3.229 1.68-4.999.257-1.988.836-3.876 1.554-5.731.508-1.31 1-2.62 1.43-3.954.719-2.254.711-4.6.797-6.94.055-1.552.195-3.111.414-4.648.43-2.994.969-5.965 1.406-8.952.18-1.224.07-2.456-.43-3.634a8.431 8.431 0 01-.531-1.785 12.396 12.396 0 01-.023-4.68c.031-.163-.031-.358-.102-.514a26.403 26.403 0 00-.742-1.505c-1.039-1.95-1.953-3.977-3.164-5.81-1.633-2.487-3.266-4.974-4.711-7.571-.305-.538-.492-1.076-.289-1.7.086-.28.101-.585.125-.881.109-1.505-.266-2.917-.906-4.258-.696-1.435-1.508-2.823-2.164-4.273-.454-.99-.954-1.918-1.664-2.753-.227-.265-.422-.616-.485-.959-.164-.881-.765-1.185-1.539-1.287-1.484-.202-2.828-.756-4.055-1.621-1.484-1.046-2.703-2.371-3.804-3.782-1.235-1.576-2.719-2.862-4.375-3.954-1.969-1.294-3.891-2.644-5.625-4.258-1.016-.943-2.157-1.747-3.446-2.323-1.89-.843-3.75-1.732-5.617-2.62-.406-.196-.781-.39-1.258-.32-.148.023-.328-.07-.476-.133-.992-.398-1.977-.803-2.961-1.2-1.953-.788-3.914-1.553-5.86-2.356-1.328-.546-2.671-1.03-4.078-1.31-2.296-.46-4.632-.437-6.945-.616-1.453-.11-2.906-.226-4.351-.366-1.461-.14-2.915-.344-4.383-.476-1.578-.14-3.14.125-4.703.32-1.118.14-2.25.163-3.32-.226-1.579-.578-3.165-.695-4.79-.336-.906.203-1.812.398-2.562 1.053-.375.327-.89.53-1.375.71-1.063.39-2.18.452-3.305.499-.734.03-1.484.07-2.094.506-1.086.773-2.297 1.21-3.586 1.443-1.828.328-3.656.67-5.406 1.326-2.351.873-4.11 2.355-4.93 4.796a16.245 16.245 0 01-.57 1.489 215.067 215.067 0 01-1.805 3.837c-.453.95-.937 1.887-1.382 2.838-.22.46.101.928.609.967.86.062 1.18-.242 1.203-1.123.008-.296.078-.593.117-.889.055-.008.102-.016.157-.016.234.421.476.85.718 1.271.102.18.211.36.336.523.117.148.39.359.367.398-.18.288-.367-.032-.562-.04a.838.838 0 00-.36.086c-.023.008 0 .203.055.265.664.757.844 1.747 1.258 2.62.078.164.125.344.148.523.07.5-.085.788-.484.951-.39.164-.726.07-1.016-.327-.445-.616-.89-1.24-1.304-1.88-.563-.88-1.336-1.091-2.235-.56-.32.194-.648.405-.898.678-1.273 1.427-2.766 2.682-3.555 4.507-.172.398-.43.74-.914.826-.304.055-.351.265-.234.53.18.414.562.593 1.062.515.375-.054.75-.132 1.118-.117.859.032 1.343.53 1.351 1.388.008.398-.047.804-.078 1.201-.047.53-.242.741-.695.78-.446.039-.68-.156-.813-.663-.078-.304-.14-.608-.258-.897-.406-.943-1.617-1.193-2.328-.452-.258.265-.39.663-.593.99-.18.281-.336.585-.579.804-.375.335-.812.592-1.242.904-.055-.03-.125-.093-.21-.117a41.772 41.772 0 00-.891-.288c-.094.296-.203.592-.274.897-.101.265-.133.569-.195.927zM158.03 74.626c-.008-.086-.008-.109-.015-.14-.235-.874-.469-1.755-.719-2.62-.024-.07-.195-.148-.281-.133-.368.07-.727.18-1.094.265-.242.055-.305.18-.25.421.164.734.328 1.466.445 2.207.039.25 0 .538-.086.772-.203.53-.468 1.037-.695 1.56-.039.086-.039.242.008.304.156.164.562.117.711-.07.609-.772 1.226-1.544 1.836-2.324.07-.078.109-.187.14-.242zm-2.422 27.847c-.054-.055-.109-.109-.156-.164-.086-.484-.156-.967-.265-1.45-.016-.055-.204-.133-.297-.11-.469.102-.93.242-1.391.351-.25.063-.297.211-.25.437.078.405.164.811.219 1.224.031.219.125.273.312.219.5-.133 1-.273 1.5-.414.094-.031.211-.062.328-.093zm-34.547 43.489c-.171-.647-.312-1.201-.484-1.739-.023-.078-.195-.164-.305-.164-.57.008-1.148.024-1.718.063-.094.007-.258.124-.266.202-.055.429-.062.866-.101 1.38.398-.155.718-.257 1.015-.397.289-.141.524-.141.797.047.305.202.633.366 1.062.608zm13.5-119.698c-.171-.578-.343-1.077-1.007-1.225-.383-.086-.735-.32-1.094-.491-.149-.07-.289-.148-.445-.226-.227.904-.196.967.664 1.076.062.008.14-.008.195.023.203.102.453.172.578.336.274.374.664.428 1.109.506zm-.367 104.843c.43.436.797.834 1.196 1.201.078.078.281.085.398.039.07-.024.109-.211.102-.328-.008-.296-.032-.6-.063-.897-.039-.343 0-.647.352-.85-.633.273-1.266.538-1.985.835zm-8.968-115.963l-.094-.024c-.195.476-.399.952-.586 1.427-.031.078-.031.195.008.258.312.499.64.99.961 1.481.023-.008.046-.023.07-.031a410.858 410.858 0 00-.359-3.111z"/><path d="M6.375 46.281c.836.46 1.258 1.13 1.46 1.958-.757.288-1.382.265-2.25-.094.267-.608.524-1.217.79-1.864zm50.578-15.26c1.149-.81 2.375-1.395 3.742-1.645.625-.117 1.196-.35 1.664-.795.47-.453.516-.835.063-1.31-.422-.437-.906-.82-1.367-1.217-.39-.343-.813-.655-1.172-1.03-.235-.249-.461-.56-.54-.88-.062-.258.032-.64.204-.842.125-.14.531-.172.742-.086.523.226 1.008.538 1.492.826.453.273.89.593 1.352.85.64.351 1.148.04 1.078-.686-.04-.483-.242-.944-.375-1.42-.117-.405-.273-.81-.328-1.231-.047-.367.18-.515.515-.351.29.132.57.32.805.538a5.236 5.236 0 011.36 1.973c.078.203.18.405.289.6.18.328.46.46.843.43.266-.024.547.007.813.03.617.07.883-.07 1.023-.678.133-.554.18-1.123.266-1.692.008-.063-.008-.133.016-.195.078-.187.164-.375.25-.562.124.172.351.328.367.507.062.835.195 1.7.062 2.511-.367 2.2-.836 4.383-1.305 6.558-.242 1.13-.078 2.145.602 3.104.547.772 1.04 1.59 1.523 2.402 1.446 2.433 3.594 3.797 6.391 4.18.453.062.906.1 1.352.155.304.04.437-.07.453-.405.047-1.232-.18-2.433-.453-3.618-.711-3.096-1.5-6.177-2.157-9.288-.343-1.63-.554-3.306-.68-4.967-.124-1.599-.124-3.22-.07-4.82.04-1.403.29-2.79.86-4.093.14-.32.32-.616.547-1.037.297.475.562.842.757 1.24.43.842.68 1.754.665 2.698-.024 1.49-.125 2.986-.165 4.476-.03 1.037.04 2.074.399 3.072.14.382.289.85.727.881.453.04.64-.429.843-.772.594-.998.602-2.074.39-3.173-.288-1.506-.64-2.995-.85-4.508-.305-2.136.437-3.992 2.327-4.967.125-.062.258-.101.438-.172.117.82.234 1.599.344 2.379.289 2.035.195 4.055-.196 6.082-.226 1.178-.242 2.378.11 3.548.133.445.297.928.82.983.492.054.79-.351 1.031-.725.47-.718.524-1.544.485-2.363-.04-1.076-.149-2.152-.227-3.22-.133-1.849-.18-3.681.586-5.436.336-.756.844-1.442 1.297-1.715.023.023.07.039.078.07.29 1.076.64 2.136.844 3.228.226 1.248-.149 2.472-.414 3.688-.375 1.755-.735 3.51-.742 5.31 0 .344.07.703.187 1.022.148.406.492.492.805.188.297-.281.562-.624.75-.983.742-1.435.82-2.979.672-4.554-.188-1.965-.11-3.907.906-5.67.242-.42.601-.779.937-1.13.141-.148.368-.25.579-.312.43-.125.617.016.624.468.008.406.008.803-.015 1.209-.078 1.427.187 2.815.336 4.226.172 1.63.008 3.244-.211 4.85-.516 3.76-1.492 7.424-2.414 11.097-.281 1.139-.508 2.293-.414 3.462.047.609.21 1.225.422 1.802.203.546.343.577.921.491 2.172-.32 4.329-.749 6.446-1.349 2.07-.585 3.805-1.755 5.547-2.948 2.57-1.77 5.179-3.478 7.804-5.162 1.829-1.177 3.696-2.277 5.555-3.4a9.547 9.547 0 011.328-.655c.156-.062.446-.07.539.031.11.117.149.406.078.562-.211.452-.429.92-.75 1.302-1.132 1.357-2.562 2.355-4.093 3.205-1.532.858-3.133 1.599-4.641 2.488-1.148.678-2.203 1.512-3.281 2.308-.274.203-.477.514-.656.81-.235.398-.047.742.414.68.562-.071 1.14-.18 1.664-.383 2.507-.982 5.031-1.934 7.32-3.369 1.359-.85 2.656-1.785 4-2.65a9.152 9.152 0 011.57-.773c.289-.117.633-.14.953-.132.571.015.914.538.633 1.037-.242.428-.57.842-.937 1.177-1.477 1.334-3.196 2.316-4.907 3.306-1.929 1.116-3.976 1.989-6.023 2.862a28.23 28.23 0 00-2.437 1.217c-.329.18-.626.429-.876.702-.382.42-.249.889.29 1.068.218.07.515.11.718.023.813-.335 1.649-.647 2.399-1.1 2.64-1.582 5.273-3.189 8.062-4.514 1.407-.67 2.813-1.357 4.36-1.669.25-.055.515-.07.773-.062.625.007.875.327.734.935-.179.811-.703 1.412-1.289 1.95-1.5 1.372-3.273 2.293-5.093 3.135-1.946.896-4 1.45-6.071 1.98-1.429.367-2.804.874-4.039 1.708a4.22 4.22 0 00-.547.445c-.086.085-.117.218-.179.327.125.063.242.172.367.172.281.007.57-.016.851-.07 3.672-.718 7.243-1.779 10.68-3.268 1.274-.553 2.586-1.021 3.891-1.482.351-.124.773-.085 1.156-.054.547.047.828.437.594.92a4.577 4.577 0 01-.969 1.334c-1.195 1.115-2.648 1.77-4.195 2.238-2.907.889-5.813 1.785-8.719 2.674-3.883 1.186-7.781 2.285-11.79 2.963-1.687.289-3.398.445-5.1.656a73.59 73.59 0 01-2.29.241c-.273.024-.375.172-.414.421-.312 1.84-.601 3.689-.96 5.521a92.294 92.294 0 01-1.173 5.24 25.961 25.961 0 00-.789 5.849c-.007.32-.117.717.032.936.132.202.554.218.851.312.961.296 1.836.74 2.57 1.427 1.477 1.356 1.727 3.002 1.133 4.842-.765 2.394-2.43 3.946-4.68 4.928-1.507.655-3.085.999-4.718 1.1-.469.031-.938.054-1.399.07-.195.008-.328.031-.296.28.242 2.223.71 4.383 1.773 6.38.672 1.27 1.57 2.339 2.883 3.033 1.96 1.037 4.89.101 5.984-1.302.555-.71.742-1.498.555-2.379-.047-.218-.133-.265-.344-.218-.875.203-1.477-.023-1.969-.725-.515-.733-.57-1.685-.125-2.386.578-.92 1.64-1.357 2.664-1.115 1.032.249 1.813 1.146 1.914 2.26.282 3.089-1.296 5.771-3.93 7.058-3.07 1.497-8.156 1.209-10.952-.912-2.188-1.653-3.516-3.86-4.282-6.441-.453-1.544-.687-3.12-.484-4.734.32-2.542.969-4.967 2.46-7.104a11.224 11.224 0 012.704-2.729c.29-.21.563-.507.727-.827.804-1.512 1.203-3.15 1.367-4.842.172-1.872.328-3.75.375-5.63.031-1.295-.14-2.59-.235-3.884-.062-.842-.14-1.684-.203-2.518-.007-.14-.015-.281-.023-.476l-1.984.335c-2.016.32-4.016.757-6.047.936-3.235.289-5.82-.951-7.633-3.688-1.227-1.848-1.938-3.915-2.336-6.067-.352-1.926-.563-3.876-.813-5.817-.14-1.084-.203-2.168-.601-3.205-.828-2.16-2.438-3.37-4.672-3.798-.203-.062-.422-.093-.633-.133zm25.813 48.675c.609-.101 1.336-.171 2.039-.343 3.047-.756 4.593-3.891 3.367-6.8-.516-1.224-1.664-1.84-2.969-1.567-.922.195-1.633.733-2.21 1.443-1.641 2.004-2.032 4.413-2.173 6.893-.007.086.164.257.274.273.515.047 1.031.062 1.672.101zm4.57-28.197c-.82.132-1.54.273-2.273.35-.376.04-.47.22-.493.547-.125 1.63-.242 3.26-.414 4.881-.195 1.794-.383 3.587-.687 5.365-.352 2.051-.414 4.102-.313 6.168.008.086.063.21.125.25.211.109 1.11-.164 1.227-.39.422-.842.883-1.677 1.226-2.55.563-1.435.805-2.955.993-4.468.21-1.724.406-3.455.515-5.186.078-1.216.016-2.44.024-3.665.007-.405.046-.803.07-1.302zm-7.328 20.618c-.188.14-.383.257-.555.413-.312.288-.64.57-.914.904-2.25 2.753-3.305 5.92-3.047 9.467.274 3.759 2.086 6.558 5.461 8.313.297.156.602.296.906.444-.343-.327-.726-.569-1.086-.85-1.835-1.427-3.164-3.213-3.828-5.458-.539-1.825-.625-3.68-.328-5.545.469-2.854 1.438-5.474 3.39-7.688zM69.633 48.02c.484 1.224 1.976 2.238 3.21 2.254.282.007.384-.102.329-.375-.149-.725-.29-1.45-.453-2.167-.024-.117-.172-.29-.274-.297-.992-.062-1.898.226-2.812.585zm30.703-5.06c.633-.048 1.07-.118 1.398-.492.196-.218.235-.452.102-.718-.43-.857-2-1.177-2.742-.561-.563.468-.531 1.13.133 1.443.39.187.836.25 1.109.327zm-10.367 2.034c.726-.007 1.21-.553.984-1.138-.226-.57-.633-.983-1.242-1.146-.578-.156-1.11.171-1.164.701-.094.788.64 1.591 1.422 1.583zm5.367-2.893c-.008-.023-.016-.039-.016-.062-.289.093-.61.133-.875.28-.539.29-.617.835-.234 1.31.39.476 1.195.648 1.742.375.469-.234.75-.725.664-1.17-.07-.374-.484-.663-1.008-.717-.093-.008-.187-.008-.273-.016zm-2.117 5.264c.015-.031.039-.07.054-.101.508.023.899-.304.82-.694-.132-.687-1.03-1.342-1.718-1.24-.344.046-.672.218-.71.561-.032.242.085.593.265.733.39.312.86.507 1.289.741zm-4.383 1.544c.68-.008 1.242-.289 1.5-.702.289-.475.094-1.053-.398-1.154-.57-.117-1.57.351-1.844.873-.203.383-.086.726.312.882.164.062.344.078.43.101zm10.398-2.488c.25-.085.547-.14.797-.28.344-.18.422-.507.258-.788-.367-.64-1.531-.928-2.102-.476-.203.156-.406.476-.39.702.023.219.289.476.516.608.257.133.578.149.921.234zm-37.156-15.65c.57.234 1.031.444 1.5.608.274.094.469.008.461-.358-.008-.46.242-.687.688-.617.273.047.523.227.851.375.188-.312.406-.655.649-1.053-.758.039-1.407.047-2.047.101-.75.063-1.399.398-2.102.944zm14.406 12.937c-.359-.928-1.328-1.622-2.148-1.653-.297-.016-.367.124-.313.382.094.452.18.912.305 1.356.031.102.211.25.305.234.61-.085 1.21-.202 1.851-.32zm6.602 6.004c-.484-.327-.938-.64-1.406-.943-.063-.04-.211-.032-.266.015-.492.43-.812.975-1.047 1.575.844.437 2.11.148 2.719-.647zm-10.703-7.759c-.274-.678-1.024-1.224-1.594-1.24-.21-.008-.328.047-.273.289.07.312.148.632.203.951.039.226.18.32.39.28.414-.077.82-.178 1.274-.28zm3.367 7.424c.188-.43.367-.819.523-1.224.024-.063-.039-.219-.101-.25a12.1 12.1 0 00-1.125-.507c-.055-.023-.227.102-.242.172-.133.592.304 1.442.945 1.809zm3.414-.304c-.414-.172-.82-.351-1.242-.515-.055-.023-.195.039-.219.101-.21.422-.398.85-.594 1.28.782.249 1.72-.164 2.055-.866zm-.281-3.416c-.18.413-.36.827-.524 1.24-.023.055.008.164.055.203.398.32.86.468 1.352.577.164-.834-.188-1.638-.883-2.02zm-9.852-4.67c-.742.42-1.125.935-1.226 1.652-.032.211.054.328.289.273.304-.07.617-.109.906-.21.117-.04.273-.226.266-.336-.032-.428-.133-.857-.235-1.38zm2.5 4.304c.68-.343 1.04-.843 1.18-1.52.039-.18.016-.32-.25-.328-1.211-.016-1.461.304-1.102 1.442.047.125.102.242.172.406zm10.297-1.186c-.664-.506-1.656-.428-2.203.149.367.32.727.647 1.148 1.021.368-.405.704-.772 1.055-1.17zm-6.375 1.872c.43.18.828.35 1.242.499.063.023.203-.047.243-.117.18-.359.351-.717.492-1.092.023-.054-.086-.234-.157-.25-.609-.124-1.484.313-1.82.96zm-7.32-1.59c.273.685.976 1.2 1.539 1.223.242.008.344-.085.297-.32-.055-.303-.094-.615-.196-.904-.039-.117-.242-.257-.359-.25-.414.047-.828.157-1.281.25zm17.96.14c-.71 1.052-.57 1.473.548 1.723.015 0 .03.016.039.008.086-.055.234-.102.25-.172.11-.538-.282-1.271-.836-1.56zm-2.452 2.846c.101-.258.226-.468.25-.694.015-.11-.11-.304-.227-.359-.18-.093-.398-.11-.61-.148a.336.336 0 00-.054.171c.063.406.188.78.64 1.03zm-.172-2.215c.297.133.554.242.883.39.14-.32.273-.616.414-.92-.54-.133-1 .062-1.297.53zm2.43 2.028c-.383-.102-.727-.32-.938-.226-.203.085-.266.49-.414.803.601.085.96-.11 1.351-.577z"/><path d="M68.579 128.057c-1.117-1.232-1.5-2.683-1.328-4.297.132-1.201.554-2.323 1.14-3.368.336-.609.735-1.178 1.172-1.763.656 2.425 1.414 4.749 3.711 6.215.086-.678.102-1.294.234-1.879.485-2.191 1.54-4.063 3.391-5.381 1.508-1.076 3.125-1.263 4.805-.351.258.141.304.266.164.538-.836 1.622-1.438 3.315-1.453 5.163-.024 3.376 1.984 6.129 5.21 7.158 1.805.577 3.602.616 5.376-.14 1.18-.499 2.03-1.388 2.765-2.394.961-1.302 1.586-2.753 1.672-4.383.11-2.082-.719-3.813-2.11-5.318-1.64-1.778-3.687-2.955-5.867-3.907-3.718-1.621-7.632-2.557-11.624-3.204a144.848 144.848 0 00-6.368-.897c-1.648-.195-3.312-.297-4.976-.429-.563-.039-.617.015-.774.538a29.016 29.016 0 01-1.898 4.687 26.98 26.98 0 01-6.633 8.336c-2.789 2.354-5.945 4.093-9.32 5.458-1.438.585-2.86 1.178-4.399 1.443-3.336.585-6.43-.032-9.242-1.895-1.398-.928-2.133-2.355-2.554-3.938-.813-3.065-.368-6.028.875-8.898 1.437-3.322 3.78-5.91 6.68-8.032 2.874-2.105 6.085-3.54 9.468-4.585 3.125-.967 6.328-1.575 9.578-1.91.438-.047.875-.109 1.32-.141.235-.015.32-.117.344-.327.242-2.722.43-5.443.266-8.172-.196-3.26-.305-6.52-.157-9.779.126-2.698.368-5.396 1.172-7.993.336-1.1.79-2.175 1.328-3.19.93-1.738 2.454-2.752 4.368-3.18 1.75-.398 3.453-.227 5.046.608 2.157 1.138 3.196 3.017 3.258 5.396.094 3.977-1.687 7.01-4.921 9.24a14.22 14.22 0 01-3.47 1.755c-.28.093-.382.242-.359.538.164 2.191.305 4.374.461 6.566.117 1.684.258 3.36.336 5.053.055 1.076.024 2.152 0 3.228-.008.351.11.445.461.491 2.102.258 4.203.499 6.297.85a72.162 72.162 0 0110.922 2.722c3.414 1.138 6.719 2.526 9.734 4.53 1.68 1.116 3.219 2.394 4.438 4.009 2.71 3.602 3.078 7.517 1.14 11.517-1.828 3.767-4.671 6.667-8.46 8.554-1.555.772-3.227 1.147-4.954 1.311-3.578.335-7.054-.266-10.476-1.225-2.852-.803-5.672-1.723-8.516-2.542-.82-.234-1.672-.374-2.523-.476-1.39-.171-2.266.453-3.07 1.654-.25.366-.196.67.148.974.281.25.601.445.922.648.515.327 1.062.6 1.562.959 1.633 1.162 1.828 2.799.516 4.312-.805.928-1.805 1.474-3.086 1.318-.89-.109-1.547-.616-2.016-1.334-2.226-3.368-1.617-7.696 2.266-9.903 2.492-1.411 5.117-1.489 7.805-.624.054.039.132.063.203.086zm-12.29-18.699c-.304 0-.492-.008-.687 0l-2.914.21c-2.61.195-5.187.585-7.734 1.185-3.055.718-6 1.692-8.664 3.4-2.992 1.919-4.258 4.835-3.524 8.211.625 2.893 2.805 4.648 5.774 4.632 1.39-.007 2.695-.374 3.968-.889 2.102-.85 3.985-2.074 5.79-3.431 1.171-.873 2.265-1.809 3.148-2.994 1.852-2.503 3.18-5.264 4.172-8.188.226-.67.43-1.364.672-2.136zm-17.913-1.576c.015.024.03.055.047.078.07-.031.132-.054.203-.093 3.859-2.098 8.015-3.291 12.32-4.001a67.661 67.661 0 017.516-.811c2.804-.148 5.593-.046 8.382.156 2.875.203 5.735.655 8.555 1.271 1.953.422 3.883.952 5.805 1.498 2.992.85 5.867 2.027 8.71 3.283.946.421 1.876.896 2.805 1.341a.16.16 0 00-.093-.117 65.395 65.395 0 00-5.61-2.979 55.174 55.174 0 00-6.898-2.682c-3.149-.999-6.352-1.778-9.64-2.199-2-.258-3.993-.546-6.009-.57a121.813 121.813 0 00-6.28.07c-2.571.102-5.126.461-7.642 1.006-3.374.741-6.671 1.708-9.742 3.33-.82.437-1.617.944-2.43 1.419zm25.953-25.71c.14-.046.234-.062.304-.1 2.227-1.17 3.774-2.917 4.399-5.374.297-1.17.336-2.37-.195-3.509-.243-.514-.633-.897-1.204-1.029-.867-.21-1.523.195-2.07.795-.875.944-1.18 2.13-1.234 3.37-.07 1.605-.063 3.22-.078 4.826 0 .32.046.64.078 1.022zm-2.461-9.95c-.867 1.334-1.344 2.823-1.688 4.367-.601 2.69-.718 5.428-.765 8.165-.078 5.13-.07 10.262-.11 15.393 0 .242.016.429.32.382.25-.047.657.171.665-.351.047-2.792.132-5.583.125-8.375-.008-3.782-.11-7.556-.11-11.338 0-1.162.14-2.332.266-3.494.187-1.645.555-3.251 1.297-4.749zm17.11 47.03c-.024.039-.048.085-.071.124-.883 1.794-1.32 3.689-1.14 5.693.195 2.16 1.14 3.907 2.991 5.123 1.47.959 3.11 1.271 4.813 1.357.195.008.383 0 .555 0-1.032-.366-2.07-.686-3.079-1.092-2.664-1.091-4.101-3.111-4.406-5.957-.18-1.77.063-3.494.336-5.248zm-20.126-9.833c-.734-.102-.734-.102-.89.514-.758 2.924-1.868 5.693-3.649 8.165-.039.054-.07.124-.102.187 2.282-2.566 3.735-5.552 4.641-8.866z"/><path d="M17.71 78.198c-.007-4.507.946-8.788 3.079-12.772 1.992-3.72 4.726-6.77 8.57-8.625 5.016-2.425 9.984-2.2 14.781.593 3.875 2.253 6.477 5.645 8.29 9.669 1.156 2.566 1.85 5.256 2.132 8.055.547 5.38-.242 10.543-2.703 15.393-1.86 3.673-4.438 6.746-8.102 8.726-5.5 2.971-10.945 2.698-16.187-.662-3.453-2.215-5.82-5.381-7.5-9.077a26.24 26.24 0 01-2.29-9.163c-.023-.359-.054-.725-.07-1.084-.007-.35 0-.702 0-1.053zm27.954-4.429c0-.062.007-.125 0-.187-.18-1.154-.32-2.316-.54-3.454-.554-2.847-1.406-5.591-2.859-8.11-.867-1.497-1.914-2.854-3.414-3.782-.86-.53-1.789-.811-2.812-.757-1.297.07-2.368.64-3.328 1.466-1.336 1.154-2.274 2.597-3.032 4.164-1.992 4.102-2.773 8.492-2.992 13a41.544 41.544 0 00.281 7.501c.407 3.158 1.117 6.23 2.438 9.14.875 1.933 1.969 3.72 3.68 5.06 1.976 1.56 4.43 1.544 6.398-.015 1.46-1.162 2.453-2.667 3.297-4.297 1.539-2.979 2.172-6.176 2.32-9.49.133-2.854-.273-5.615-1.367-8.266-.719-1.754-1.797-3.135-3.648-3.82-2.305-.859-4.844.023-5.977 2.151-.617 1.162-.734 2.402-.523 3.759.164-.11.273-.203.398-.265.5-.242.984-.546 1.508-.702 1.523-.452 2.992.289 3.61 1.747.288.678.343 1.38.304 2.097a3.04 3.04 0 01-1.992 2.69c-1.578.578-3.32.047-4.516-1.356-2.352-2.768-2.172-6.987.438-9.662.554-.569 1.203-1.037 1.804-1.544-.11-.062-.281-.14-.437-.257-1.813-1.271-2.594-3.041-2.43-5.21.094-1.231.75-2.167 1.922-2.682.117-.054.25-.07.406-.117-.297 1.1-.156 1.63.617 2.41.22.218.438.452.688.632 1.21.85 2.43 1.692 3.664 2.518 2.312 1.568 4.617 3.135 6.094 5.638zM27.617 96.36c-.54-.6-1.102-1.177-1.602-1.8-3.867-4.89-5.375-10.551-5.375-16.68 0-1.42.164-2.854.367-4.258.532-3.603 1.743-6.963 3.727-10.036a19.97 19.97 0 013.07-3.688c-.062.008-.093 0-.11.015-.077.055-.148.11-.218.164-2.789 2.145-4.758 4.92-6.125 8.125-1.867 4.383-2.367 8.953-1.734 13.655.547 4.047 1.976 7.759 4.453 11.034 1.008 1.341 2.172 2.51 3.547 3.47zm16.93-.007c.007.008.015.023.03.031.079-.054.165-.101.243-.163 2.11-1.622 3.742-3.642 4.992-5.966 2.328-4.304 3.219-8.92 2.922-13.794-.172-2.745-.75-5.389-1.79-7.939-1.241-3.041-3.03-5.7-5.523-7.868-.312-.273-.64-.514-.968-.772-.032.031-.063.07-.094.102.39.366.797.71 1.164 1.099a13.7 13.7 0 011.047 1.263c3.156 4.242 4.633 9.07 4.93 14.294a28.35 28.35 0 01-.54 7.4c-.835 4.032-2.43 7.72-5.101 10.894-.414.491-.875.943-1.313 1.42zm60.493-18.341c-.414.491-.813.92-1.157 1.38-1.648 2.199-2.562 4.71-3.07 7.377-.461 2.402-.5 4.827-.391 7.26.008.234.047.46.071.733-.172.015-.305.046-.438.046-1.484 0-2.968-.007-4.453.008-.344.008-.406-.124-.398-.428.047-3.05.687-5.974 1.781-8.804 1.016-2.628 2.383-5.046 4.336-7.112a13.334 13.334 0 013.062-2.44c-.531-1.397-1.164-2.715-2.007-3.923-.532-.764-1.141-1.459-1.914-1.98-1.485-.991-2.875-.937-4.29.155-.07.055-.148.094-.296.195 0-.554-.008-1.053.007-1.544 0-.07.102-.148.172-.195 1.446-.967 2.953-1.801 4.68-2.168 2.633-.561 4.727.32 6.383 2.37 1.367 1.693 2.273 3.642 2.898 5.701.899 2.948 1.703 5.934 2.508 8.913.813 3.026 1.648 6.036 3.039 8.859.883 1.785 1.953 3.43 3.539 4.694 1.383 1.1 2.969 1.7 4.727 1.833.375.03.515.132.508.53-.024 1.091 0 1.091-1.094 1.068-2.649-.055-5.235-.452-7.625-1.669-2.516-1.27-4.305-3.275-5.641-5.708-1.351-2.464-2.203-5.123-2.937-7.821-.641-2.34-1.25-4.687-1.868-7.034a1.4 1.4 0 01-.132-.296zm-3.344-10.223c1.523.32 2.664 1.208 3.594 2.394 1.14 1.45 1.906 3.103 2.437 4.842.891 2.909 1.703 5.849 2.516 8.788.679 2.449 1.359 4.905 2.359 7.245.891 2.082 1.953 4.047 3.695 5.567.594.523 1.446 1.045 1.977 1.139-.922-.515-1.641-1.185-2.266-1.957-1.156-1.42-1.96-3.041-2.507-4.765-.969-3.08-1.86-6.184-2.743-9.287-.757-2.66-1.421-5.342-2.57-7.868-.75-1.653-1.617-3.237-2.961-4.492-.984-.92-2.148-1.52-3.531-1.606z"/><path d="M114.703 71.912c-.141-.39-.297-.74-.399-1.107-.023-.086.071-.257.157-.32.39-.28.765-.6 1.195-.787 1.977-.874 4.016-1.045 6.07-.312 1.664.592 2.586 1.926 2.586 3.696V94.09c0 .538-.023.545-.547.499-.867-.07-1.695-.258-2.453-.702-1.281-.757-2.047-1.918-2.398-3.322-.235-.936-.391-1.918-.399-2.877-.039-4.625-.023-9.249-.015-13.873 0-.717-.211-1.357-.664-1.903-.61-.733-1.555-.912-2.391-.452-.242.11-.461.273-.742.452zm7.719 20.665c-1.18-.718-1.649-1.856-1.868-3.12-.125-.709-.171-1.442-.187-2.167-.024-1.91.031-3.821-.016-5.724-.054-2.09-.203-4.172-.312-6.262-.016-.343-.071-.686-.11-1.037h-.14c-.133 2.16-.305 4.32-.375 6.48-.063 2.13-.039 4.266-.008 6.395.023 1.31.312 2.573.945 3.743.461.842 1.102 1.474 2.071 1.692zm1.359-27.871c0 1.66-1.258 2.924-2.898 2.916-1.625-.008-2.867-1.271-2.867-2.909 0-1.66 1.242-2.908 2.906-2.908 1.633 0 2.859 1.247 2.859 2.9zm-3.195-1.872c-.727-.094-1.227.257-1.578.795-.469.718-.461 1.474.015 2.192.375.569.922.834 1.618.787-.782-.39-1.274-.959-1.297-1.871-.016-.905.469-1.49 1.242-1.903zm-9.547 69.319c.313.561.578 1.045.844 1.528.484.889.953 1.786 1.461 2.667.195.336.187.538-.18.694-.102.047-.195.109-.344.195-1.039-1.949-2.07-3.868-3.109-5.817.281-.179.523-.367.789-.484.102-.046.297.016.398.094 1.344 1.045 2.672 2.106 4.008 3.166-.117-.46-.258-.959-.367-1.466-.258-1.177-.492-2.363-.75-3.54-.055-.242.008-.398.234-.507.211-.102.399-.234.649-.382 1.273 1.77 2.539 3.524 3.828 5.318-.148.109-.281.195-.391.288-.226.195-.382.156-.562-.093-.906-1.302-1.828-2.589-2.75-3.883-.047-.063-.086-.125-.133-.188.359 1.677.719 3.346 1.07 5.007.039.187.086.436 0 .585-.187.311-.437.304-.734.062a605.642 605.642 0 00-3.961-3.244zm9.93-8.986c.906-.873 1.781-1.708 2.695-2.581 1.367 1.411 2.703 2.799 4.055 4.203.14-.109.258-.203.429-.335.516.546 1.024 1.091 1.532 1.629-.36.578-.477.593-.899.156-.219-.226-.414-.467-.656-.733a47.54 47.54 0 00-1.016.952c-.562.538-1.109 1.099-1.687 1.622-.242.218-.219.366-.008.569.18.172.313.39.492.554.297.265.25.468-.054.67-.055.039-.102.078-.133.102-.539-.546-1.071-1.092-1.617-1.646.335-.218.179-.546.085-.889-.312-1.068-1-1.902-1.726-2.706-.484-.506-.969-1.013-1.492-1.567zm1.265.109c1.125 1.115 2.336 2.316 2.805 4.086.672-.717 1.289-1.364 1.914-2.035-1.094-1.131-2.242-2.308-3.437-3.54-.43.507-.836.975-1.282 1.489zm22.399-63.6c-2.102.694-4.164 1.38-6.258 2.074-.094-.25-.211-.452-.227-.663-.007-.1.149-.272.274-.311 1.289-.445 2.586-.866 3.883-1.287.336-.11.664-.226 1-.328.242-.07.304-.179.218-.428-.25-.726-.492-1.45-.718-2.184-.094-.296-.266-.218-.453-.156-1.602.53-3.204 1.06-4.813 1.59-.109.04-.219.071-.391.118-.093-.289-.187-.562-.296-.881 1.859-.608 3.679-1.209 5.515-1.81-.015-.1-.015-.179-.039-.249-.094-.234-.015-.35.235-.413.539-.148 1.07-.312 1.601-.491.289-.102.359.07.43.28.078.219.078.367-.188.445-.289.086-.554.218-.843.304-.274.078-.336.195-.235.475.422 1.21.82 2.433 1.227 3.65.023.078.039.14.078.265zm-40.227 76.446c.008-1.708.781-2.76 2.11-3.181 1.242-.398 2.453.015 3.242 1.146.679.975 1.078 2.043.812 3.259-.461 2.083-3.203 2.948-4.773 1.505-.899-.818-1.367-1.848-1.391-2.729zm5.344.554c-.125-1.061-.539-2.059-1.547-2.737-.609-.406-1.266-.468-1.922-.109-.64.351-.953.896-.969 1.622-.015 1.138.422 2.074 1.274 2.807.602.522 1.305.639 2.039.296.758-.343 1.086-.975 1.125-1.879zm31.391-34.953c-1.32-.031-2.453-.484-3.242-1.567-.719-.99-.703-2.067-.164-3.127.516-.999 1.391-1.443 2.492-1.443 1.391 0 2.602.468 3.406 1.638.68.99.61 2.074.063 3.103-.531 1.006-1.438 1.412-2.555 1.396zm.094-.912c.148-.024.398-.039.641-.102 1.468-.366 1.968-2.027.922-3.111-.829-.858-1.86-1.224-3.055-1.037-.735.117-1.266.514-1.539 1.224-.266.71-.078 1.326.414 1.864.672.748 1.531 1.107 2.617 1.162zm.398-49.181c-1.141-.055-2.274.491-3.446-.094-.015.125-.031.218-.031.312.016.694-.273 1.209-.906 1.505-.648.304-1.305.28-1.867-.187-.797-.663-1.125-1.599-1.391-2.558-.023-.085.172-.296.305-.358 1.234-.609 2.476-1.201 3.719-1.794.468-.226.945-.437 1.406-.678.258-.14.43-.14.531.171.047.148.133.28.227.476-.852.413-1.688.819-2.516 1.224.289.92.656 1.443 1.813 1.271.375-.054.75-.093 1.117-.14.687-.094.906.07 1.039.85zM136.945 50c-.422.195-.828.39-1.234.585-.906.444-.945.6-.352 1.435.071.093.141.187.219.273.344.358.75.444 1.211.257.438-.18.672-.5.711-.975.039-.6-.242-1.076-.555-1.575zm10.235 26.132c-.89 0-1.75.008-2.609-.007-.32-.008-.406.132-.398.42.031.765.054 1.53.062 2.293 0 .297.102.383.391.375.757-.024 1.507-.008 2.265-.024.258-.007.43.032.407.351-.024.265.062.562-.383.538-.391-.023-.782.008-1.172.016-1.469.023-2.938.055-4.414.07-.289.008-.656.125-.625-.413.031-.476 0-.476.64-.484.563-.007 1.118-.023 1.68-.023.289 0 .422-.102.406-.413a60.496 60.496 0 01-.062-2.379c0-.25-.094-.343-.352-.335-.664.023-1.328.023-1.992.054-.25.016-.383-.054-.344-.311.039-.242-.179-.616.328-.616.875 0 1.743-.016 2.618-.032 1.015-.015 2.031-.046 3.047-.062.546-.008.546-.008.539.554 0 .109-.016.21-.032.428zm-23.383 53.432c-.219.179-.399.351-.602.468-.094.054-.273.023-.383-.039-.461-.273-.898-.577-1.359-.843-.102-.054-.305-.062-.391 0-.476.344-.922.726-1.382 1.077-.18.14-.196.272-.118.467.149.39.282.78.414 1.17.219.632.164.749-.539 1.037l-.656-1.824c-.516-1.443-1.016-2.886-1.547-4.321-.101-.272-.054-.428.18-.584.687-.46.437-.484 1.133-.039 1.656 1.052 3.297 2.121 4.945 3.189.094.062.18.14.305.242zm-4.625.078c.5-.39.945-.741 1.422-1.115-.852-.562-1.649-1.077-2.454-1.607.344.889.672 1.763 1.032 2.722zm14.82-17.619c-.024-.132-.039-.265-.086-.39-.313-.826-.586-1.669-.969-2.464-.289-.593-.102-1.006.336-1.481.437 1.185.851 2.331 1.273 3.462.055 0 .086.008.102 0 .664-.655 1.476-.702 2.328-.546.633.117 1.266.265 1.898.39-.148.67-.406.85-1.046.733-.54-.102-1.071-.234-1.61-.281-.805-.062-1.273.257-1.64 1.061.601.366 1.203.74 1.804 1.115.086.054.18.109.266.163.469.289.453.289.164.757-.133.218-.25.273-.484.125a546.023 546.023 0 00-5.063-3.088c-.437-.265-.062-.476.016-.702.109-.296.281-.179.461-.07.601.366 1.203.717 1.812 1.076.109.062.227.117.336.179.031 0 .063-.023.102-.039zm13.281-30.621c-.032.312-.024.577-.094.82-.024.093-.196.186-.321.218-.476.132-.953.249-1.437.35-.25.047-.352.18-.367.421-.031.554-.094 1.116-.102 1.67 0 .124.133.303.25.358.43.21.875.39 1.328.554.297.109.43.257.321.577-.047.14-.047.304-.071.499-.132-.047-.242-.07-.343-.117-1.883-.82-3.758-1.653-5.649-2.449-.437-.187-.312-.483-.32-.795-.008-.312.125-.453.43-.53 1.976-.492 3.953-.999 5.921-1.498.125-.023.25-.039.454-.078zm-2.922 1.614c-.993.242-1.93.46-2.922.702.945.39 1.828.757 2.758 1.147.054-.64.101-1.201.164-1.849zm.641-22.051c.07.296.156.514.156.74 0 .118-.11.281-.219.352-.422.28-.852.545-1.289.803-.195.117-.258.234-.195.475a27.4 27.4 0 01.336 1.56c.046.234.148.359.414.374.39.016.773.094 1.164.125.734.07.75.086.836.912-.11 0-.227.008-.328 0-1.875-.194-3.75-.39-5.625-.577-.118-.015-.235-.046-.352-.039-.438.04-.641-.124-.734-.584-.079-.398-.008-.593.351-.804 1.664-.99 3.313-2.012 4.961-3.025.149-.102.305-.187.524-.312zm-2.282 2.417c-.875.53-1.679 1.014-2.531 1.529l2.945.272c-.148-.639-.273-1.177-.414-1.8zm-1.014 42.024c-.063.164-.11.273-.141.382-.117.398-.367.499-.766.421-.453-.093-.922-.14-1.39-.179-.102-.008-.258.062-.305.148-.297.546-.578 1.1-.836 1.669-.047.093.024.296.109.382.313.327.633.655.993.936.312.249.39.483.148.811-.07.093-.109.202-.187.335-.094-.07-.188-.117-.25-.187-1.493-1.466-2.969-2.948-4.469-4.398-.305-.297-.102-.507.008-.757.117-.257.218-.452.593-.397 2.047.273 4.094.514 6.141.764.102.008.195.039.352.07zm-4.133 2.184c.32-.64.57-1.155.859-1.716-1.015-.148-1.945-.273-2.742-.39.562.632 1.187 1.326 1.883 2.106zm-7.102 8.578c.461-.499.828-.999 1.297-1.365.797-.624 1.679-.6 2.414-.062.765.561 1.039 1.395.734 2.347-.258.819-.797 1.481-1.351 2.121-.196.226-.344.054-.5-.055-1.391-1.006-2.774-2.012-4.164-3.018-.258-.187-.524-.382-.821-.6.188-.25.352-.476.539-.725.657.483 1.274.928 1.852 1.357zm.726.522c.711.499 1.422 1.006 2.133 1.505.641-.468 1.008-1.357.828-1.949-.164-.531-.671-.952-1.187-.975-.672-.031-1.422.561-1.774 1.419zm11.939-24.151c-.071.382-.133.764-.219 1.138-.055.226-.008.328.234.374.649.133 1.289.297 1.938.43.226.046.265.132.218.343-.14.616-.132.623-.765.475-1.797-.413-3.594-.826-5.391-1.224-.281-.062-.383-.18-.328-.452.117-.57.195-1.154.359-1.708.329-1.115 1.18-1.7 2.157-1.536 1.172.187 1.757.912 1.797 2.16zm-.805.109c.015-.718-.367-1.201-1.078-1.365-.571-.132-1.102.18-1.375.835-.102.25-.133.53-.211.787-.071.234.023.336.242.382.453.102.906.219 1.359.336.868.21.985.124 1.055-.78.016-.063.008-.125.008-.195zm-40.915 46.856c.234.655.453 1.263.672 1.872.187.53.195.53-.32.701-.094.032-.196.055-.329.094a96.008 96.008 0 01-.632-1.684c-.485-1.326-.961-2.659-1.47-3.985-.108-.296-.07-.452.212-.585.742-.351 1.469-.717 2.32-.733.852-.016 1.414.374 1.735 1.131.328.78.304 1.575-.336 2.16-.422.39-1.008.608-1.524.897-.094.046-.187.078-.328.132zm1.578-2.183c-.101-.944-.758-1.49-1.617-1.303-.266.055-.516.164-.773.25-.243.086-.313.226-.211.483.203.492.375.991.562 1.49.211.553.219.569.766.359.258-.102.539-.234.726-.437.227-.242.367-.562.547-.842zM146 71.304c0-.647.07-1.232-.016-1.794-.117-.74-.679-1.107-1.328-1.021-.593.078-.961.57-.976 1.302-.008.32 0 .64 0 1.006-.172.016-.375.04-.617.063a30.26 30.26 0 00-.118-.539c-.093-.42-.289-.78-.664-1.021-.32-.21-.664-.218-1-.047-.328.164-.492.445-.5.819-.007.499.016.608.547 1.583-.39.437-.586.444-.875-.031-.398-.655-.57-1.357-.422-2.121.133-.64.469-1.092 1.125-1.248.688-.164 1.258.031 1.703.577.063.078.125.164.219.28.039-.093.071-.155.078-.225.11-.702.5-1.154 1.196-1.326.765-.187 1.445 0 1.898.655.617.897.711 1.903.43 2.94-.024.093-.211.18-.328.195-.133.039-.289-.031-.352-.047zm-17.859 45.641c-1.141.725-2.016 1.591-1.649 3.057.266 1.06 1.446 2.089 2.446 2.152 1.5.086 2.203-.944 2.804-2.082.633.093.727.249.446.787-.344.648-.766 1.24-1.375 1.669-.844.593-1.781.764-2.735.382-1.414-.561-2.359-1.567-2.523-3.135-.086-.811.18-1.575.703-2.206.32-.383.711-.71 1.086-1.045.273-.25.508-.203.648.156.032.078.086.156.149.265zM97.07 143.498c-.593-2.121-1.18-4.187-1.78-6.324l3.327-.99c.047.078.078.117.094.163.242.577.234.585-.367.757-.54.148-1.07.319-1.617.452-.29.07-.344.195-.258.468.46 1.567.906 3.142 1.36 4.71.148.499.148.499-.368.655-.117.031-.227.062-.39.109zm49.304-54.282c-.062 1.092-.039.858-.875.741-1.789-.257-3.57-.546-5.351-.803-.266-.039-.367-.132-.321-.398.141-.951.29-1.895.415-2.846.046-.359.273-.25.492-.234.25.016.351.117.304.374-.093.578-.179 1.154-.273 1.732-.086.499-.047.553.445.623l4.774.726c.117.015.242.054.39.085zm-10.397-34.101c.742-.304 1.445-.584 2.148-.873 1.203-.491 2.406-.967 3.602-1.49.437-.194.453.118.585.36.165.303.016.397-.242.498-1.742.702-3.484 1.427-5.226 2.137-.516.21-.516.21-.742-.312a2.486 2.486 0 01-.125-.32zm4.5 18.013c.945-.086 1.867-.164 2.781-.242 1.047-.086 2.101-.164 3.148-.265.641-.063.649-.07.649.592 0 .078-.016.149-.032.258-.468.046-.929.101-1.398.14-1.594.133-3.187.25-4.781.382-.258.024-.367-.054-.367-.304v-.561z"/></g><defs><clipPath id="clip0_1100_7091"><path fill="#fff" d="M0 0h160v159H0z"/></clipPath></defs></svg>