<svg width="213" height="164" fill="none" xmlns="http://www.w3.org/2000/svg"><path fill-rule="evenodd" clip-rule="evenodd" d="M106.494 3.75c-26.512 0-48.004 21.492-48.004 48.004 0 26.511 21.492 48.003 48.004 48.003 1.83 0 3.637-.102 5.414-.302L98.581 56.94l-9.04 12.918a1.875 1.875 0 11-3.073-2.15l10.697-15.285-5.708-18.208-10.925 13.982a1.875 1.875 0 11-2.955-2.308l13.096-16.762a1.882 1.882 0 01.854-.64 1.88 1.88 0 011.317.006l31.643 11.07a1.875 1.875 0 11-1.238 3.54l-28.165-9.854 5.767 18.395 18.227 5.996a1.874 1.874 0 11-1.172 3.563l-15.676-5.157 13.429 42.837c22.128-4.277 38.838-23.752 38.838-47.13 0-26.511-21.491-48.003-48.003-48.003zM54.74 51.754C54.74 23.17 77.911 0 106.494 0s51.753 23.17 51.753 51.754c0 28.582-23.17 51.753-51.753 51.753S54.74 80.337 54.74 51.754zm92.016 109.871c.253.18.543.271.869.271h.109c.362 0 .651-.109.869-.325.217-.181.344-.433.38-.758l.109-2.003c.036-.649.072-1.588.108-2.815.036-1.191.055-2.237.055-3.139 0-.758-.182-1.299-.544-1.624-.362-.361-.941-.56-1.738-.596-.471 0-.851.018-1.14.055h-.815a310.478 310.478 0 01-.272-4.602v.542a609.604 609.604 0 00-.217-6.821c-.109-3.067-.181-4.835-.217-5.305v-7.848c0-1.48.018-3.212.054-5.197.036-2.021.072-3.555.109-4.601.036-.217.072-.559.108-1.029.073-.505.109-.938.109-1.299 0-1.046-.326-1.732-.978-2.057a1.934 1.934 0 00-.869-.216c-.471 0-.796.198-.978.595-.253.469-.38 1.227-.38 2.274l.055 1.461c0 2.238.036 5.125.108 8.661l.326 12.991c0 .867.036 2.238.109 4.114.108 1.769.163 3.573.163 5.413v3.194l-4.454.596a15.765 15.765 0 01-.435-2.003 12.73 12.73 0 01-.108-1.678c0-.217-.037-.83-.109-1.841-.362-4.15-.598-7.091-.706-8.823-.109-1.732-.163-3.825-.163-6.279 0-2.165.018-3.97.054-5.413 0-.975.018-1.805.054-2.49a95.6 95.6 0 01.109-1.841 55.34 55.34 0 00.163-4.276c0-1.191-.181-2.219-.543-3.085-.109-.217-.417-.397-.924-.542-.506-.18-.869-.234-1.086-.162-.253.072-.416.198-.489.379-.072.144-.108.343-.108.595v.487c.108 1.733.163 3.266.163 4.602v1.894l.054 2.49c.109 3.537.308 8.878.597 16.023.109 2.526.308 6.315.598 11.367 0 .686.163 1.335.489 1.949.362.577.941.812 1.738.704 1.376-.109 3.024-.217 4.943-.325a118.92 118.92 0 014.399-.271c0 1.335-.018 2.436-.054 3.302l-.054 4.655c0 .253.126.469.38.65zm-125.355.271c0 .793.38 1.245 1.14 1.353.906.072 1.449-.289 1.63-1.083.036-.144.054-.469.054-.974l-.054-1.895c.072-1.732.145-3.049.217-3.951.073-1.155.2-2.184.38-3.086.11-.324.163-.613.163-.866 0-.577-.38-.938-1.14-1.082-.688-.145-1.974-.217-3.857-.217v-1.949a7.12 7.12 0 000-1.245l-.326-4.763c-.145-1.588-.271-3.573-.38-5.954a568.303 568.303 0 01-.38-14.832l-.054-2.653c0-1.407.145-2.544.434-3.41.073-.216.109-.379.109-.487 0-.361-.145-.668-.435-.92-.253-.253-.597-.397-1.032-.433-.29-.036-.525-.018-.706.054-.18.072-.344.216-.489.433-.398.649-.597 1.714-.597 3.194v1.732l.217 4.493c.145 2.129.235 3.68.272 4.655.217 6.062.398 12.233.543 18.512.036.47.018 1.209-.055 2.22l-.054 1.786c0 .036-.525.09-1.575.163-1.955.072-3.042.18-3.259.324.036-.252.054-.74.054-1.461 0-1.985-.127-4.15-.38-6.496-.326-4.439-.489-7.921-.489-10.447l.054-3.031v-8.228c.037-.83.055-1.299.055-1.408.036-.252.054-2.057.054-5.413 0-.541-.18-.974-.543-1.299-.362-.325-.815-.487-1.358-.487-.47 0-.815.09-1.032.271-.181.144-.272.415-.272.812v.216c.073 2.598.145 4.529.218 5.792l.38 9.419.434 10.501c.182 4.619.272 8.426.272 11.422-1.014.144-1.756.216-2.227.216-.978 0-1.847-.162-2.607-.487-.073-2.31-.145-4.006-.217-5.088l-.38-5.792-.164-2.544a85.545 85.545 0 01-.271-3.735c-.036-.506-.054-1.281-.054-2.328v-2.273l.054-2.761c.072-1.732.108-3.158.108-4.276l-.054-2.166c0-2.273-.054-3.969-.163-5.088-.145-1.227-.85-1.84-2.118-1.84-.543 0-.942.072-1.195.216-.217.108-.326.325-.326.65 0 .216.018.397.054.541.181.722.29 1.642.326 2.761a95.09 95.09 0 01.055 2.057v1.515l.38 8.12c0 1.01.018 1.786.054 2.328 0 1.587.018 2.742.054 3.464.037.866.127 2.075.272 3.627l.163 2.381c.109 1.696.271 5.341.489 10.935 0 .541.108.956.326 1.245.253.288.67.487 1.249.595 1.955.253 3.621.379 4.997.379 1.05 0 2.082-.054 3.096-.162 3.839-.433 6.717-.74 8.636-.921.218-.036.471-.036.761 0h.706c0 2.779-.018 4.493-.054 5.143.036-.217-.018 1.119-.163 4.006zm8.747-8.12c.399.325.833.487 1.304.487h4.617c.652 0 1.195-.144 1.63-.433.47-.253.706-.631.706-1.137 0-.866-.688-1.299-2.065-1.299-.869 0-1.61.018-2.227.054l-1.792.054c-.072 0-.109-1.01-.109-3.031 0-1.082.055-2.724.163-4.926.037-1.443.055-3.067.055-4.871 0-1.805-.036-3.176-.109-4.114h1.358c.362.072.869.108 1.52.108.508 0 .924-.126 1.25-.379.326-.289.489-.632.489-1.029 0-1.01-.87-1.515-2.607-1.515a9.06 9.06 0 00-1.087.054l-.869.054-.163-.866c0-.866.055-2.165.163-3.897.037-1.155.055-2.454.055-3.898 0-1.01-.018-1.786-.055-2.327 1.231.18 2.608.541 4.128 1.082a3.31 3.31 0 001.087-.704c.326-.324.489-.667.489-1.028 0-.65-.797-1.209-2.39-1.678-1.557-.469-2.933-.704-4.128-.704-1.521 0-2.282 1.281-2.282 3.844 0 .469.055 1.226.163 2.273.109 1.01.163 1.768.163 2.273 0 2.13-.072 4.764-.217 7.904-.109 3.5-.163 6.134-.163 7.903l.109 3.464c.108 1.552.163 2.707.163 3.464 0 .433.018.812.054 1.137v2.49c.036.469.235.866.597 1.191zm16.522.162c-.47-1.912-.706-4.565-.706-7.957l.109-4.817c.072-1.444.109-3.05.109-4.818-.218-.505-.326-.956-.326-1.353v-.163c.362-.685.543-2.237.543-4.655l.054-2.49a58.67 58.67 0 00.054-2.652c0-2.13-.144-3.808-.434-5.035.109-.505.29-.938.543-1.299.254-.397.561-.595.923-.595h2.39c1.014 0 1.901.234 2.662.704.76.433 1.34 1.064 1.738 1.894.724 1.48 1.087 3.23 1.087 5.251 0 1.443-.019 2.58-.055 3.41-.072 1.047-.253 2.003-.543 2.869a3.58 3.58 0 01-.489 1.191c-.18.289-.453.649-.815 1.082-.507.614-1.34 1.191-2.498 1.733-.471.252-1.087.487-1.847.703v5.792l.109 3.465.108 1.678c.145 2.021.218 3.735.218 5.142 0 .433-.181.794-.544 1.083a1.815 1.815 0 01-1.249.487l-1.14-.65zm2.553-19.216c2.137-.325 3.205-3.374 3.205-9.148 0-1.047-.054-1.859-.163-2.436-.109-.433-.253-.776-.434-1.028-.181-.289-.453-.524-.815-.704a2.68 2.68 0 00-1.304-.325c0-.036-.199-.054-.597-.054v3.085c0 2.13.018 4.024.054 5.684 0 1.877.018 3.104.054 3.681v1.245zm13.104 17.105c-.072 1.227.471 1.805 1.63 1.732a3.97 3.97 0 001.14-.162 6.155 6.155 0 001.195-.595c.435-.253.76-.451.978-.596 1.92-1.119 3.132-2.851 3.64-5.196.217-1.155.325-2.274.325-3.356 0-1.697-.199-3.284-.597-4.764-.326-1.876-.942-3.194-1.847-3.951-.905-.758-2.19-1.227-3.856-1.408l.488-13.37c2.535-.289 4.183-.541 4.943-.758a1.8 1.8 0 00.87-.541c.216-.289.289-.578.216-.866-.072-.361-.307-.686-.706-.975-.398-.324-.76-.415-1.086-.27-.869.18-1.774.306-2.716.379a66.54 66.54 0 01-2.824.162c-.688.036-1.268.289-1.738.758-.435.469-.652 1.01-.652 1.624 0 .144.036.361.108.649a8.82 8.82 0 01.38 2.057c.073.65.11 1.462.11 2.436v6.442c0 2.273.017 3.987.054 5.142.036.902.054 2.237.054 4.006v4.005c0 1.66-.018 2.887-.054 3.681l-.055 3.735zm4.672-2.49c-.58.65-1.232 1.083-1.956 1.299v-14.452c.942.036 1.63.306 2.064.811.47.47.815 1.137 1.032 2.003a17.29 17.29 0 01.489 4.114c0 1.335-.163 2.707-.489 4.114-.18.758-.561 1.462-1.14 2.111zm21.372 4.71c-.832 0-1.448-.127-1.846-.379-.399-.253-.598-.722-.598-1.408 0-1.082-.181-2.923-.543-5.521l-.217-1.137-5.378-.812c-.217.83-.525 2.508-.923 5.034-.217 1.769-.561 2.942-1.032 3.519-.254.325-.616.487-1.087.487a2.04 2.04 0 01-1.194-.379c-.362-.289-.544-.631-.544-1.028l.109-.271.054-.216c2.39-9.275 4.2-18.423 5.432-27.445 0-.144.018-.379.054-.703.037-.361.073-.866.109-1.516.109-1.335.217-2.4.326-3.194.145-.794.362-1.389.652-1.786h1.846c.507 0 .942.126 1.304.379.362.216.543.541.543.974 0 2.743.38 6.821 1.14 12.234.725 5.557 1.087 9.455 1.087 11.692 0 .216.09.776.272 1.678.18.83.271 1.371.271 1.624 0 .252.181 1.335.544 3.248.326 1.732.488 2.851.488 3.356v.054c0 .794-.29 1.299-.869 1.516zm-3.585-10.393c-.108-.542-.162-1.209-.162-2.003 0-3.248-.29-7.398-.87-12.45l-.543-5.63c-1.557 8.481-2.625 14.886-3.204 19.216.543.361 2.136.65 4.78.867zm13.19 6.928l.054 2.111.978.704c.47 0 .887-.162 1.249-.487.399-.325.598-.704.598-1.137 0-3.645-.29-8.769-.87-15.373-.615-7.037-.923-12.161-.923-15.373l.055-.271.054-.27 1.086.216c.616.108 1.087.163 1.413.163.47 0 .887-.127 1.249-.379.362-.289.543-.65.543-1.083 0-.866-.561-1.299-1.684-1.299h-.869c-1.086 0-2.317-.09-3.693-.271-1.449-.144-2.68-.216-3.694-.216-.398 0-.797.126-1.195.379-.362.216-.543.469-.543.757 0 .361.2.686.597.975.58.361 1.92.577 4.02.649.072 2.13.326 6.947.76 14.453.435 7.506.706 11.458.815 11.855l-.054 1.84c0 .758.018 1.444.054 2.057zm14.712 2.923c-3.15 0-4.725-.541-4.725-1.624 0-.866.561-1.299 1.684-1.299h.597l.543.054c.29 0 .489-.09.598-.27.108-.181.163-.505.163-.975 0-.613-.037-1.569-.109-2.869-.109-.866-.235-2.417-.38-4.655-.326-5.521-.489-9.689-.489-12.504 0-1.01.018-1.931.054-2.761l.055-2.76c0-1.191-.055-2.184-.163-2.977-.58.144-.996.216-1.25.216-.869 0-1.303-.433-1.303-1.299 0-.433.271-.812.814-1.137.544-.325 1.232-.559 2.065-.703 1.448-.289 2.733-.434 3.856-.434.435 0 .797.163 1.086.488.326.288.489.631.489 1.028s-.127.74-.38 1.029a1.035 1.035 0 01-.869.433c-.217 0-.398-.018-.543-.054h-.435c-.362 0-.633.09-.815.27-.144.145-.217.433-.217.866 0 3.501.217 8.769.652 15.806.072 1.3.217 3.212.435 5.738a46.92 46.92 0 01.271 5.089v2.056c.217-.036.579-.054 1.086-.054 1.521 0 2.282.632 2.282 1.895v.325l-1.358.92c-.036 0-.163.018-.38.054h-1.087c-1.158.072-1.901.108-2.227.108zm43.09.596c-.326 0-.634-.163-.923-.487-.254-.325-.308-.65-.163-.975.108-.325.362-.866.76-1.624 1.123-1.84 1.865-4.33 2.227-7.47.036-.216-.108-.487-.434-.812-.29-.361-.471-.631-.544-.812l-.76-1.082a35.472 35.472 0 01-1.901-2.869c-.471-.902-.923-2.093-1.358-3.573a10.891 10.891 0 01-.38-1.948c-.073-.722-.109-1.173-.109-1.354l-.108-1.245a17.981 17.981 0 00-.163-1.624c-.073-.505-.127-.92-.163-1.245-.326-2.093-.489-3.807-.489-5.142 0-.505.018-.884.054-1.137a9.865 9.865 0 000-1.461v-1.083c.036-.722.29-1.083.761-1.083.108 0 .307.037.597.109 1.34.397 2.01 1.154 2.01 2.273 0 .289-.036.83-.109 1.624l-.163 2.219c0 1.011.018 1.769.054 2.274.29 2.995.616 5.954.978 8.877.109.794.362 1.534.761 2.22.434.649.869 1.191 1.303 1.624.471.397.743.595.815.595.217-.65.344-1.083.38-1.299.217-3.212.344-5.576.38-7.091.037-1.263.055-3.356.055-6.279v-6.334c.036-.288.108-.487.217-.595.145-.144.38-.217.706-.217.724 0 1.322.271 1.793.812.47.506.651 1.119.543 1.841-.109.866-.163 2.021-.163 3.464 0 .866.018 1.462.054 1.786.036.325.054.776.054 1.354 0 .902-.072 2.183-.217 3.843 0 .397-.036 1.029-.109 1.895-.072 1.082-.253 2.742-.543 4.98l-.217 1.786c-.217 2.165-.652 4.836-1.304 8.011a21.142 21.142 0 01-.977 3.194 23.589 23.589 0 01-1.467 3.031c-.108.253-.344.487-.706.704-.362.216-.706.325-1.032.325zm13.446-.866c.109.361.182.613.218.757.652.073 1.05.109 1.195.109.579 0 .977-.163 1.195-.487.217-.289.344-.83.38-1.624-.109-1.191-.163-3.284-.163-6.28 0-1.84.054-3.59.163-5.25.036-.253.036-.56 0-.92a9.509 9.509 0 01-.054-.921 496.766 496.766 0 01-.218-8.498c0-.722.091-3.699.272-8.932 0-.541.253-.812.76-.812h.109c1.412.073 2.281.145 2.607.217.362.072.634.108.815.108.543 0 1.068-.162 1.575-.487.073-.794 0-1.353-.217-1.678-.217-.361-.688-.614-1.412-.758-1.521-.325-3.314-.487-5.378-.487-.615 0-1.14.216-1.575.65-.435.433-.652.92-.652 1.461 0 2.382.109 5.882.326 10.501.254 3.79.38 7.019.38 9.69 0 1.479-.018 2.598-.054 3.356-.145 2.057-.253 5.178-.326 9.364-.036.253-.018.56.054.921zm13.272 1.515c-.29 0-.544-.09-.761-.27a1.657 1.657 0 01-.489-.704.754.754 0 01-.054-.325c0-.469.253-.848.76-1.137 1.014-.433 1.775-1.082 2.282-1.948.543-.902.923-1.949 1.14-3.14.652-3.536.978-7.38.978-11.53a84.42 84.42 0 00-.054-3.518c-.254-6.099-.471-10.393-.652-12.883v-.217c0-.325.072-.577.217-.758.145-.18.399-.306.761-.378 2.317-.434 4.164-.65 5.54-.65.724 0 1.267.018 1.629.054.833.036 1.467.289 1.902.758.434.469.651 1.119.651 1.949l.055 2.869c.072 2.526.108 4.42.108 5.683l-.054 2.599c0 3.825.145 8.66.435 14.506.144 2.635.271 4.674.38 6.117.036.65-.073 1.119-.326 1.408-.217.288-.598.469-1.141.541-1.195.072-1.828-.487-1.901-1.678.109-1.047.163-2.093.163-3.14 0-1.046-.018-1.912-.054-2.598l-.055-6.171c0-2.995-.054-6.062-.163-9.202a213.723 213.723 0 00-.325-7.362c-.145-2.309-.29-3.717-.435-4.222-.217.036-.67.126-1.358.271-.688.144-1.629.27-2.824.379-.109 1.66-.163 2.85-.163 3.572 0 .83.054 1.552.163 2.165.072.975.144 2.4.217 4.277v1.191c0 5.846-.054 9.797-.163 11.854a11.72 11.72 0 00-.109 1.353c-.145 1.516-.289 2.671-.434 3.465-.362 1.912-1.467 3.861-3.314 5.846-.506.577-1.321.902-2.444.974h-.108zm20.727-2.869c0 1.083 1.575 1.624 4.726 1.624.325 0 1.068-.036 2.227-.108h1.086c.217-.036.344-.054.38-.054l1.358-.92v-.325c0-1.263-.76-1.895-2.281-1.895-.507 0-.869.018-1.087.054v-2.056c0-1.733-.09-3.429-.271-5.089a207.161 207.161 0 01-.435-5.738c-.434-7.037-.652-12.305-.652-15.806 0-.433.073-.721.218-.866.181-.18.452-.27.814-.27h.435c.145.036.326.054.543.054.362 0 .652-.145.869-.433.254-.289.38-.632.38-1.029 0-.397-.163-.74-.488-1.028a1.397 1.397 0 00-1.087-.488c-1.122 0-2.408.145-3.856.434-.833.144-1.521.378-2.064.703-.543.325-.815.704-.815 1.137 0 .866.435 1.299 1.304 1.299.253 0 .669-.072 1.249-.216.108.793.163 1.786.163 2.977l-.055 2.76c-.036.83-.054 1.751-.054 2.761 0 2.815.163 6.983.489 12.504.145 2.238.272 3.789.38 4.655.073 1.3.109 2.256.109 2.869 0 .47-.054.794-.163.975-.109.18-.308.27-.598.27l-.543-.054h-.597c-1.123 0-1.684.433-1.684 1.299z" fill="#78756E"/></svg>