<svg width="180" height="44" fill="none" xmlns="http://www.w3.org/2000/svg"><path fill-rule="evenodd" clip-rule="evenodd" d="M22.226 33.284h6.255c4.294 0 7.776-3.54 7.776-7.908V13.885c0-4.368-3.482-7.908-7.776-7.908H15.52c-4.295 0-7.776 3.54-7.776 7.908v12.654c0 3.725 2.97 6.745 6.632 6.745h1.944v3.513l5.905-3.513zm-7.361 6.67a.324.324 0 01-.488-.284v-4.41c-4.736 0-8.576-3.904-8.576-8.721V13.885C5.8 8.425 10.153 4 15.52 4h12.96c5.368 0 9.72 4.426 9.72 9.885v11.491c0 5.46-4.352 9.885-9.72 9.885h-5.728l-7.888 4.693zm.68-28.436a1.346 1.346 0 00-.892.18h-.024a6.851 6.851 0 00-1.662 1.39c-.4.468-.615.94-.671 1.397-.034.27-.01.544.068.802l.03.017a20.221 20.221 0 001.747 3.841 22.578 22.578 0 003.372 4.688l.04.058.063.047.038.046.047.04a22.566 22.566 0 004.621 3.447c1.919 1.062 3.083 1.564 3.783 1.773v.01c.204.065.39.093.578.093a2.652 2.652 0 001.601-.7 6.607 6.607 0 001.352-1.695v-.012c.334-.642.221-1.247-.26-1.657a20.158 20.158 0 00-3.125-2.28c-.745-.411-1.5-.163-1.806.253l-.653.837c-.335.416-.943.359-.943.359l-.017.01c-4.537-1.178-5.747-5.849-5.747-5.849s-.057-.635.363-.96l.818-.668c.392-.325.664-1.091.244-1.848a19.945 19.945 0 00-2.238-3.176 1.24 1.24 0 00-.73-.444l.003.001zm7.47 2.703a.541.541 0 00-.536.546c0 .301.24.546.536.546 1.495 0 2.707 1.232 2.707 2.753 0 .301.24.546.537.546a.541.541 0 00.537-.546c0-2.124-1.693-3.845-3.78-3.845zm-.536-2.094a.54.54 0 01.536-.546c3.521 0 6.376 2.903 6.376 6.484a.54.54 0 01-.537.545.541.541 0 01-.537-.545c0-2.978-2.373-5.392-5.302-5.392a.541.541 0 01-.536-.546zm.536-3.185a.541.541 0 00-.536.546c0 .302.24.546.536.546 4.362 0 7.897 3.596 7.897 8.031 0 .302.24.546.537.546a.541.541 0 00.537-.546c0-5.038-4.016-9.123-8.97-9.123z" fill="#4F4840"/><path d="M107.775 6.145a.839.839 0 00-.853-.146L73.024 19.265a1.71 1.71 0 00.293 3.272l9.323 1.83V34.71a2.008 2.008 0 002.007 2.007 2.007 2.007 0 001.442-.615l4.684-4.851 7.192 6.307a2.007 2.007 0 001.945.404 1.988 1.988 0 001.338-1.459l6.794-29.538a.838.838 0 00-.267-.82zM73.274 20.891a.356.356 0 01.237-.38L102.723 9.08l-19.57 14.025-9.577-1.88a.354.354 0 01-.302-.333zm11.853 14.28a.668.668 0 01-1.149-.461v-9.417l5.784 5.068-4.635 4.81zM99.945 36.2a.668.668 0 01-1.1.35l-14.46-12.681 22.029-15.786-6.47 28.117z" fill="#4F4840" stroke="#4F4840"/><path fill-rule="evenodd" clip-rule="evenodd" d="M144.319 31.168a2.16 2.16 0 00-.207-1.538 15.85 15.85 0 0113.89-23.47 15.848 15.848 0 0115.509 12.63 15.828 15.828 0 01-3.466 13.496 15.846 15.846 0 01-19.677 3.597 2.162 2.162 0 00-1.54-.208l-5.915 1.406 1.406-5.913zm4.766-24.8A18.022 18.022 0 01158.002 4a18.01 18.01 0 0114.222 6.97 17.993 17.993 0 01-.537 22.719 18 18 0 01-14.534 6.291 18.005 18.005 0 01-7.825-2.203l-9.327 2.216 2.217-9.325a18.01 18.01 0 016.867-24.3zm14.016 17.252c.405.135 2.589 1.215 3.04 1.44l.237.116c.32.155.544.264.708.447a3.642 3.642 0 01-.27 2.114 4.502 4.502 0 01-2.994 2.115 8.674 8.674 0 01-5.359-1.125 20.015 20.015 0 01-7.632-6.75 8.6 8.6 0 01-1.824-4.612 4.924 4.924 0 011.486-3.802 1.603 1.603 0 011.194-.563h.878c.039.003.08.003.122.003.267.002.579.003.891.762.118.289.308.722.508 1.18.409.935.865 1.977.865 2.128a.856.856 0 010 .787 5.53 5.53 0 01-1.045 1.44c-.353.37-.525.55-.261.99a11.996 11.996 0 006.057 5.288c.45.337.72.314.968 0a20.44 20.44 0 001.418-1.733c.293-.45.608-.36 1.013-.225z" fill="#4F4840"/></svg>