<svg width="45" height="44" fill="none" xmlns="http://www.w3.org/2000/svg"><path fill-rule="evenodd" clip-rule="evenodd" d="M36.35 17.846h2.77A12.476 12.476 0 0026.658 5.385v2.769a9.703 9.703 0 019.693 9.692zM36.116 40h.236a4.154 4.154 0 004.153-4.154v-7.31a2.77 2.77 0 00-1.703-2.576l-5.22-2.09a2.769 2.769 0 00-3.004.567l-3.005 2.977A12.96 12.96 0 0117.077 16.89l2.949-2.977a2.769 2.769 0 00.61-2.99l-2.105-5.18A2.77 2.77 0 0015.955 4H8.658a4.154 4.154 0 00-4.154 4.472C5.044 15.478 8.907 38.435 36.115 40zM8.128 6.873c.168-.069.348-.104.53-.104h7.311l2.077 5.22-3.932 3.974.083.665c0 .124 1.634 12.17 13.68 13.68l.664.083 3.974-3.946 5.22 2.09v7.311l-.003.086a1.385 1.385 0 01-1.465 1.299C11.995 35.846 7.911 16.46 7.274 8.265a1.385 1.385 0 01.854-1.392zm22.62 11.002h2.75A6.883 6.883 0 0026.623 11v2.75a4.13 4.13 0 014.125 4.125z" fill="#4F4840"/></svg>