<svg aria-hidden="true" style="position:absolute;width:0;height:0" xmlns="http://www.w3.org/2000/svg" overflow="hidden"><defs><symbol id="icon-fb" viewBox="0 0 32 32"><path d="M10.289 4.268a6.021 6.021 0 00-6.021 6.021v11.433a6.021 6.021 0 006.021 6.021h3.134v-8.328H10.67v-3.301h2.748V13.69c0-2.818 1.678-4.354 4.121-4.354.824-.003 1.649.04 2.468.131v2.944h-1.685c-1.328 0-1.587.652-1.587 1.605v2.103h3.177l-.411 3.301h-2.766v8.323h4.987a6.021 6.021 0 006.021-6.021V10.289a6.021 6.021 0 00-6.021-6.021H10.289zm0-1.6h11.433a7.621 7.621 0 017.621 7.621v11.433a7.621 7.621 0 01-7.621 7.621H10.289a7.621 7.621 0 01-7.621-7.621V10.289a7.621 7.621 0 017.621-7.621z"/></symbol><symbol id="icon-viber" viewBox="0 0 32 32"><path d="M10.62 8.269a1.099 1.099 0 00-.721.145l.005-.003h-.019c-.5.293-.951.663-1.335 1.097-.32.369-.493.743-.539 1.103-.027.213-.008.429.053.633l.025.013c.36 1.057.829 2.075 1.403 3.032a17.925 17.925 0 002.713 3.707l-.007-.007.032.045.051.037.031.036.037.032a18.121 18.121 0 003.618 2.673l.091.047c1.54.839 2.475 1.235 3.036 1.4v.008c.164.051.313.073.464.073a2.14 2.14 0 001.287-.554l-.002.002c.433-.384.8-.836 1.085-1.339v-.009c.267-.507.177-.984-.209-1.308a16.092 16.092 0 00-2.433-1.759l-.075-.041c-.597-.324-1.204-.128-1.449.2l-.524.661c-.269.328-.757.283-.757.283l-.013.008c-3.641-.929-4.613-4.616-4.613-4.616s-.045-.501.292-.757l.656-.528c.315-.256.533-.861.196-1.459A15.82 15.82 0 0011.188 8.6l.015.017a.998.998 0 00-.58-.35l-.006-.001.003.001zm6.153-1.602a.667.667 0 100 1.334c1.685 0 3.085.551 4.193 1.607a5.91 5.91 0 011.304 2.011c.292.751.425 1.552.391 2.355l-.001.028a.667.667 0 001.334.029v-.001a7.115 7.115 0 00-.499-2.941l.017.048a7.294 7.294 0 00-1.606-2.473l-.013-.013c-1.375-1.313-3.113-1.983-5.121-1.983z"/><path d="M16.727 8.859a.667.667 0 100 1.334h.023c1.216.087 2.101.493 2.72 1.157.637.685.967 1.537.941 2.591v.015a.667.667 0 001.334.016v-.001c.032-1.383-.413-2.576-1.296-3.528v-.003c-.903-.968-2.141-1.48-3.632-1.58l-.023-.003-.067.001z"/><path d="M16.701 11.093a.667.667 0 10-.073 1.33h.004c.557.029.913.197 1.137.423.227.227.393.591.424 1.16a.667.667 0 101.331-.074v.003c-.043-.8-.293-1.507-.807-2.027-.516-.52-1.219-.773-2.016-.816z"/><path d="M9.423 3.179c1.936-.452 4.159-.711 6.443-.711s4.507.259 6.641.75l-.199-.038.452.1a6.898 6.898 0 015.152 4.97l.011.048c.513 1.941.808 4.169.808 6.467s-.295 4.526-.848 6.649l.04-.183c-.652 2.511-2.626 4.436-5.116 5.008l-.046.009-.453.1c-1.938.453-4.164.713-6.45.713-.581 0-1.159-.017-1.731-.05l.079.004-3.537 3.163a1 1 0 01-1.652-.574l-.001-.006-.587-3.496c-2.279-.725-4.014-2.544-4.608-4.824l-.011-.048c-.513-1.941-.808-4.169-.808-6.467s.295-4.526.848-6.649l-.04.183c.653-2.51 2.627-4.434 5.116-5.006l.046-.009.452-.1zm12.449 1.95c-1.805-.422-3.878-.663-6.007-.663s-4.202.242-6.192.699l.185-.036-.453.101a4.892 4.892 0 00-3.651 3.523l-.008.034C5.272 10.58 5 12.639 5 14.762s.272 4.181.784 6.144l-.037-.169a4.892 4.892 0 003.627 3.551l.033.006.12.027c.396.091.699.408.767.805l.001.006.392 2.344 2.496-2.233a.994.994 0 01.741-.253h-.003a27.56 27.56 0 007.952-.593l.452-.101a4.891 4.891 0 003.652-3.523l.008-.034a24.29 24.29 0 000-11.949 4.892 4.892 0 00-3.627-3.551l-.033-.006-.453-.101z"/></symbol><symbol id="icon-whatsapp" viewBox="0 0 32 32"><path d="M25.347 6.533a13.053 13.053 0 00-9.29-3.867h-.05.003A13.245 13.245 0 004.594 9.209l-.034.062A13.076 13.076 0 002.779 15.9c0 2.423.651 4.693 1.788 6.646l-.034-.063-1.867 6.849 7.004-1.833a13.074 13.074 0 006.314 1.667h.007c3.663 0 6.981-1.476 9.393-3.865l-.001.001a13.285 13.285 0 003.949-9.346v-.006a13.285 13.285 0 00-3.985-9.415l-.002-.002zm-9.339 20.351h-.007c-2.065 0-3.996-.57-5.646-1.561l.05.028-.4-.251-4.153 1.1 1.101-4.049-.267-.417a10.884 10.884 0 01-1.651-5.794c0-3.472 1.61-6.569 4.124-8.583l.022-.017a10.943 10.943 0 016.86-2.398c3.016 0 5.75 1.213 7.738 3.178l-.001-.001a11.044 11.044 0 013.336 7.757v.008a11.069 11.069 0 01-3.288 7.784l-.001.001a11.074 11.074 0 01-7.818 3.216h-.001zm6.021-8.233c-.333-.167-1.952-.968-2.252-1.067-.3-.1-.533-.168-.751.165-.327.448-.677.876-1.051 1.284-.183.233-.383.251-.717 0a8.943 8.943 0 01-4.462-3.874l-.023-.044c-.351-.583.333-.549.967-1.8a.623.623 0 00-.002-.586l.002.003c0-.167-.751-1.8-1.017-2.449-.267-.651-.533-.551-.751-.567h-.649a1.183 1.183 0 00-.883.414l-.001.002a3.639 3.639 0 00-1.101 2.827v-.01a6.351 6.351 0 001.351 3.416 14.93 14.93 0 005.57 4.961l.084.039c.927.55 2.044.875 3.237.875.258 0 .512-.015.763-.045l-.03.003a3.348 3.348 0 002.21-1.552l.008-.015a2.703 2.703 0 00.2-1.567c-.151-.167-.367-.251-.7-.417z"/></symbol><symbol id="icon-arrow-right" viewBox="0 0 32 32"><path d="M19.414 27.414l10-10a2 2 0 000-2.828l-10-10a2 2 0 10-2.828 2.828L23.172 14H4a2 2 0 100 4h19.172l-6.586 6.586c-.39.39-.586.902-.586 1.414s.195 1.024.586 1.414a2 2 0 002.828 0z"/></symbol><symbol id="icon-arrow" viewBox="0 0 32 32"><path d="M20 6.667l-1.88 1.88 6.107 6.12H2.667v2.667h21.56l-6.12 6.12L20 25.334l9.333-9.333L20 6.668z"/></symbol><symbol id="icon-telegram" viewBox="0 0 33 32"><path stroke-width=".727" d="M29.646 3.652a.633.633 0 00-.638-.109L3.676 13.457a1.278 1.278 0 00.219 2.445l6.967 1.367v7.73a1.495 1.495 0 00.939 1.391 1.498 1.498 0 001.639-.351l3.5-3.625 5.375 4.714a1.5 1.5 0 002.454-.789l5.078-22.075a.632.632 0 00-.2-.613zM3.862 14.672c-.007-.06.006-.122.039-.173s.081-.091.139-.111l21.831-8.544-14.625 10.481-7.158-1.405c-.061-.009-.116-.039-.158-.084s-.066-.104-.069-.165zm8.859 10.673a.505.505 0 01-.545.116.503.503 0 01-.314-.461v-7.038l4.323 3.788-3.464 3.595zm11.073.768a.503.503 0 01-.335.365.494.494 0 01-.485-.105l-10.806-9.476L28.63 5.099l-4.835 21.013z"/></symbol><symbol id="icon-mail" viewBox="0 0 32 32"><path d="M26.636 25.974H5.363c-1.358 0-2.455-1.114-2.455-2.494V8.519c0-1.38 1.096-2.494 2.455-2.494h21.273c1.358 0 2.455 1.114 2.455 2.494V23.48c0 1.38-1.096 2.494-2.455 2.494zM5.364 7.688a.817.817 0 00-.818.831V23.48c0 .465.36.831.818.831h21.273a.817.817 0 00.818-.831V8.519a.817.817 0 00-.818-.831H5.364z"/><path d="M16 19.258a4.006 4.006 0 01-2.978-1.313L4.431 8.669c-.311-.332-.295-.864.033-1.18s.851-.299 1.162.033l8.591 9.276c.933 1.014 2.635 1.014 3.567 0l8.591-9.259c.311-.332.835-.349 1.162-.033s.344.848.033 1.18l-8.591 9.276a4.006 4.006 0 01-2.978 1.313v-.017z"/></symbol><symbol id="icon-instagram" viewBox="0 0 33 32"><path d="M10.309 2.273c-2.286.135-4.246.998-5.807 2.559-1.34 1.339-2.143 2.942-2.455 4.892-.073.459-.084 1.409-.084 6.954.001 6.836.001 6.815.268 7.855.895 3.48 3.761 6.012 7.33 6.476.545.071 1.585.084 6.801.084 7.223 0 7.137.005 8.629-.519 3.084-1.084 5.293-3.844 5.716-7.145.045-.354.057-2.32.043-7.063l-.019-6.572-.124-.545c-.404-1.779-1.16-3.185-2.369-4.404-1.304-1.314-2.905-2.135-4.84-2.481-.394-.071-1.391-.084-6.627-.095a647.544 647.544 0 00-6.464.005zm12.94 2.249c2.657.541 4.636 2.477 5.231 5.118.12.532.121.578.142 6.508.014 3.958.001 6.212-.037 6.682-.138 1.672-.756 3.024-1.909 4.176a6.465 6.465 0 01-2.571 1.597c-.903.308-.887.308-7.732.308-4.231 0-6.417-.02-6.681-.059-1.395-.209-2.62-.832-3.642-1.848-1.168-1.162-1.777-2.513-1.909-4.229-.039-.503-.051-2.788-.037-6.682.022-5.837.023-5.925.14-6.442.418-1.852 1.508-3.373 3.092-4.314.719-.428 1.708-.765 2.508-.855.672-.076 13.018-.039 13.404.04zm-.231 4.535v1.091h1.909V7.966h-1.909v1.091zm-7.457.874a6.813 6.813 0 00-5.7 4.826l-.012.048c-.199.688-.257 1.113-.256 1.888.003 1.862.721 3.561 2.041 4.836 2.323 2.243 5.817 2.57 8.489.796a6.901 6.901 0 002.923-4.46c.102-.57.118-1.693.031-2.217-.468-2.853-2.589-5.059-5.418-5.634-.527-.108-1.578-.149-2.098-.084zm2.047 2.285a4.727 4.727 0 013.207 3.196c.129.426.148.587.151 1.227.004 1.058-.171 1.675-.716 2.532-1.62 2.545-5.225 2.863-7.273.641a4.593 4.593 0 01-1.055-4.407c.496-1.719 1.894-2.959 3.733-3.313.344-.066 1.561.012 1.953.125z"/></symbol><symbol id="icon-carbon_phone" viewBox="0 0 32 32"><path d="M24 13h-2a3 3 0 00-3-3V8a5.01 5.01 0 013.534 1.466A5 5 0 0124 13z"/><path d="M28 13h-2c-.002-1.856-.74-3.635-2.053-4.947S20.855 6.003 19 6V4a9.012 9.012 0 019 9zm-2 16h-.17C6.18 27.87 3.39 11.29 3 6.23A3.002 3.002 0 016 3h5.27a2.004 2.004 0 011.86 1.26L14.65 8a1.996 1.996 0 01-.44 2.16l-2.13 2.15a9.354 9.354 0 007.58 7.599l2.17-2.15a1.997 1.997 0 012.17-.41l3.77 1.51a1.998 1.998 0 011.23 1.86v5.28a3.004 3.004 0 01-3 3zM6 5a1.009 1.009 0 00-.708.291A.984.984 0 005 6.08C5.46 12 8.41 26 25.94 27a.997.997 0 001.058-.938L27 26v-5.28l-3.77-1.51-2.87 2.85-.48-.06c-8.7-1.09-9.88-9.79-9.88-9.88l-.06-.48 2.84-2.87L11.28 5H6z"/></symbol><symbol id="icon-calendar" viewBox="0 0 32 32"><path d="M22.667 4H28a1.335 1.335 0 011.334 1.334v21.333A1.334 1.334 0 0128 28.001H4a1.334 1.334 0 01-1.334-1.334V5.334A1.335 1.335 0 014 4h5.333V1.333H12V4h8V1.333h2.667V4zm4 10.667H5.334v10.667h21.333V14.667zm-6.667-8h-8v2.667H9.333V6.667h-4V12h21.333V6.667h-4v2.667h-2.667V6.667zM8 17.333h2.667V20H8v-2.667zm6.667 0h2.667V20h-2.667v-2.667zm6.666 0H24V20h-2.667v-2.667z"/></symbol><symbol id="icon-chat" viewBox="0 0 32 32"><path d="M13.333 4h5.333a10.662 10.662 0 0110.667 10.666 10.664 10.664 0 01-10.667 10.667V30c-6.667-2.667-16-6.667-16-15.333A10.666 10.666 0 0113.332 4.001zM16 22.667h2.667a7.995 7.995 0 007.39-4.938 7.998 7.998 0 00-7.39-11.06h-5.333a8 8 0 00-8 8c0 4.813 3.283 7.955 10.667 11.307v-3.307z"/></symbol><symbol id="icon-folder" viewBox="0 0 32 32"><path d="M5.333 6.667v18.667h21.333v-16H15.447L12.78 6.667H5.332zm11.219 0H28a1.335 1.335 0 011.334 1.334v18.667A1.334 1.334 0 0128 28.002H4a1.334 1.334 0 01-1.334-1.334V5.335A1.335 1.335 0 014 4.001h9.885l2.667 2.667z"/></symbol><symbol id="icon-menu" viewBox="0 0 24 24"><path d="M3 13h18a1 1 0 000-2H3a1 1 0 000 2zm0-6h18a1 1 0 000-2H3a1 1 0 000 2zm0 12h18a1 1 0 000-2H3a1 1 0 000 2z"/></symbol><symbol id="icon-x" viewBox="0 0 24 24"><path d="M5.293 6.707L10.586 12l-5.293 5.293a.999.999 0 101.414 1.414L12 13.414l5.293 5.293a.999.999 0 101.414-1.414L13.414 12l5.293-5.293a.999.999 0 10-1.414-1.414L12 10.586 6.707 5.293a.999.999 0 10-1.414 1.414z"/></symbol></defs></svg>