<svg width="38" height="34" fill="none" xmlns="http://www.w3.org/2000/svg"><path d="M36.775 1.145a.836.836 0 00-.853-.146L2.024 14.265a1.71 1.71 0 00.293 3.272l9.323 1.83V29.71a2.008 2.008 0 002.008 2.007 2.007 2.007 0 001.441-.615l4.684-4.851 7.192 6.307a2.007 2.007 0 003.283-1.055l6.794-29.538a.836.836 0 00-.267-.82zM2.274 15.891a.356.356 0 01.237-.38L31.723 4.08l-19.57 14.025-9.577-1.88a.355.355 0 01-.302-.333zm11.854 14.28a.668.668 0 01-1.15-.461v-9.417l5.784 5.068-4.635 4.81zM28.944 31.2a.668.668 0 01-1.1.35l-14.46-12.681 22.03-15.786-6.47 28.117z" fill="#4F4840" stroke="#4F4840"/></svg>