<svg xmlns="http://www.w3.org/2000/svg" width="108" height="26" fill="none"><path fill="#78756E" d="M12.02 25.995c-.38-.054-.57-.28-.57-.676.073-1.444.1-2.111.082-2.003.018-.325.027-1.182.027-2.571h-.353a1.338 1.338 0 00-.38 0c-.96.09-2.4.243-4.318.46-.507.054-1.023.081-1.548.081-.688 0-1.521-.063-2.499-.19-.29-.053-.498-.153-.625-.297-.108-.144-.163-.352-.163-.622-.108-2.797-.19-4.62-.244-5.468l-.082-1.19a37.804 37.804 0 01-.135-1.814c-.018-.36-.027-.938-.027-1.732-.019-.27-.028-.659-.028-1.164l-.19-4.06v-.758c0-.126-.009-.469-.027-1.028-.018-.56-.072-1.02-.163-1.38a1.135 1.135 0 01-.027-.271c0-.162.054-.27.163-.325C1.04.915 1.239.88 1.51.88c.634 0 .987.307 1.06.92.054.56.081 1.408.081 2.544l.027 1.083c0 .56-.018 1.272-.054 2.138l-.027 1.38v1.137c0 .523.009.911.027 1.164.018.433.063 1.056.136 1.867l.081 1.272.19 2.896a79.9 79.9 0 01.109 2.545 3.3 3.3 0 001.304.243c.235 0 .606-.036 1.113-.108 0-1.498-.045-3.401-.136-5.71l-.217-5.252-.19-4.709a108.54 108.54 0 01-.109-2.896v-.108c0-.199.045-.334.136-.406.109-.09.28-.135.516-.135a.98.98 0 01.679.243c.181.163.272.38.272.65 0 1.678-.01 2.58-.028 2.706 0 .054-.009.289-.027.704v4.114l-.027 1.516c0 1.263.082 3.004.245 5.223a30.59 30.59 0 01.19 3.248c0 .36-.01.604-.028.73.11-.071.652-.126 1.63-.162.525-.036.788-.063.788-.08l.027-.894c.036-.505.045-.875.027-1.11-.073-3.14-.163-6.225-.272-9.256a84.91 84.91 0 00-.135-2.328l-.11-2.246v-.866c0-.74.1-1.272.3-1.597a.547.547 0 01.244-.216.722.722 0 01.353-.028c.217.018.39.09.516.217.145.126.217.28.217.46a.857.857 0 01-.054.244c-.145.433-.217 1.001-.217 1.705l.027 1.326c.036 2.67.1 5.142.19 7.416.054 1.19.118 2.183.19 2.977l.163 2.382a3.56 3.56 0 010 .622v.975c.942 0 1.584.036 1.928.108.38.072.57.252.57.541 0 .127-.026.27-.08.433-.091.451-.155.966-.19 1.543-.037.451-.073 1.11-.11 1.976l.028.947c0 .253-.01.415-.027.487-.091.397-.363.578-.815.541zm4.456-4.492a1.01 1.01 0 01-.652-.244.865.865 0 01-.299-.595v-1.245a5.202 5.202 0 01-.027-.569c0-.379-.027-.956-.081-1.732l-.054-1.732c0-.884.027-2.201.081-3.952a88.24 88.24 0 00.109-3.951c0-.253-.028-.632-.082-1.137a12.438 12.438 0 01-.081-1.137c0-1.28.38-1.921 1.14-1.921.598 0 1.286.117 2.064.352.797.234 1.195.514 1.195.839 0 .18-.081.351-.244.514a1.66 1.66 0 01-.543.352 11.037 11.037 0 00-2.064-.542c.018.271.027.659.027 1.164 0 .722-.01 1.371-.027 1.949a34.096 34.096 0 00-.082 1.949l.082.433.434-.027c.145-.019.326-.028.543-.028.87 0 1.304.253 1.304.758a.67.67 0 01-.244.515c-.163.126-.372.189-.625.189a4.11 4.11 0 01-.76-.054h-.68c.037.469.055 1.155.055 2.057 0 .902-.01 1.714-.027 2.436a54.951 54.951 0 00-.082 2.463c0 1.01.018 1.515.054 1.515l.897-.027c.308-.018.679-.027 1.113-.027.688 0 1.032.217 1.032.65 0 .252-.117.442-.353.568-.217.144-.489.217-.814.217h-2.309zm7.609-.163c-.235-.956-.353-2.282-.353-3.978l.055-2.41c.036-.72.054-1.524.054-2.408a1.743 1.743 0 01-.163-.677v-.08c.18-.344.271-1.12.271-2.328l.028-1.245c.018-.397.027-.84.027-1.327 0-1.064-.073-1.903-.218-2.517a1.76 1.76 0 01.272-.65c.127-.198.28-.297.462-.297h1.195c.507 0 .95.117 1.33.352.38.216.67.532.87.947.362.74.543 1.615.543 2.626 0 .721-.01 1.29-.027 1.705a5.77 5.77 0 01-.272 1.434 1.788 1.788 0 01-.244.595 5.287 5.287 0 01-.408.542c-.253.307-.67.595-1.25.866a4.727 4.727 0 01-.923.352v2.896l.055 1.732.054.839c.073 1.01.109 1.867.109 2.571 0 .217-.09.397-.272.542a.908.908 0 01-.625.243l-.57-.325zm1.277-9.608c1.068-.162 1.602-1.687 1.602-4.574 0-.523-.027-.93-.081-1.218a1.517 1.517 0 00-.218-.514.982.982 0 00-.407-.352 1.343 1.343 0 00-.652-.162c0-.018-.1-.027-.299-.027v1.542c0 1.065.01 2.012.027 2.842 0 .938.01 1.552.028 1.84v.623zm7.366 9.418c-.579.037-.85-.252-.814-.865l.027-1.868c.018-.397.027-1.01.027-1.84v-2.003c0-.884-.01-1.552-.027-2.003A89.331 89.331 0 0131.914 10V6.779c0-.487-.019-.893-.055-1.218a4.433 4.433 0 00-.19-1.028 1.476 1.476 0 01-.054-.325c0-.307.109-.577.326-.812.235-.235.525-.36.869-.379.489-.018.96-.045 1.412-.081.47-.036.923-.1 1.358-.19.163-.072.344-.027.543.136.2.144.317.306.353.487.037.144 0 .289-.108.433a.895.895 0 01-.435.27c-.38.109-1.204.235-2.471.38l-.245 6.685c.833.09 1.476.324 1.928.703.453.38.76 1.038.924 1.976.199.74.299 1.534.299 2.382 0 .541-.055 1.1-.163 1.678-.254 1.173-.86 2.039-1.82 2.598-.109.072-.271.172-.489.298a3.136 3.136 0 01-.597.298 1.981 1.981 0 01-.57.08zm.544-1.46c.362-.109.688-.326.977-.65.29-.325.48-.677.57-1.056.163-.704.245-1.39.245-2.057 0-.704-.081-1.39-.244-2.057-.11-.433-.281-.767-.516-1.001-.218-.253-.562-.388-1.032-.406v7.226zm11.664 1.704c-.417 0-.725-.063-.924-.19-.199-.125-.298-.36-.298-.703 0-.541-.091-1.461-.272-2.76l-.109-.569-2.688-.406c-.109.415-.263 1.254-.462 2.517-.109.884-.28 1.47-.516 1.76-.127.162-.308.243-.543.243-.218 0-.417-.063-.598-.19-.18-.144-.271-.315-.271-.514l.054-.135.027-.108a120.03 120.03 0 002.716-13.722c0-.072.01-.19.027-.352.018-.18.036-.433.054-.758.055-.668.11-1.2.163-1.597.073-.397.181-.694.326-.893h.924c.253 0 .47.063.651.19.182.108.272.27.272.487 0 1.371.19 3.41.57 6.116.363 2.78.544 4.728.544 5.847 0 .108.045.387.135.839.09.415.136.685.136.812 0 .126.09.667.272 1.623.163.866.244 1.426.244 1.678v.028c0 .396-.145.65-.434.757zm-1.793-5.196a5.198 5.198 0 01-.081-1.002c0-1.623-.145-3.698-.435-6.225l-.271-2.814c-.779 4.24-1.313 7.443-1.603 9.608.272.18 1.069.325 2.39.433zm6.622 4.52l-.027-1.056c-.018-.306-.027-.65-.027-1.028l.027-.92c-.054-.199-.19-2.175-.407-5.928-.218-3.753-.344-6.162-.38-7.226-1.05-.036-1.72-.145-2.01-.325-.2-.144-.299-.307-.299-.487 0-.145.09-.27.272-.38.199-.125.398-.189.597-.189.507 0 1.123.037 1.847.109.688.09 1.303.135 1.847.135h.434c.561 0 .842.217.842.65a.66.66 0 01-.272.54c-.18.127-.389.19-.624.19-.163 0-.398-.027-.706-.08l-.543-.11-.028.136-.027.136c0 1.605.154 4.168.462 7.686.29 3.302.434 5.864.434 7.687 0 .216-.1.406-.298.568a.908.908 0 01-.625.244l-.489-.352zm7.329.406c-1.575 0-2.363-.27-2.363-.812 0-.433.281-.65.842-.65h.299l.272.027c.144 0 .244-.045.298-.135.055-.09.082-.253.082-.487 0-.307-.018-.785-.055-1.435-.054-.433-.117-1.209-.19-2.327-.163-2.761-.244-4.845-.244-6.252 0-.506.009-.966.027-1.38l.027-1.381c0-.595-.027-1.092-.081-1.489-.29.073-.498.109-.625.109-.434 0-.652-.217-.652-.65 0-.216.136-.406.408-.568.271-.163.615-.28 1.032-.352a9.995 9.995 0 011.928-.217.7.7 0 01.543.244.666.666 0 01.245.514c0 .199-.064.37-.19.514a.517.517 0 01-.435.217c-.109 0-.2-.01-.272-.027h-.217c-.18 0-.317.045-.407.135-.073.072-.109.217-.109.433 0 1.75.109 4.385.326 7.903.036.65.109 1.606.217 2.87.09.83.136 1.677.136 2.543V19.5c.109-.018.29-.027.543-.027.76 0 1.14.316 1.14.947v.162l-.678.46c-.018 0-.082.01-.19.028h-.543c-.58.036-.95.054-1.114.054zm17.469 4.195a.73.73 0 01-.435-.136c-.127-.09-.19-.198-.19-.324l.027-2.328c.018-.433.027-.983.027-1.65-.507.017-1.24.062-2.2.134a120.1 120.1 0 00-2.471.163c-.398.054-.688-.063-.87-.352a2.047 2.047 0 01-.243-.974 434.43 434.43 0 01-.3-5.684 896.812 896.812 0 01-.298-8.011l-.027-1.245v-.948c0-.667-.027-1.434-.082-2.3V1.42c0-.126.018-.225.055-.297.036-.09.117-.154.244-.19.109-.036.29-.009.543.081.254.072.408.163.462.27.181.434.271.948.271 1.544 0 .721-.027 1.434-.081 2.138-.018.252-.036.56-.054.92-.018.343-.027.758-.027 1.245-.019.722-.028 1.624-.028 2.707 0 1.227.028 2.273.082 3.14.054.865.172 2.336.353 4.41.036.506.054.813.054.921 0 .289.018.568.055.839.036.27.108.604.217 1.001l2.227-.297v-1.597c0-.92-.027-1.823-.082-2.707a59.46 59.46 0 01-.054-2.057l-.163-6.495a220.044 220.044 0 01-.054-4.33l-.027-.732c0-.523.063-.902.19-1.136.09-.199.253-.298.489-.298.144 0 .29.036.434.108.326.163.489.505.489 1.029 0 .18-.018.397-.054.65a6.5 6.5 0 01-.055.514c-.018.523-.036 1.29-.054 2.3a144.76 144.76 0 00-.027 2.598v3.925a120 120 0 01.108 2.652c.055 1.516.091 2.653.11 3.41v-.27c.017.397.063 1.164.135 2.3h.407c.145-.018.335-.027.57-.027.399.018.689.118.87.298.18.162.271.433.271.812 0 .451-.009.974-.027 1.57a57.988 57.988 0 01-.054 1.407l-.055 1.002a.55.55 0 01-.19.379.589.589 0 01-.434.162h-.055zm4.076-3.897c-.163 0-.317-.082-.462-.244-.126-.163-.154-.325-.081-.487.054-.163.18-.433.38-.812.561-.92.933-2.166 1.114-3.735.018-.108-.055-.244-.218-.406-.144-.18-.235-.316-.271-.406l-.38-.542a17.604 17.604 0 01-.951-1.434c-.235-.451-.462-1.046-.679-1.786a5.464 5.464 0 01-.19-.975 9.677 9.677 0 01-.054-.676l-.055-.623a8.77 8.77 0 00-.081-.812c-.036-.252-.064-.46-.082-.622-.163-1.047-.244-1.904-.244-2.571 0-.253.009-.443.027-.569.018-.27.018-.514 0-.73V3.45c.018-.36.145-.541.38-.541a1.5 1.5 0 01.299.054c.67.198 1.005.577 1.005 1.137 0 .144-.018.415-.055.812l-.08 1.11c0 .505.008.883.026 1.136.145 1.498.308 2.977.49 4.439.053.397.18.767.38 1.11.217.324.434.595.651.811.236.199.371.298.407.298.11-.325.172-.541.19-.65.11-1.605.173-2.787.19-3.545.019-.632.028-1.678.028-3.14V3.315c.018-.145.054-.244.109-.298.072-.072.19-.108.353-.108.362 0 .66.135.896.406.235.252.326.56.271.92-.054.433-.081 1.01-.081 1.732 0 .433.009.731.027.893.018.163.027.388.027.677 0 .451-.036 1.092-.108 1.922 0 .198-.018.514-.055.947a44.681 44.681 0 01-.271 2.49l-.109.893c-.109 1.083-.326 2.418-.652 4.006a10.568 10.568 0 01-.489 1.597 11.775 11.775 0 01-.733 1.515c-.054.127-.172.244-.353.352a1.011 1.011 0 01-.516.163zm6.831-.055a10.009 10.009 0 00-.108-.379 1.385 1.385 0 01-.027-.46c.036-2.093.09-3.653.163-4.682.018-.379.027-.938.027-1.678 0-1.335-.063-2.95-.19-4.845-.109-2.31-.163-4.06-.163-5.25 0-.271.109-.515.326-.731.217-.217.48-.325.788-.325 1.032 0 1.928.081 2.688.244.362.072.598.198.706.379.109.162.145.442.109.839a1.44 1.44 0 01-.788.243c-.09 0-.226-.018-.407-.054-.163-.036-.597-.072-1.303-.108h-.055c-.253 0-.38.135-.38.406-.09 2.616-.136 4.105-.136 4.466.036 1.876.073 3.293.109 4.249 0 .126.009.28.027.46.018.18.018.334 0 .46a40.28 40.28 0 00-.081 2.625c0 1.498.027 2.544.08 3.14-.017.397-.08.668-.19.812-.108.162-.307.244-.597.244-.072 0-.271-.019-.597-.055zm6.528.379a.577.577 0 01-.38-.135.823.823 0 01-.245-.352.375.375 0 01-.027-.162c0-.235.127-.424.38-.569.507-.216.887-.541 1.14-.974a4.6 4.6 0 00.571-1.57c.326-1.768.489-3.69.489-5.765a42 42 0 00-.027-1.759c-.127-3.05-.236-5.197-.326-6.442V3.91c0-.162.036-.288.109-.379.072-.09.199-.153.38-.19 1.159-.216 2.082-.324 2.77-.324.362 0 .634.01.815.027.416.018.733.144.95.379.218.235.326.56.326.974l.027 1.435c.037 1.263.055 2.21.055 2.842l-.027 1.299c0 1.912.072 4.33.217 7.253.072 1.318.136 2.337.19 3.059.018.325-.036.56-.163.703-.109.145-.299.235-.57.271-.598.036-.915-.244-.95-.839.053-.523.08-1.047.08-1.57 0-.523-.008-.956-.027-1.299l-.027-3.085c0-1.498-.027-3.032-.081-4.601-.037-1.3-.09-2.527-.163-3.681-.073-1.155-.145-1.859-.218-2.111-.108.018-.334.063-.678.135-.344.072-.815.135-1.413.19-.054.83-.081 1.425-.081 1.786 0 .415.027.776.081 1.082.037.487.073 1.2.109 2.138V10c0 2.923-.027 4.899-.082 5.927a5.797 5.797 0 00-.054.677 22.131 22.131 0 01-.217 1.732c-.181.956-.733 1.93-1.657 2.923-.253.289-.66.451-1.222.487h-.054zm12.726-.622c-1.575 0-2.363-.27-2.363-.812 0-.433.281-.65.842-.65h.299l.272.027c.145 0 .244-.045.298-.135.055-.09.082-.253.082-.487 0-.307-.018-.785-.054-1.435-.055-.433-.118-1.209-.19-2.327-.163-2.761-.245-4.845-.245-6.252 0-.506.009-.966.027-1.38l.027-1.381c0-.595-.027-1.092-.081-1.489-.29.073-.498.109-.625.109-.434 0-.652-.217-.652-.65 0-.216.136-.406.408-.568.271-.163.615-.28 1.032-.352a9.994 9.994 0 011.928-.217.7.7 0 01.543.244.666.666 0 01.245.514c0 .199-.064.37-.19.514a.518.518 0 01-.435.217 1.21 1.21 0 01-.272-.027h-.217c-.181 0-.317.045-.407.135-.073.072-.109.217-.109.433 0 1.75.109 4.385.326 7.903.036.65.109 1.606.217 2.87.091.83.136 1.677.136 2.543V19.5c.109-.018.29-.027.543-.027.761 0 1.141.316 1.141.947v.162l-.679.46c-.018 0-.081.01-.19.028h-.543c-.58.036-.951.054-1.114.054z"/></svg>