<svg width="45" height="44" viewBox="0 0 45 44" fill="none" xmlns="http://www.w3.org/2000/svg">
<path fill-rule="evenodd" clip-rule="evenodd" d="M36.6346 10.8767H8.36513L19.1773 20.4062C21.1063 21.9707 23.8934 21.9707 25.8224 20.4062L36.6346 10.8767ZM6.66161 12.2244C6.66054 12.2468 6.66 12.2693 6.66 12.292V31.7082C6.66 32.4898 7.30471 33.1234 8.1 33.1234H36.9C37.6953 33.1234 38.34 32.4898 38.34 31.7082V12.292C38.34 12.2692 38.3395 12.2466 38.3384 12.2242L27.1973 22.0435C24.4701 24.2554 20.5297 24.2554 17.8025 22.0435L6.66161 12.2244ZM4.5 12.292C4.5 10.338 6.11177 8.75391 8.1 8.75391H36.9C38.8882 8.75391 40.5 10.338 40.5 12.292V31.7082C40.5 33.6622 38.8882 35.2462 36.9 35.2462H8.1C6.11178 35.2462 4.5 33.6622 4.5 31.7082V12.292Z" fill="#4F4840"/>
</svg>
