<svg width="44" height="44" viewBox="0 0 44 44" fill="none" xmlns="http://www.w3.org/2000/svg">
<path fill-rule="evenodd" clip-rule="evenodd" d="M14.2857 6.16H29.7143C31.8694 6.16 33.9362 7.0161 35.46 8.53997C36.9839 10.0638 37.84 12.1306 37.84 14.2857V29.7143C37.84 31.8694 36.9839 33.9362 35.46 35.46C33.9362 36.9839 31.8694 37.84 29.7143 37.84H22.9854V26.6094H26.7171L27.2718 22.1536H22.9854V19.3154C22.9854 18.0296 23.3336 17.1492 25.1273 17.1492H27.4V13.1766C26.2942 13.0547 25.1826 12.9958 24.0705 13.0002C20.772 13.0002 18.5074 15.072 18.5074 18.8752V22.1452H14.8V26.6011H18.5155V37.84H14.2857C12.1306 37.84 10.0638 36.9839 8.53997 35.46C7.0161 33.9362 6.16 31.8694 6.16 29.7143V14.2857C6.16 12.1306 7.0161 10.0638 8.53997 8.53997C10.0638 7.0161 12.1306 6.16 14.2857 6.16ZM14.2857 4H29.7143C32.4422 4 35.0584 5.08367 36.9874 7.01262C38.9163 8.94156 40 11.5578 40 14.2857V29.7143C40 32.4422 38.9163 35.0584 36.9874 36.9874C35.0584 38.9163 32.4422 40 29.7143 40H14.2857C11.5578 40 8.94156 38.9163 7.01262 36.9874C5.08367 35.0584 4 32.4422 4 29.7143V14.2857C4 11.5578 5.08367 8.94156 7.01262 7.01262C8.94156 5.08367 11.5578 4 14.2857 4Z" fill="#4F4840"/>
</svg>
