<svg width="40" height="40" viewBox="0 0 40 40" fill="none" xmlns="http://www.w3.org/2000/svg">
<path d="M25.7079 9.85731L22.7213 10.1802C22.4214 10.2126 22.1409 10.3444 21.9245 10.5544C21.708 10.7645 21.5679 11.0409 21.5265 11.3397L21.0806 14.5795C21.0344 14.9169 21.1171 15.2594 21.3123 15.5385C21.5074 15.8176 21.8007 16.0128 22.1335 16.0853L23.6779 16.4219C25.7079 17.002 24.1454 21.3736 23.1856 22.566C22.1727 23.8245 20.8099 24.755 19.2689 25.2402C18.8883 25.36 18.477 25.3367 18.1124 25.1746C17.7477 25.0125 17.4549 24.7229 17.2887 24.3601L16.7593 23.2019C16.6785 23.0257 16.5609 22.8688 16.4142 22.742C16.2676 22.6152 16.0954 22.5214 15.9094 22.4669C15.7233 22.4124 15.5277 22.3985 15.3358 22.4262C15.1439 22.4539 14.9603 22.5225 14.7972 22.6274L11.7227 24.6039C11.5113 24.7397 11.3419 24.9317 11.2335 25.1583C11.1251 25.3849 11.0819 25.6372 11.1088 25.887L11.3098 27.7462C11.3869 28.4598 11.7444 29.1135 12.3035 29.5635C12.8627 30.0136 13.5777 30.2231 14.2913 30.1459L16.9818 29.855C24.4119 29.0517 29.7836 22.3776 28.9802 14.9476L28.6893 12.257C28.6122 11.5434 28.2547 10.8897 27.6956 10.4397C27.1365 9.98964 26.4214 9.78016 25.7079 9.85731Z" stroke="#78756E" stroke-width="1.5"/>
</svg>
