<svg width="44" height="44" viewBox="0 0 44 44" fill="none" xmlns="http://www.w3.org/2000/svg">
<path fill-rule="evenodd" clip-rule="evenodd" d="M29.7143 6.16H14.2857C12.1306 6.16 10.0638 7.0161 8.53997 8.53997C7.0161 10.0638 6.16 12.1306 6.16 14.2857V29.7143C6.16 31.8694 7.0161 33.9362 8.53997 35.46C10.0638 36.9839 12.1306 37.84 14.2857 37.84H29.7143C31.8694 37.84 33.9362 36.9839 35.46 35.46C36.9839 33.9362 37.84 31.8694 37.84 29.7143V14.2857C37.84 12.1306 36.9839 10.0638 35.46 8.53997C33.9362 7.0161 31.8694 6.16 29.7143 6.16ZM29.7143 4H14.2857C11.5578 4 8.94156 5.08367 7.01262 7.01262C5.08367 8.94156 4 11.5578 4 14.2857V29.7143C4 32.4422 5.08367 35.0584 7.01262 36.9874C8.94156 38.9163 11.5578 40 14.2857 40H29.7143C32.4422 40 35.0584 38.9163 36.9874 36.9874C38.9163 35.0584 40 32.4422 40 29.7143V14.2857C40 11.5578 38.9163 8.94156 36.9874 7.01262C35.0584 5.08367 32.4422 4 29.7143 4ZM34.0014 11.9994C34.0014 13.1039 33.1059 13.9994 32.0014 13.9994C30.8968 13.9994 30.0014 13.1039 30.0014 11.9994C30.0014 10.8948 30.8968 9.99937 32.0014 9.99937C33.1059 9.99937 34.0014 10.8948 34.0014 11.9994ZM28.84 22C28.84 25.7776 25.7776 28.84 22 28.84C18.2224 28.84 15.16 25.7776 15.16 22C15.16 18.2224 18.2224 15.16 22 15.16C25.7776 15.16 28.84 18.2224 28.84 22ZM31 22C31 26.9706 26.9706 31 22 31C17.0294 31 13 26.9706 13 22C13 17.0294 17.0294 13 22 13C26.9706 13 31 17.0294 31 22Z" fill="#4F4840"/>
</svg>
