<svg width="44" height="44" viewBox="0 0 44 44" fill="none" xmlns="http://www.w3.org/2000/svg">
<path fill-rule="evenodd" clip-rule="evenodd" d="M22 6.27027C19.1856 6.27027 16.4941 7.39045 14.5157 9.37198C12.5387 11.3522 11.4357 14.0289 11.4357 16.8108C11.4357 18.1505 12.0638 20.1362 13.15 22.492C14.2151 24.8023 15.6454 27.3128 17.0906 29.6465C18.5333 31.9761 19.9779 34.1088 21.0628 35.6603C21.4185 36.169 21.7352 36.6147 22 36.9837C22.2648 36.6147 22.5815 36.169 22.9372 35.6603C24.0221 34.1088 25.4667 31.9761 26.9094 29.6465C28.3546 27.3128 29.7849 24.8023 30.85 22.492C31.9362 20.1362 32.5643 18.1505 32.5643 16.8108C32.5643 14.0289 31.4613 11.3522 29.4843 9.37198C27.5059 7.39045 24.8144 6.27027 22 6.27027ZM22 38.8649C21.1368 39.561 21.1367 39.5609 21.1365 39.5607L21.1273 39.5483L21.1012 39.5132L21.0015 39.3784C20.9145 39.2605 20.7877 39.0876 20.6266 38.8657C20.3044 38.422 19.8451 37.7821 19.2943 36.9945C18.1936 35.4203 16.7239 33.2509 15.2523 30.8746C13.7832 28.5023 12.2992 25.9031 11.1786 23.4726C10.079 21.0875 9.25 18.7014 9.25 16.8108C9.25 13.3996 10.6033 10.1368 12.9986 7.73774C15.3925 5.34005 18.6311 4 22 4C25.3689 4 28.6075 5.34005 31.0014 7.73774C33.3967 10.1368 34.75 13.3996 34.75 16.8108C34.75 18.7014 33.921 21.0875 32.8214 23.4726C31.7008 25.9031 30.2168 28.5023 28.7477 30.8746C27.2761 33.2509 25.8064 35.4203 24.7057 36.9945C24.1549 37.7821 23.6956 38.422 23.3734 38.8657C23.2123 39.0876 23.0855 39.2605 22.9985 39.3784L22.8988 39.5132L22.8727 39.5483L22.864 39.56C22.8638 39.5602 22.8632 39.561 22 38.8649ZM22 38.8649L22.864 39.56C22.657 39.8369 22.3376 40 22 40C21.6624 40 21.3436 39.8376 21.1365 39.5607L22 38.8649Z" fill="#4F4840"/>
<path fill-rule="evenodd" clip-rule="evenodd" d="M22 12.2105C19.3548 12.2105 17.2105 14.3548 17.2105 17C17.2105 19.6452 19.3548 21.7895 22 21.7895C24.6452 21.7895 26.7895 19.6452 26.7895 17C26.7895 14.3548 24.6452 12.2105 22 12.2105ZM15 17C15 13.134 18.134 10 22 10C25.866 10 29 13.134 29 17C29 20.866 25.866 24 22 24C18.134 24 15 20.866 15 17Z" fill="#4F4840"/>
</svg>
