<svg width="160" height="159" viewBox="0 0 160 159" fill="none" xmlns="http://www.w3.org/2000/svg">
<g clip-path="url(#clip0_1100_7091)">
<path d="M77.5781 0C78.3359 0 79.0859 0 79.8438 0C80 0.0155959 80.1484 0.0467876 80.3047 0.0467876C81.9844 0.0545856 83.6641 0.0467876 85.3438 0.0701815C86.1797 0.0857773 87.0156 0.163757 87.8438 0.218342C87.7344 0.343109 87.6172 0.382099 87.4922 0.413291C86.9375 0.545856 86.375 0.670623 85.8281 0.818784C85.7266 0.842177 85.5547 0.966945 85.5625 1.02153C85.625 1.38803 85.6797 1.77793 85.8438 2.10544C85.9219 2.2536 86.25 2.2848 86.4688 2.34718C87.9609 2.75267 89.4297 3.10358 90.9609 2.36278C91.5781 2.06645 92.1641 1.87151 92.3438 1.1307C92.4141 0.842177 92.6094 0.803188 92.8828 0.881167C93.6484 1.09171 94.4219 1.26327 95.1875 1.47381C95.6641 1.59858 96.2266 1.66096 96.125 2.44075C96.2188 2.34718 96.2656 2.31599 96.2734 2.2692C96.3281 1.91829 96.5156 1.87151 96.8281 1.99627C97.1172 2.11324 97.4219 2.19122 97.7188 2.29259C99.7734 2.95542 101.836 3.64164 103.992 3.82099C105.422 3.93796 106.703 4.39804 107.938 5.06086C108.141 5.17003 108.352 5.27141 108.57 5.36498C108.703 5.41957 108.844 5.44296 108.977 5.46636C109.711 5.59892 110.359 5.93423 110.969 6.36312C111.148 6.48789 111.305 6.65164 111.5 6.75302C114.211 8.19563 116.93 9.61486 119.633 11.0731C122.914 12.8432 126.086 14.7849 128.961 17.1633C129.852 17.8963 130.68 18.6995 131.531 19.4793C131.516 19.5338 131.5 19.5884 131.484 19.643C130.586 19.7678 129.688 19.8925 128.781 20.0173C128.789 20.0797 128.781 20.1265 128.797 20.1577C129.18 20.6957 129.57 21.2338 129.961 21.7718C129.992 21.8186 130.055 21.8654 130.109 21.881C130.391 21.9278 131.195 21.3975 131.273 21.1168C131.406 20.6645 131.539 20.2123 131.672 19.76C131.719 19.7444 131.758 19.721 131.805 19.7054C132.609 20.532 133.461 21.3118 134.203 22.2007C134.789 22.9025 135.422 23.1287 136.289 22.9025C136.938 22.731 137.586 22.8402 138.203 23.0819C138.773 23.308 139.062 23.7525 139.07 24.353C139.07 24.7273 139 25.1016 138.945 25.4681C138.906 25.7254 138.977 25.8658 139.195 26.0451C139.68 26.4428 140.195 26.8561 140.539 27.3708C141.039 28.1116 141.406 28.9382 141.828 29.7257C142.422 30.8486 143.172 31.8 144.453 32.1899C145.008 32.3614 145.219 32.6344 145.18 33.2192C145.125 33.9912 145.344 34.6852 145.758 35.3169C145.953 35.6054 146.156 35.8939 146.375 36.1746C148 38.2099 149.328 40.4245 150.227 42.8731C150.547 43.7464 150.914 44.5496 151.68 45.1267C152.039 45.3996 152.156 45.7193 151.852 46.117C151.781 46.2106 151.75 46.3509 151.695 46.4835C151.938 46.6551 152.141 46.85 152.383 46.967C153.336 47.4193 153.727 48.2381 153.922 49.205C153.953 49.361 153.992 49.5091 154.023 49.6573C154.391 51.1935 154.641 52.7687 155.156 54.2581C156.219 57.3304 157.172 60.4262 158.039 63.5532C158.648 65.7444 159.164 67.9512 159.312 70.2282C159.422 71.78 159.617 73.3318 159.688 74.8836C159.742 76.1235 159.703 77.3712 159.617 78.611C159.57 79.2505 159.305 79.8743 159.18 80.5137C159.062 81.1064 159.008 81.699 158.922 82.2995C158.688 82.1123 158.562 81.9096 158.422 81.7224C158.344 81.621 158.242 81.4729 158.148 81.4729C157.648 81.4807 157.148 81.5275 156.555 81.5664C156.914 82.1279 157.227 82.5958 157.516 83.087C157.656 83.321 157.812 83.3444 158.062 83.2742C158.711 83.087 159.359 82.9233 160.016 82.7517C160.016 83.1416 160.016 83.5315 160.016 83.9214C159.844 84.748 159.688 85.5746 159.508 86.3934C159.234 87.6488 158.859 88.8887 158.938 90.191C159.062 92.234 158.648 94.1757 157.898 96.0472C157.094 98.0669 156.406 100.118 156 102.254C155.531 104.703 154.664 106.996 153.578 109.218C152.664 111.082 151.68 112.922 150.828 114.817C149.328 118.154 147.789 121.445 145.523 124.362C143.797 126.584 142.031 128.752 139.852 130.561C138.539 131.645 137.266 132.776 136.039 133.961C135.023 134.943 134.109 136.035 133.133 137.064C132.773 137.446 132.367 137.782 131.984 138.14C131.953 138.117 131.93 138.094 131.898 138.078C132.055 137.61 132.219 137.142 132.406 136.589C131.633 136.963 130.938 137.291 130.258 137.641C130.164 137.688 130.07 137.836 130.055 137.946C129.938 138.64 129.836 139.334 129.727 140.028C129.719 140.09 129.648 140.16 129.586 140.199C128.695 140.901 127.805 141.595 126.922 142.297C126.695 142.476 126.57 142.422 126.422 142.211C126.172 141.852 125.883 141.509 125.641 141.143C125.469 140.878 125.312 140.831 125.055 141.049C124.742 141.322 124.43 141.618 124.07 141.813C123.406 142.188 123.297 142.663 123.555 143.35C123.703 143.755 123.773 144.145 124.328 144.09C124.336 144.09 124.352 144.129 124.375 144.176C123.914 144.543 123.43 144.901 122.984 145.283C122.531 145.673 122.062 146.001 121.453 146.048C121.438 146.048 121.43 146.087 121.406 146.118C121.445 146.149 121.492 146.172 121.531 146.204C121.562 146.235 121.594 146.274 121.648 146.328C119.484 148.067 117.07 149.315 114.563 150.453C114.273 149.939 114.023 149.455 113.734 148.995C113.656 148.878 113.445 148.746 113.32 148.769C112.719 148.886 112.133 149.065 111.539 149.214C111.305 149.268 111.273 149.401 111.32 149.619C111.422 150.064 111.484 150.516 111.594 150.953C111.656 151.202 111.789 151.436 111.906 151.732C110.703 152.278 109.414 152.863 108.086 153.471C108.086 153.284 108.086 153.175 108.086 153.035C107.883 153.003 107.695 152.964 107.5 152.949C106.914 152.894 106.906 152.894 106.812 153.487C106.758 153.814 106.695 154.079 106.305 154.212C105.211 154.579 104.133 155.007 103.039 155.382C102.828 155.452 102.562 155.429 102.344 155.366C102.117 155.304 102.008 155.312 101.867 155.522C101.75 155.694 101.547 155.873 101.352 155.92C98.9688 156.45 96.5938 157.043 94.1875 157.448C91.2266 157.947 88.25 158.298 85.2734 158.704C84.8516 158.758 84.4297 158.766 84 158.797C83.9688 158.563 83.9453 158.384 83.9141 158.166C83.5625 158.314 83.2109 158.345 83.0859 158.743C83.0625 158.813 82.8984 158.867 82.7969 158.875C82.1094 158.914 81.4141 158.914 80.7344 158.969C80.1797 159.016 79.7031 158.945 79.3984 158.415C79.375 158.368 79.2969 158.345 79.2109 158.283C79.0312 158.54 78.8594 158.782 78.6875 159.016C78.1406 159.016 77.5938 159.016 77.0469 159.016C76.6562 158.992 76.2656 158.938 75.8828 158.969C75.3516 159.008 75.0547 158.774 74.8828 158.228C75.8906 157.628 76.7188 156.739 77.7812 156.333C76.6094 156.333 75.375 156.333 74.1406 156.341C74.0469 156.341 73.9375 156.395 73.8516 156.442C72.8203 157.066 71.6797 157.511 70.7891 158.368C70.6719 158.478 70.4531 158.563 70.3047 158.54C68.2969 158.173 66.2969 157.791 64.2969 157.409C64.2109 157.394 64.1328 157.339 63.9688 157.277C64.4141 157.019 64.7656 156.762 65.1562 156.598C65.5391 156.442 65.9531 156.388 66.3203 156.302C65.9453 155.982 65.4844 155.733 64.8906 155.912C64.7812 155.943 64.6562 155.92 64.5391 155.928C63.4609 155.998 62.3828 156.099 61.3047 156.138C60.5234 156.169 59.7344 156.356 58.9453 156.068C58.4141 155.873 57.8516 155.709 57.2969 155.6C56.2812 155.405 55.4453 154.968 54.9375 154.025C54.875 153.916 54.7891 153.799 54.6875 153.729C54.5625 153.635 54.4062 153.534 54.2578 153.518C53.3516 153.448 52.4453 153.401 51.5312 153.339C50.875 153.292 50.2188 153.237 49.5234 153.175C49.6641 152.348 49.7656 151.576 49.9453 150.82C50.0859 150.235 49.8047 149.806 49.5703 149.276C49.4297 149.424 49.3359 149.525 49.2422 149.635C48.6172 150.36 47.9844 151.093 47.3594 151.826C47.2344 151.974 47.125 152.083 46.9062 151.958C46.2812 151.615 45.6406 151.288 45.0156 150.953C44.9688 150.929 44.9453 150.867 44.8984 150.797C45.3125 150.672 45.6875 150.555 46.1016 150.43C45.8281 150.181 45.5859 150.025 45.2734 150.243C44.625 150.703 44.0156 150.594 43.4141 150.142C43.2891 150.048 43.1406 149.986 43.0078 149.915C42.6406 149.728 42.2734 149.541 41.8906 149.346C42.2031 148.987 42.4766 148.676 42.8203 148.27C42.5625 148.27 42.4219 148.27 42.2812 148.27C41.5391 148.27 40.7969 148.278 40.0547 148.262C39.8672 148.262 39.6641 148.215 39.5 148.13C35.1719 146.016 31.25 143.303 27.5547 140.223C23.6875 137.002 20.25 133.384 17.0312 129.539C16.4219 128.814 15.9297 128.05 15.625 127.145C15.3828 126.412 15.0703 125.703 14.7891 124.985C14.7734 124.993 14.7578 124.993 14.7422 125.001C14.8984 125.75 15.0547 126.498 15.2266 127.317C15.1172 127.184 15.0313 127.106 14.9688 127.013C14.2031 125.991 13.4062 125.001 12.6875 123.948C11.7891 122.63 10.9453 121.274 10.0859 119.925C9.83594 119.527 9.64062 119.114 10.0938 118.708C9.96875 118.575 9.875 118.466 9.77344 118.365C8.80469 117.39 8.19531 116.298 8.66406 114.871C8.67969 114.809 8.67188 114.739 8.67188 114.676C8.67969 113.827 8.375 113.062 7.89844 112.392C6.73438 110.754 5.95313 108.937 5.30469 107.05C4.5625 104.874 3.83594 102.699 3.04688 100.547C1.78906 97.1077 1.36719 93.6299 2.42969 90.0506C2.8125 88.7639 2.78125 87.4539 2.32812 86.1828C1.89062 84.9585 1.625 83.7031 1.72656 82.4008C1.82031 81.1999 1.47656 80.1784 0.726562 79.2583C0.234375 78.65 0.0234375 77.9326 0.148438 77.1762C0.304688 76.2327 0.554688 75.3047 0.796875 74.3767C0.867188 74.1038 0.851562 73.9089 0.648438 73.7139C0.226563 73.2928 0.117188 72.786 0.257812 72.2089C0.328125 71.897 0.34375 71.5773 0.398438 71.203C0.234375 71.242 0.125 71.2732 0.015625 71.2966C0.015625 71.1172 0.015625 70.9301 0.015625 70.7507C0.0859375 70.2672 0.1875 69.7838 0.21875 69.2925C0.335938 67.5068 0.539063 65.7366 0.945313 63.9899C0.976563 63.8573 1.03125 63.717 1.11719 63.6156C1.375 63.3193 1.67969 63.0541 1.92188 62.7422C2.52344 61.9546 2.50781 61.9546 1.95312 61.1436C1.85937 61.0111 1.82812 60.8239 1.80469 60.6524C1.76562 60.4184 1.8125 60.1611 1.74219 59.9506C1.42187 59.0304 1.78906 57.5878 2.51562 57.0653C3.25 56.5351 3.97656 55.9892 4.74219 55.4901C5.26562 55.147 5.57812 54.7571 5.48438 54.0943C5.44531 53.8292 5.51563 53.5485 5.53125 53.2755C5.58594 52.2384 5.57812 52.2384 4.60938 51.8875C4.59375 51.8797 4.58594 51.8797 4.57031 51.8719C4.35938 51.7939 4.25781 51.6769 4.32812 51.4274C4.53125 50.7178 4.71875 50.0004 4.90625 49.283C4.96094 49.0646 5.07812 48.9711 5.3125 48.9555C6 48.9165 6.6875 48.8229 7.375 48.7995C7.94531 48.7761 8.32812 48.5968 8.4375 47.9885C8.51562 47.5752 8.74219 47.1697 8.72656 46.772C8.69531 45.8285 8.54688 44.8849 8.46094 43.9414C8.45312 43.8244 8.47656 43.6685 8.54688 43.5827C9.48438 42.4832 10.2578 41.2121 11.625 40.5415C12.7891 39.9722 13.5 39.0521 13.9922 37.8512C14.2969 37.1104 14.4531 36.5177 13.8984 35.8783C13.7188 35.6678 13.7578 35.4806 13.9297 35.2623C14.5859 34.4279 15.2266 33.5701 15.8672 32.7202C15.9453 32.611 16.0156 32.494 16.1094 32.3614C15.6172 32.1587 15.1875 31.9793 14.7109 31.7844C14.8125 31.6518 14.8672 31.5661 14.9375 31.4881C16.0938 30.1858 17.2578 28.8914 18.4062 27.5735C18.6406 27.3084 18.8672 27.168 19.2266 27.1836C19.8438 27.2148 20.4609 27.1914 21.1797 27.1914C20.9688 26.6144 20.8203 26.1621 20.6406 25.7254C20.4609 25.2887 20.5391 24.9066 20.8437 24.5791C21.6172 23.7525 22.4062 22.9415 23.1797 22.1228C23.3906 21.8966 23.625 21.803 23.9375 21.7952C24.1016 21.7874 24.3672 21.6939 24.4141 21.5691C24.6484 20.9375 25.1562 20.7581 25.7344 20.6489C26.0156 20.5944 26.2891 20.5164 26.5625 20.4306C26.9687 20.298 27.3672 20.2123 27.6562 20.6567C27.6641 20.6645 27.7031 20.6567 27.7734 20.6489C27.8906 20.0797 28 19.4948 28.1328 18.9178C28.1641 18.7696 28.2188 18.5591 28.3203 18.5201C28.8828 18.2784 29.4687 18.0756 30.1172 17.8339C30.1484 18.7384 30.6406 19.2453 31.3828 19.6508C31.1875 19.1751 30.9922 18.754 30.8516 18.3174C30.6328 17.6155 30.2734 17.0541 29.5547 16.7734C29.5 16.75 29.4609 16.6954 29.3516 16.6018C30.7344 15.5179 32.0859 14.4496 33.4844 13.3501C33.7188 13.8803 33.9062 14.3326 34.1328 14.7615C34.2031 14.8863 34.3984 15.0422 34.5234 15.0266C35.3359 14.9486 36.1484 14.8239 36.9609 14.7147C36.9062 14.7771 36.8516 14.8473 36.7969 14.9097C36.6562 14.6757 36.5312 14.4262 36.3672 14.2C36.1562 13.8881 35.9062 13.6074 35.6953 13.2955C35.5547 13.0849 35.3828 13.007 35.1328 13.0382C34.7422 13.0849 34.3438 13.1005 33.9531 13.1317C33.9375 13.0849 33.9141 13.046 33.8984 12.9992C35.7969 11.6657 37.6953 10.3323 39.6641 8.95203C39.7578 9.38872 39.8125 9.69284 39.8828 9.98916C39.9531 10.2777 39.8438 10.3791 39.5469 10.3947C39.0234 10.4258 38.4922 10.496 37.9453 10.5506C38.3906 11.2134 38.4453 11.229 39.125 10.9795C39.2188 10.9405 39.3203 10.8937 39.4219 10.8781C40.2188 10.7612 40.5469 10.2153 40.6719 9.50569C40.7187 9.24056 40.7188 8.95983 40.7031 8.6947C40.6875 8.43737 40.7891 8.29701 41.0078 8.17224C43.4219 6.72182 45.9531 5.52094 48.6016 4.56179C48.8594 4.46822 49.125 4.38244 49.4453 4.27327C49.1719 5.20123 49.6016 6.23055 48.6406 6.90118C48.6797 6.91677 48.7187 6.93237 48.7578 6.94796C49.375 6.50348 50 6.059 50.6406 5.59892C50.375 5.10765 50.1172 4.64757 49.8516 4.1563C50.0703 4.07052 50.25 4.00034 50.4375 3.93796C53.5781 2.93203 56.7812 2.22241 60.0312 1.69995C62.5156 1.29446 65.0078 0.881167 67.4922 0.475674C68.3516 0.335311 69.2109 0.140363 70.0703 0.460078C70.4219 0.592643 70.7656 0.545856 71.1328 0.475674C71.8828 0.335311 72.6484 0.233938 73.4062 0.140363C73.9688 0.0701815 74.5391 0.0467876 75.1094 0.00779794C75.2422 0.00779794 75.3672 0.00779794 75.5 0.00779794C76.3047 0.124767 77.1172 0.249534 78.0156 0.382099C77.7969 0.202746 77.6875 0.101373 77.5781 0ZM28.2969 40.5025C27.8047 40.1048 27.4375 39.7617 27.0156 39.481C26.0547 38.8493 25 38.9273 24.2031 39.7539C23.75 40.2218 23.4141 40.8066 23.0938 41.3837C22.6406 42.1791 22.0859 42.6859 21.0859 42.6235C19.2031 42.5066 17.5859 43.2084 16.2031 44.4327C13.3594 46.9592 11.4688 50.0862 10.4844 53.7668C10.0547 55.3654 9.92188 57.0107 9.66406 58.6327C9.23438 61.3698 8.70312 64.0991 8.16406 66.8205C7.46875 70.3296 6.95312 73.8465 7.04688 77.4491C7.10156 79.4688 6.97656 81.4963 6.91406 83.5237C6.84375 85.9177 6.90625 88.3117 7.48438 90.6432C7.875 92.2184 8.28125 93.778 8.51562 95.3922C8.67188 96.4527 8.83594 97.5444 9.21875 98.5348C10.1406 100.921 11.1562 103.268 12.2031 105.6C13.7266 108.976 15.4922 112.228 17.3125 115.456C19.5234 119.371 22.1797 122.95 25.2812 126.202C27.2266 128.245 29.2578 130.21 31.2109 132.237C33.1797 134.281 35.3516 136.058 37.8359 137.462C39.2812 138.281 40.5937 139.271 41.8047 140.41C42.3125 140.885 42.8828 141.33 43.4922 141.665C47.5703 143.864 51.7266 145.892 56.0625 147.537C61.1641 149.471 66.4062 150.703 71.875 150.758C76.2656 150.804 80.6484 150.758 85.0391 150.765C88.0234 150.773 90.9922 150.578 93.9219 150.009C98.6641 149.089 103.313 147.81 107.805 146.009C112.922 143.958 117.711 141.236 122.461 138.452C123.891 137.618 125.242 136.628 126.203 135.255C127.844 132.9 129.898 130.959 132.141 129.212C134.219 127.598 136.078 125.781 137.578 123.613C138.656 122.053 139.758 120.509 140.836 118.942C141.453 118.045 142.133 117.172 142.617 116.205C143.773 113.904 144.82 111.557 145.922 109.234C146.68 107.635 147.367 106.005 147.602 104.235C147.859 102.247 148.438 100.359 149.156 98.5036C149.664 97.1935 150.156 95.8835 150.586 94.55C151.305 92.2964 151.297 89.9492 151.383 87.6098C151.438 86.0581 151.578 84.4985 151.797 82.9623C152.227 79.9679 152.766 76.9968 153.203 74.0102C153.383 72.786 153.273 71.5539 152.773 70.3764C152.531 69.8072 152.352 69.1989 152.242 68.5907C151.945 67.0389 151.922 65.4715 152.219 63.9119C152.25 63.7482 152.188 63.5532 152.117 63.3972C151.883 62.8904 151.641 62.3835 151.375 61.8922C150.336 59.9428 149.422 57.9153 148.211 56.0828C146.578 53.5952 144.945 51.1077 143.5 48.511C143.195 47.9729 143.008 47.4349 143.211 46.811C143.297 46.5303 143.312 46.2262 143.336 45.9299C143.445 44.4249 143.07 43.0134 142.43 41.6722C141.734 40.2374 140.922 38.8493 140.266 37.3989C139.812 36.4086 139.312 35.4806 138.602 34.6462C138.375 34.3811 138.18 34.0302 138.117 33.6871C137.953 32.8059 137.352 32.5018 136.578 32.4004C135.094 32.1977 133.75 31.644 132.523 30.7785C131.039 29.7335 129.82 28.4079 128.719 26.9965C127.484 25.4213 126 24.1346 124.344 23.0429C122.375 21.7485 120.453 20.3994 118.719 18.7852C117.703 17.8417 116.562 17.0385 115.273 16.4615C113.383 15.6193 111.523 14.7303 109.656 13.8413C109.25 13.6464 108.875 13.4514 108.398 13.5216C108.25 13.545 108.07 13.4514 107.922 13.3891C106.93 12.9914 105.945 12.5859 104.961 12.1882C103.008 11.4006 101.047 10.6364 99.1016 9.8332C97.7734 9.28735 96.4297 8.80387 95.0234 8.52315C92.7266 8.06307 90.3906 8.08646 88.0781 7.90711C86.625 7.79794 85.1719 7.68097 83.7266 7.54061C82.2656 7.40024 80.8125 7.1975 79.3438 7.06493C77.7656 6.92457 76.2031 7.1897 74.6406 7.38465C73.5234 7.52501 72.3906 7.54841 71.3203 7.15851C69.7422 6.58146 68.1562 6.46449 66.5312 6.8232C65.625 7.02594 64.7188 7.22089 63.9688 7.87592C63.5937 8.20343 63.0781 8.40618 62.5938 8.58553C61.5312 8.97543 60.4141 9.03781 59.2891 9.0846C58.5547 9.11579 57.8047 9.15478 57.1953 9.59146C56.1094 10.3635 54.8984 10.8001 53.6094 11.0341C51.7812 11.3616 49.9531 11.7047 48.2031 12.3597C45.8516 13.2331 44.0938 14.7147 43.2734 17.1555C43.1016 17.6623 42.9219 18.1614 42.7031 18.6449C42.1172 19.9315 41.5078 21.2104 40.8984 22.4815C40.4453 23.4328 39.9609 24.3686 39.5156 25.3199C39.2969 25.78 39.6172 26.2479 40.125 26.2869C40.9844 26.3492 41.3047 26.0451 41.3281 25.164C41.3359 24.8676 41.4062 24.5713 41.4453 24.275C41.5 24.2672 41.5469 24.2594 41.6016 24.2594C41.8359 24.6805 42.0781 25.1094 42.3203 25.5305C42.4219 25.7098 42.5312 25.8892 42.6562 26.0529C42.7734 26.2011 43.0469 26.4116 43.0234 26.4506C42.8438 26.7391 42.6562 26.4194 42.4609 26.4116C42.3438 26.4116 42.2109 26.4428 42.1016 26.4974C42.0781 26.5052 42.1016 26.7001 42.1562 26.7625C42.8203 27.5189 43 28.5093 43.4141 29.3826C43.4922 29.5464 43.5391 29.7257 43.5625 29.9051C43.6328 30.4042 43.4766 30.6927 43.0781 30.8564C42.6875 31.0202 42.3516 30.9266 42.0625 30.5289C41.6172 29.9129 41.1719 29.2891 40.7578 28.6496C40.1953 27.7685 39.4219 27.5579 38.5234 28.0882C38.2031 28.2831 37.875 28.4937 37.625 28.7666C36.3516 30.1936 34.8594 31.4491 34.0703 33.2738C33.8984 33.6715 33.6406 34.0146 33.1562 34.1004C32.8516 34.155 32.8047 34.3655 32.9219 34.6306C33.1016 35.0439 33.4844 35.2233 33.9844 35.1453C34.3594 35.0907 34.7344 35.0127 35.1016 35.0283C35.9609 35.0595 36.4453 35.5586 36.4531 36.4164C36.4609 36.8141 36.4062 37.2196 36.375 37.6173C36.3281 38.1475 36.1328 38.3581 35.6797 38.3971C35.2344 38.436 35 38.2411 34.8672 37.7342C34.7891 37.4301 34.7266 37.126 34.6094 36.8375C34.2031 35.8939 32.9922 35.6444 32.2812 36.3852C32.0234 36.6503 31.8906 37.048 31.6875 37.3755C31.5078 37.6562 31.3516 37.9604 31.1094 38.1787C30.7344 38.514 30.2969 38.7714 29.8672 39.0833C29.8125 39.0521 29.7422 38.9897 29.6562 38.9663C29.3594 38.8649 29.0625 38.7714 28.7656 38.6778C28.6719 38.9741 28.5625 39.2704 28.4922 39.5745C28.3906 39.8397 28.3594 40.1438 28.2969 40.5025ZM158.031 74.6263C158.023 74.5405 158.023 74.5171 158.016 74.4859C157.781 73.6125 157.547 72.7314 157.297 71.8658C157.273 71.7956 157.102 71.7177 157.016 71.7332C156.648 71.8034 156.289 71.9126 155.922 71.9984C155.68 72.053 155.617 72.1777 155.672 72.4195C155.836 73.1525 156 73.8855 156.117 74.6263C156.156 74.8758 156.117 75.1643 156.031 75.3983C155.828 75.9285 155.563 76.4354 155.336 76.9579C155.297 77.0436 155.297 77.1996 155.344 77.262C155.5 77.4257 155.906 77.379 156.055 77.1918C156.664 76.4198 157.281 75.6478 157.891 74.868C157.961 74.79 158 74.6809 158.031 74.6263ZM155.609 102.473C155.555 102.418 155.5 102.364 155.453 102.309C155.367 101.825 155.297 101.342 155.188 100.859C155.172 100.804 154.984 100.726 154.891 100.749C154.422 100.851 153.961 100.991 153.5 101.1C153.25 101.163 153.203 101.311 153.25 101.537C153.328 101.942 153.414 102.348 153.469 102.761C153.5 102.98 153.594 103.034 153.781 102.98C154.281 102.847 154.781 102.707 155.281 102.566C155.375 102.535 155.492 102.504 155.609 102.473ZM121.062 145.962C120.891 145.315 120.75 144.761 120.578 144.223C120.555 144.145 120.383 144.059 120.273 144.059C119.703 144.067 119.125 144.083 118.555 144.122C118.461 144.129 118.297 144.246 118.289 144.324C118.234 144.753 118.227 145.19 118.188 145.704C118.586 145.549 118.906 145.447 119.203 145.307C119.492 145.166 119.727 145.166 120 145.354C120.305 145.556 120.633 145.72 121.062 145.962ZM134.562 26.2635C134.391 25.6864 134.219 25.1873 133.555 25.0392C133.172 24.9534 132.82 24.7195 132.461 24.5479C132.312 24.4777 132.172 24.3998 132.016 24.3218C131.789 25.2263 131.82 25.2887 132.68 25.3979C132.742 25.4057 132.82 25.3901 132.875 25.4213C133.078 25.5227 133.328 25.5928 133.453 25.7566C133.727 26.1309 134.117 26.1855 134.562 26.2635ZM134.195 131.107C134.625 131.543 134.992 131.941 135.391 132.308C135.469 132.386 135.672 132.393 135.789 132.347C135.859 132.323 135.898 132.136 135.891 132.019C135.883 131.723 135.859 131.419 135.828 131.122C135.789 130.779 135.828 130.475 136.18 130.272C135.547 130.545 134.914 130.81 134.195 131.107ZM125.227 15.1436C125.195 15.1358 125.164 15.128 125.133 15.1202C124.938 15.5959 124.734 16.0716 124.547 16.5472C124.516 16.6252 124.516 16.7422 124.555 16.8046C124.867 17.3036 125.195 17.7949 125.516 18.2862C125.539 18.2784 125.562 18.2628 125.586 18.255C125.469 17.2178 125.352 16.1807 125.227 15.1436Z" fill="#78756E"/>
<path d="M6.375 46.2812C7.21094 46.7413 7.63281 47.4119 7.83594 48.2385C7.07813 48.5271 6.45312 48.5037 5.58594 48.145C5.85156 47.5367 6.10937 46.9285 6.375 46.2812Z" fill="#78756E"/>
<path d="M56.9531 31.0215C58.1016 30.2105 59.3281 29.6257 60.6953 29.3761C61.3203 29.2591 61.8906 29.0252 62.3594 28.5807C62.8281 28.1284 62.875 27.7463 62.4219 27.2707C62 26.834 61.5156 26.4519 61.0547 26.0542C60.6641 25.7111 60.2422 25.3992 59.8828 25.0249C59.6484 24.7753 59.4219 24.4634 59.3437 24.1437C59.2812 23.8864 59.375 23.5043 59.5469 23.3015C59.6719 23.1612 60.0781 23.13 60.2891 23.2157C60.8125 23.4419 61.2969 23.7538 61.7812 24.0423C62.2344 24.3153 62.6719 24.635 63.1328 24.8923C63.7734 25.2432 64.2813 24.9313 64.2109 24.2061C64.1719 23.7226 63.9687 23.2625 63.8359 22.7869C63.7187 22.3814 63.5625 21.9759 63.5078 21.5548C63.4609 21.1883 63.6875 21.0401 64.0234 21.2039C64.3125 21.3364 64.5937 21.5236 64.8281 21.7419C65.4297 22.2956 65.8906 22.9506 66.1875 23.7148C66.2656 23.9176 66.3672 24.1203 66.4766 24.3153C66.6563 24.6428 66.9375 24.7753 67.3203 24.7441C67.5859 24.7207 67.8672 24.7519 68.1328 24.7753C68.75 24.8455 69.0156 24.7052 69.1563 24.0969C69.2891 23.5433 69.3359 22.974 69.4219 22.4048C69.4297 22.3424 69.4141 22.2722 69.4375 22.2098C69.5156 22.0227 69.6016 21.8355 69.6875 21.6484C69.8125 21.8199 70.0391 21.9759 70.0547 22.1552C70.1172 22.9896 70.25 23.8552 70.1172 24.6662C69.75 26.8652 69.2812 29.0486 68.8125 31.2242C68.5703 32.3549 68.7344 33.3687 69.4141 34.3278C69.9609 35.0998 70.4531 35.9186 70.9375 36.7296C72.3828 39.1625 74.5312 40.5272 77.3281 40.9093C77.7812 40.9717 78.2344 41.0106 78.6797 41.0652C78.9844 41.1042 79.1172 40.9951 79.1328 40.6597C79.1797 39.4277 78.9531 38.2268 78.6797 37.0415C77.9687 33.9457 77.1797 30.8655 76.5234 27.7541C76.1797 26.1244 75.9688 24.4478 75.8438 22.7869C75.7187 21.1883 75.7188 19.5663 75.7734 17.9677C75.8125 16.5641 76.0625 15.1761 76.6328 13.8738C76.7734 13.5541 76.9531 13.2578 77.1797 12.8367C77.4766 13.3124 77.7422 13.6789 77.9375 14.0766C78.3672 14.9187 78.6172 15.8311 78.6016 16.7746C78.5781 18.2641 78.4766 19.7613 78.4375 21.2507C78.4062 22.2878 78.4766 23.3249 78.8359 24.3231C78.9766 24.7052 79.125 25.173 79.5625 25.2042C80.0156 25.2432 80.2031 24.7753 80.4062 24.4322C81 23.4341 81.0078 22.358 80.7969 21.2585C80.5078 19.7535 80.1562 18.2641 79.9453 16.7513C79.6406 14.6146 80.3828 12.7587 82.2734 11.784C82.3984 11.7216 82.5312 11.6826 82.7109 11.6124C82.8281 12.4312 82.9453 13.211 83.0547 13.9908C83.3437 16.026 83.25 18.0457 82.8594 20.0732C82.6328 21.2507 82.6172 22.4515 82.9688 23.6212C83.1016 24.0657 83.2656 24.5492 83.7891 24.6038C84.2812 24.6584 84.5781 24.2529 84.8203 23.8786C85.2891 23.1612 85.3438 22.3346 85.3047 21.5158C85.2656 20.4397 85.1562 19.3636 85.0781 18.2952C84.9453 16.4471 84.8984 14.6146 85.6641 12.8601C86 12.1037 86.5078 11.4175 86.9609 11.1445C86.9844 11.1679 87.0312 11.1835 87.0391 11.2147C87.3281 12.2908 87.6797 13.3513 87.8828 14.4431C88.1094 15.6907 87.7344 16.915 87.4687 18.1315C87.0937 19.886 86.7344 21.6406 86.7266 23.4419C86.7266 23.785 86.7969 24.1437 86.9141 24.4634C87.0625 24.8689 87.4063 24.9547 87.7188 24.6506C88.0156 24.3698 88.2813 24.0267 88.4688 23.668C89.2109 22.2332 89.2891 20.6892 89.1406 19.114C88.9531 17.1489 89.0312 15.2073 90.0469 13.4449C90.2891 13.0238 90.6484 12.6651 90.9844 12.3142C91.125 12.1661 91.3516 12.0647 91.5625 12.0023C91.9922 11.8775 92.1797 12.0179 92.1875 12.4702C92.1953 12.8757 92.1953 13.2734 92.1719 13.6789C92.0938 15.1059 92.3594 16.4939 92.5078 17.9053C92.6797 19.5351 92.5156 21.1493 92.2969 22.7557C91.7813 26.5143 90.8047 30.1793 89.8828 33.8521C89.6016 34.9906 89.375 36.1447 89.4687 37.3144C89.5156 37.9227 89.6797 38.5387 89.8906 39.1157C90.0937 39.6616 90.2344 39.6928 90.8125 39.607C92.9844 39.2873 95.1406 38.8584 97.2578 38.258C99.3281 37.6731 101.063 36.5034 102.805 35.3103C105.375 33.5402 107.984 31.8325 110.609 30.1481C112.438 28.9706 114.305 27.8711 116.164 26.7482C116.586 26.4909 117.039 26.2803 117.492 26.0932C117.648 26.0308 117.938 26.023 118.031 26.1244C118.141 26.2413 118.18 26.5299 118.109 26.6858C117.898 27.1381 117.68 27.606 117.359 27.9881C116.227 29.3449 114.797 30.3431 113.266 31.193C111.734 32.0508 110.133 32.7916 108.625 33.6806C107.477 34.359 106.422 35.1934 105.344 35.9888C105.07 36.1915 104.867 36.5034 104.688 36.7998C104.453 37.1975 104.641 37.5406 105.102 37.4782C105.664 37.408 106.242 37.2988 106.766 37.0961C109.273 36.1135 111.797 35.1622 114.086 33.7274C115.445 32.8774 116.742 31.9416 118.086 31.0761C118.578 30.7642 119.117 30.5146 119.656 30.3041C119.945 30.1871 120.289 30.1637 120.609 30.1715C121.18 30.1871 121.523 30.7096 121.242 31.2086C121 31.6375 120.672 32.0508 120.305 32.3861C118.828 33.7196 117.109 34.7021 115.398 35.6924C113.469 36.8076 111.422 37.6809 109.375 38.5543C108.539 38.913 107.734 39.3341 106.938 39.7708C106.609 39.9501 106.312 40.1997 106.062 40.4726C105.68 40.8937 105.813 41.3616 106.352 41.5409C106.57 41.6111 106.867 41.6501 107.07 41.5643C107.883 41.229 108.719 40.9171 109.469 40.4648C112.109 38.8818 114.742 37.2754 117.531 35.9498C118.938 35.2792 120.344 34.5929 121.891 34.281C122.141 34.2264 122.406 34.2108 122.664 34.2186C123.289 34.2264 123.539 34.5462 123.398 35.1544C123.219 35.9654 122.695 36.5658 122.109 37.1039C120.609 38.4763 118.836 39.3965 117.016 40.2386C115.07 41.1354 113.016 41.6891 110.945 42.2193C109.516 42.5858 108.141 43.0927 106.906 43.9271C106.711 44.0596 106.531 44.2078 106.359 44.3716C106.273 44.4573 106.242 44.5899 106.18 44.6991C106.305 44.7615 106.422 44.8706 106.547 44.8706C106.828 44.8784 107.117 44.855 107.398 44.8004C111.07 44.083 114.641 43.0225 118.078 41.5331C119.352 40.9795 120.664 40.5116 121.969 40.0515C122.32 39.9267 122.742 39.9657 123.125 39.9969C123.672 40.0437 123.953 40.4336 123.719 40.9171C123.477 41.4083 123.148 41.884 122.75 42.2505C121.555 43.3656 120.102 44.0206 118.555 44.4885C115.648 45.3775 112.742 46.2743 109.836 47.1632C105.953 48.3485 102.055 49.448 98.0469 50.1264C96.3594 50.415 94.6484 50.5709 92.9453 50.7815C92.1875 50.875 91.4219 50.953 90.6562 51.0232C90.3828 51.0466 90.2812 51.1948 90.2422 51.4443C89.9297 53.2846 89.6406 55.1327 89.2813 56.9652C88.9375 58.7198 88.5547 60.4743 88.1094 62.2055C87.6172 64.1315 87.3672 66.0732 87.3203 68.0539C87.3125 68.3736 87.2031 68.7713 87.3516 68.9897C87.4844 69.1924 87.9062 69.208 88.2031 69.3016C89.1641 69.5979 90.0391 70.0424 90.7734 70.7286C92.25 72.0854 92.5 73.7308 91.9062 75.5711C91.1406 77.9651 89.4766 79.5169 87.2266 80.4994C85.7188 81.1544 84.1406 81.4976 82.5078 81.5989C82.0391 81.6301 81.5703 81.6535 81.1094 81.6691C80.9141 81.6769 80.7813 81.7003 80.8125 81.9498C81.0547 84.1722 81.5234 86.3323 82.5859 88.3285C83.2578 89.5996 84.1562 90.6679 85.4688 91.3619C87.4297 92.3991 90.3594 91.4633 91.4531 90.0597C92.0078 89.3501 92.1953 88.5625 92.0078 87.6813C91.9609 87.463 91.875 87.4162 91.6641 87.463C90.7891 87.6657 90.1875 87.4396 89.6953 86.7378C89.1797 86.0048 89.125 85.0534 89.5703 84.3516C90.1484 83.4314 91.2109 82.9948 92.2344 83.2365C93.2656 83.486 94.0469 84.3828 94.1484 85.4979C94.4297 88.5859 92.8516 91.2684 90.2188 92.555C87.1484 94.0522 82.0625 93.7637 79.2656 91.6427C77.0781 89.9895 75.75 87.7827 74.9844 85.2016C74.5312 83.6576 74.2969 82.0824 74.5 80.4682C74.8203 77.9261 75.4687 75.5009 76.9609 73.3643C77.7031 72.296 78.6094 71.3914 79.6641 70.635C79.9531 70.4245 80.2266 70.1282 80.3906 69.8084C81.1953 68.2956 81.5938 66.6581 81.7578 64.9659C81.9297 63.0944 82.0859 61.2151 82.1328 59.3358C82.1641 58.0413 81.9922 56.7469 81.8984 55.4524C81.8359 54.6102 81.7578 53.7681 81.6953 52.9337C81.6875 52.7933 81.6797 52.653 81.6719 52.458C80.9844 52.575 80.3359 52.6842 79.6875 52.7933C77.6719 53.113 75.6719 53.5497 73.6406 53.7291C70.4062 54.0176 67.8203 52.7777 66.0078 50.0407C64.7813 48.1926 64.0703 46.1261 63.6719 43.9739C63.3203 42.0478 63.1094 40.0983 62.8594 38.1566C62.7187 37.0727 62.6563 35.9888 62.2578 34.9516C61.4297 32.7916 59.8203 31.5829 57.5859 31.154C57.3828 31.0917 57.1641 31.0605 56.9531 31.0215ZM82.7656 79.6962C83.375 79.5949 84.1016 79.5247 84.8047 79.3531C87.8516 78.5967 89.3984 75.4619 88.1719 72.5533C87.6562 71.329 86.5078 70.713 85.2031 70.9859C84.2812 71.1809 83.5703 71.7189 82.9922 72.4286C81.3516 74.4326 80.9609 76.8422 80.8203 79.3219C80.8125 79.4077 80.9844 79.5793 81.0938 79.5949C81.6094 79.6416 82.125 79.6572 82.7656 79.6962ZM87.3359 51.4989C86.5156 51.6314 85.7969 51.7718 85.0625 51.8498C84.6875 51.8888 84.5938 52.0681 84.5703 52.3956C84.4453 54.0254 84.3281 55.6552 84.1562 57.2771C83.9609 59.0707 83.7734 60.8642 83.4688 62.6421C83.1172 64.693 83.0547 66.7439 83.1563 68.8103C83.1641 68.8961 83.2188 69.0208 83.2812 69.0598C83.4922 69.169 84.3906 68.8961 84.5078 68.6699C84.9297 67.8278 85.3906 66.9934 85.7344 66.12C86.2969 64.6852 86.5391 63.1646 86.7266 61.6518C86.9375 59.9284 87.1328 58.1973 87.2422 56.4662C87.3203 55.2497 87.2578 54.0254 87.2656 52.8011C87.2734 52.3956 87.3125 51.9979 87.3359 51.4989ZM80.0078 72.1166C79.8203 72.257 79.625 72.374 79.4531 72.5299C79.1406 72.8184 78.8125 73.0992 78.5391 73.4345C76.2891 76.1872 75.2344 79.3531 75.4922 82.9012C75.7656 86.6598 77.5781 89.4592 80.9531 91.2138C81.25 91.3697 81.5547 91.5101 81.8594 91.6583C81.5156 91.3308 81.1328 91.089 80.7734 90.8083C78.9375 89.3813 77.6094 87.5955 76.9453 85.3497C76.4063 83.525 76.3203 81.6691 76.6172 79.8054C77.0859 76.9514 78.0547 74.3312 80.0078 72.1166ZM69.6328 48.021C70.1172 49.2453 71.6094 50.259 72.8438 50.2746C73.125 50.2824 73.2266 50.1732 73.1719 49.9003C73.0234 49.1751 72.8828 48.4499 72.7187 47.7325C72.6953 47.6155 72.5469 47.4439 72.4453 47.4361C71.4531 47.3738 70.5469 47.6623 69.6328 48.021ZM100.336 42.9601C100.969 42.9133 101.406 42.8432 101.734 42.4689C101.93 42.2505 101.969 42.0166 101.836 41.7515C101.406 40.8937 99.8359 40.574 99.0938 41.19C98.5313 41.6579 98.5625 42.3207 99.2266 42.6326C99.6172 42.8198 100.063 42.8822 100.336 42.9601ZM89.9688 44.9954C90.6953 44.9876 91.1797 44.4417 90.9531 43.8569C90.7266 43.2876 90.3203 42.8744 89.7109 42.7106C89.1328 42.5546 88.6016 42.8822 88.5469 43.4124C88.4531 44.2 89.1875 45.0032 89.9688 44.9954ZM95.3359 42.1024C95.3281 42.079 95.3203 42.0634 95.3203 42.04C95.0312 42.1335 94.7109 42.1725 94.4453 42.3207C93.9062 42.6092 93.8281 43.1551 94.2109 43.6308C94.6016 44.1064 95.4062 44.278 95.9531 44.0051C96.4219 43.7711 96.7031 43.2798 96.6172 42.8354C96.5469 42.4611 96.1328 42.1725 95.6094 42.118C95.5156 42.1102 95.4219 42.1102 95.3359 42.1024ZM93.2187 47.366C93.2344 47.3348 93.2578 47.2958 93.2734 47.2646C93.7812 47.288 94.1719 46.9605 94.0938 46.5706C93.9609 45.8844 93.0625 45.2293 92.375 45.3307C92.0312 45.3775 91.7031 45.549 91.6641 45.8922C91.6328 46.1339 91.75 46.4848 91.9297 46.6252C92.3203 46.9371 92.7891 47.132 93.2187 47.366ZM88.8359 48.91C89.5156 48.9022 90.0781 48.6214 90.3359 48.2081C90.625 47.7325 90.4297 47.1554 89.9375 47.0541C89.3672 46.9371 88.3672 47.405 88.0937 47.9274C87.8906 48.3095 88.0078 48.6526 88.4062 48.8086C88.5703 48.871 88.75 48.8866 88.8359 48.91ZM99.2344 46.4224C99.4844 46.3366 99.7812 46.2821 100.031 46.1417C100.375 45.9623 100.453 45.6348 100.289 45.3541C99.9219 44.7147 98.7578 44.4261 98.1875 44.8784C97.9844 45.0344 97.7813 45.3541 97.7969 45.5802C97.8203 45.7986 98.0859 46.0559 98.3125 46.1885C98.5703 46.321 98.8906 46.3366 99.2344 46.4224ZM62.0781 30.7719C62.6484 31.0059 63.1094 31.2164 63.5781 31.3802C63.8516 31.4738 64.0469 31.388 64.0391 31.0215C64.0313 30.5614 64.2812 30.3353 64.7266 30.4054C65 30.4522 65.25 30.6316 65.5781 30.7797C65.7656 30.4678 65.9844 30.1247 66.2266 29.727C65.4688 29.766 64.8203 29.7738 64.1797 29.8284C63.4297 29.8908 62.7812 30.2261 62.0781 30.7719ZM76.4844 43.7087C76.125 42.7808 75.1562 42.0868 74.3359 42.0556C74.0391 42.04 73.9688 42.1803 74.0234 42.4377C74.1172 42.8899 74.2031 43.35 74.3281 43.7945C74.3594 43.8959 74.5391 44.044 74.6328 44.0284C75.2422 43.9427 75.8438 43.8257 76.4844 43.7087ZM83.0859 49.7131C82.6016 49.3856 82.1484 49.0737 81.6797 48.7696C81.6172 48.7306 81.4687 48.7384 81.4141 48.7852C80.9219 49.2141 80.6016 49.7599 80.3672 50.3604C81.2109 50.7971 82.4766 50.5085 83.0859 49.7131ZM72.3828 41.9542C72.1094 41.2758 71.3594 40.7299 70.7891 40.7143C70.5781 40.7065 70.4609 40.7611 70.5156 41.0028C70.5859 41.3148 70.6641 41.6345 70.7188 41.9542C70.7578 42.1803 70.8984 42.2739 71.1094 42.2349C71.5234 42.1569 71.9297 42.0556 72.3828 41.9542ZM75.75 49.3778C75.9375 48.9489 76.1172 48.5591 76.2734 48.1536C76.2969 48.0912 76.2344 47.9352 76.1719 47.904C75.8047 47.7169 75.4297 47.5453 75.0469 47.3972C74.9922 47.3738 74.8203 47.4985 74.8047 47.5687C74.6719 48.1614 75.1094 49.0113 75.75 49.3778ZM79.1641 49.0737C78.75 48.9022 78.3438 48.7228 77.9219 48.5591C77.8672 48.5357 77.7266 48.598 77.7031 48.6604C77.4922 49.0815 77.3047 49.5104 77.1094 49.9393C77.8906 50.1888 78.8281 49.7755 79.1641 49.0737ZM78.8828 45.6582C78.7031 46.0715 78.5234 46.4848 78.3594 46.8981C78.3359 46.9527 78.3672 47.0618 78.4141 47.1008C78.8125 47.4206 79.2734 47.5687 79.7656 47.6779C79.9297 46.8435 79.5781 46.0403 78.8828 45.6582ZM69.0312 40.9872C68.2891 41.4083 67.9063 41.923 67.8047 42.6404C67.7734 42.851 67.8594 42.9679 68.0937 42.9133C68.3984 42.8432 68.7109 42.8042 69 42.7028C69.1172 42.6638 69.2734 42.4767 69.2656 42.3675C69.2344 41.9386 69.1328 41.5097 69.0312 40.9872ZM71.5312 45.2917C72.2109 44.9486 72.5703 44.4495 72.7109 43.7711C72.75 43.5918 72.7266 43.4514 72.4609 43.4436C71.25 43.428 71 43.7477 71.3594 44.8862C71.4063 45.011 71.4609 45.128 71.5312 45.2917ZM81.8281 44.1064C81.1641 43.5996 80.1719 43.6775 79.625 44.2546C79.9922 44.5743 80.3516 44.9018 80.7734 45.2761C81.1406 44.8706 81.4766 44.5041 81.8281 44.1064ZM75.4531 45.9779C75.8828 46.1573 76.2812 46.3288 76.6953 46.477C76.7578 46.5004 76.8984 46.4302 76.9375 46.36C77.1172 46.0013 77.2891 45.6426 77.4297 45.2683C77.4531 45.2137 77.3437 45.0344 77.2734 45.0188C76.6641 44.894 75.7891 45.3307 75.4531 45.9779ZM68.1328 44.3872C68.4062 45.0734 69.1094 45.588 69.6719 45.6114C69.9141 45.6192 70.0156 45.5257 69.9687 45.2917C69.9141 44.9876 69.875 44.6757 69.7734 44.3872C69.7344 44.2702 69.5312 44.1298 69.4141 44.1376C69 44.1844 68.5859 44.2936 68.1328 44.3872ZM86.0938 44.5275C85.3828 45.5802 85.5234 46.0013 86.6406 46.2509C86.6562 46.2509 86.6719 46.2665 86.6797 46.2587C86.7656 46.2041 86.9141 46.1573 86.9297 46.0871C87.0391 45.549 86.6484 44.816 86.0938 44.5275ZM83.6406 47.3738C83.7422 47.1164 83.8672 46.9059 83.8906 46.6797C83.9063 46.5706 83.7813 46.3756 83.6641 46.321C83.4844 46.2275 83.2656 46.2119 83.0547 46.1729C83.0469 46.1729 82.9922 46.2898 83 46.3444C83.0625 46.7499 83.1875 47.1242 83.6406 47.3738ZM83.4688 45.1591C83.7656 45.2917 84.0234 45.4009 84.3516 45.549C84.4922 45.2293 84.625 44.933 84.7656 44.6289C84.2266 44.4963 83.7656 44.6913 83.4688 45.1591ZM85.8984 47.1866C85.5156 47.0852 85.1719 46.8669 84.9609 46.9605C84.7578 47.0463 84.6953 47.4517 84.5469 47.7637C85.1484 47.8494 85.5078 47.6545 85.8984 47.1866Z" fill="#78756E"/>
<path d="M68.5787 128.057C67.4615 126.825 67.0787 125.374 67.2506 123.76C67.3834 122.559 67.8053 121.437 68.3912 120.392C68.7271 119.783 69.1256 119.214 69.5631 118.629C70.2193 121.054 70.9771 123.378 73.274 124.844C73.36 124.166 73.3756 123.55 73.5084 122.965C73.9928 120.774 75.0475 118.902 76.899 117.584C78.4068 116.508 80.024 116.321 81.7037 117.233C81.9615 117.374 82.0084 117.499 81.8678 117.771C81.0318 119.393 80.4303 121.086 80.4146 122.934C80.3912 126.31 82.399 129.063 85.6256 130.092C87.4303 130.669 89.2271 130.708 91.0006 129.952C92.1803 129.453 93.0318 128.564 93.7662 127.558C94.7271 126.256 95.3521 124.805 95.4381 123.175C95.5474 121.093 94.7193 119.362 93.3287 117.857C91.6881 116.079 89.6412 114.902 87.4615 113.95C83.7428 112.329 79.8287 111.393 75.8365 110.746C73.7193 110.402 71.5943 110.098 69.4693 109.849C67.8209 109.654 66.1568 109.552 64.4928 109.42C63.9303 109.381 63.8756 109.435 63.7193 109.958C63.2193 111.572 62.5943 113.14 61.8209 114.645C60.1646 117.865 57.9537 120.641 55.1881 122.981C52.399 125.335 49.2428 127.074 45.8678 128.439C44.4303 129.024 43.0084 129.617 41.4693 129.882C38.1334 130.467 35.0396 129.85 32.2271 127.987C30.8287 127.059 30.0943 125.632 29.6725 124.049C28.86 120.984 29.3053 118.021 30.5475 115.151C31.985 111.829 34.3287 109.241 37.2271 107.119C40.1021 105.014 43.3131 103.579 46.6959 102.534C49.8209 101.567 53.024 100.959 56.274 100.624C56.7115 100.577 57.149 100.515 57.5943 100.483C57.8287 100.468 57.9146 100.366 57.9381 100.156C58.1803 97.4345 58.3678 94.713 58.2037 91.9837C58.0084 88.7242 57.899 85.4646 58.0475 82.2051C58.1725 79.507 58.4146 76.8089 59.2193 74.2122C59.5553 73.1127 60.0084 72.0366 60.5475 71.0228C61.4771 69.2839 63.0006 68.2702 64.9146 67.8413C66.6646 67.4436 68.3678 67.6151 69.9615 68.4495C72.1178 69.588 73.1568 71.4673 73.2193 73.8457C73.3131 77.8226 71.5318 80.856 68.2975 83.0862C67.2193 83.8271 66.0631 84.4197 64.8287 84.8408C64.5475 84.9344 64.4459 85.0825 64.4693 85.3788C64.6334 87.5701 64.774 89.7535 64.9303 91.9447C65.0474 93.6291 65.1881 95.3056 65.2662 96.9978C65.3209 98.0739 65.2896 99.15 65.2662 100.226C65.2584 100.577 65.3756 100.671 65.7271 100.717C67.8287 100.975 69.9303 101.216 72.024 101.567C75.735 102.183 79.3756 103.104 82.9459 104.289C86.36 105.427 89.6646 106.815 92.6803 108.819C94.36 109.935 95.899 111.213 97.1178 112.828C99.8287 116.43 100.196 120.345 98.2584 124.345C96.4303 128.112 93.5865 131.012 89.7975 132.899C88.2428 133.671 86.5709 134.046 84.8443 134.21C81.2662 134.545 77.7896 133.944 74.3678 132.985C71.5162 132.182 68.6959 131.262 65.8521 130.443C65.0318 130.209 64.1803 130.069 63.3287 129.967C61.9381 129.796 61.0631 130.42 60.2584 131.621C60.0084 131.987 60.0631 132.291 60.4068 132.595C60.6881 132.845 61.0084 133.04 61.3287 133.243C61.8443 133.57 62.3912 133.843 62.8912 134.202C64.524 135.364 64.7193 137.001 63.4068 138.514C62.6021 139.442 61.6021 139.988 60.3209 139.832C59.4303 139.723 58.774 139.216 58.3053 138.498C56.0787 135.13 56.6881 130.802 60.5709 128.595C63.0631 127.184 65.6881 127.106 68.3756 127.971C68.4303 128.01 68.5084 128.034 68.5787 128.057ZM56.2896 109.358C55.985 109.358 55.7975 109.35 55.6021 109.358C54.6334 109.428 53.6568 109.498 52.6881 109.568C50.0787 109.763 47.5006 110.153 44.9537 110.753C41.899 111.471 38.9537 112.445 36.2896 114.153C33.2975 116.072 32.0318 118.988 32.7662 122.364C33.3912 125.257 35.5709 127.012 38.5396 126.996C39.9303 126.989 41.235 126.622 42.5084 126.107C44.61 125.257 46.4928 124.033 48.2975 122.676C49.4693 121.803 50.5631 120.867 51.4459 119.682C53.2975 117.179 54.6256 114.418 55.6178 111.494C55.8443 110.824 56.0475 110.13 56.2896 109.358ZM38.3756 107.782C38.3912 107.806 38.4068 107.837 38.4225 107.86C38.4928 107.829 38.5553 107.806 38.6256 107.767C42.485 105.669 46.6412 104.476 50.9459 103.766C53.4381 103.353 55.9381 103.088 58.4615 102.955C61.2662 102.807 64.0553 102.909 66.8443 103.111C69.7193 103.314 72.5787 103.766 75.399 104.382C77.3521 104.804 79.2818 105.334 81.2037 105.88C84.1959 106.73 87.0709 107.907 89.9146 109.163C90.86 109.584 91.7896 110.059 92.7193 110.504C92.7037 110.441 92.6725 110.41 92.6256 110.387C90.8053 109.303 88.9381 108.313 87.0162 107.408C84.774 106.355 82.4693 105.466 80.1178 104.726C76.9693 103.727 73.7662 102.948 70.4771 102.527C68.4771 102.269 66.485 101.981 64.4693 101.957C62.3756 101.934 60.2818 101.942 58.1881 102.027C55.6178 102.129 53.0631 102.488 50.5475 103.033C47.1725 103.774 43.8756 104.741 40.8053 106.363C39.985 106.8 39.1881 107.307 38.3756 107.782ZM64.3287 82.0725C64.4693 82.0257 64.5631 82.0101 64.6334 81.9711C66.86 80.8014 68.4068 79.0547 69.0318 76.5984C69.3287 75.4287 69.3678 74.2278 68.8365 73.0893C68.5943 72.5746 68.2037 72.1925 67.6334 72.06C66.7662 71.8494 66.11 72.2549 65.5631 72.8553C64.6881 73.7989 64.3834 74.9842 64.3287 76.2241C64.2584 77.8304 64.2662 79.4446 64.2506 81.051C64.2506 81.3707 64.2975 81.6904 64.3287 82.0725ZM61.8678 72.1223C61.0006 73.4558 60.524 74.9452 60.1803 76.4892C59.5787 79.1795 59.4615 81.9166 59.4146 84.6536C59.3365 89.7847 59.3443 94.9157 59.3053 100.047C59.3053 100.289 59.3209 100.476 59.6256 100.429C59.8756 100.382 60.2818 100.6 60.2896 100.078C60.3365 97.2863 60.4224 94.4946 60.4146 91.703C60.4068 87.921 60.3053 84.1468 60.3053 80.3648C60.3053 79.2029 60.4459 78.0332 60.5709 76.8713C60.7584 75.2259 61.1256 73.6195 61.8678 72.1223ZM78.9771 119.152C78.9537 119.191 78.9303 119.237 78.9068 119.276C78.024 121.07 77.5865 122.965 77.7662 124.969C77.9615 127.129 78.9068 128.876 80.7584 130.092C82.2271 131.051 83.8678 131.363 85.5709 131.449C85.7662 131.457 85.9537 131.449 86.1256 131.449C85.0943 131.083 84.0553 130.763 83.0475 130.357C80.3834 129.266 78.9459 127.246 78.6412 124.4C78.4615 122.63 78.7037 120.906 78.9771 119.152ZM58.8521 109.319C58.1178 109.217 58.1178 109.217 57.9615 109.833C57.2037 112.757 56.0943 115.526 54.3131 117.998C54.274 118.052 54.2428 118.122 54.2115 118.185C56.4928 115.619 57.9459 112.633 58.8521 109.319Z" fill="#78756E"/>
<path d="M17.7105 78.1985C17.7027 73.6913 18.6558 69.4102 20.7886 65.4255C22.7808 61.7058 25.5152 58.6568 29.3589 56.8009C34.3746 54.3758 39.3433 54.6019 44.1402 57.3936C48.0152 59.6472 50.6168 63.0393 52.4293 67.063C53.5855 69.6285 54.2808 72.3188 54.5621 75.1183C55.1089 80.4989 54.3199 85.6611 51.8589 90.5114C49.9996 94.1843 47.4214 97.2566 43.7574 99.2373C38.2574 102.208 32.8121 101.935 27.5699 98.5745C24.1168 96.3599 21.7496 93.1939 20.0699 89.4977C18.7496 86.5813 17.9918 83.5245 17.7808 80.3351C17.7574 79.9764 17.7261 79.6099 17.7105 79.2512C17.7027 78.9003 17.7105 78.5494 17.7105 78.1985ZM45.6636 73.7693C45.6636 73.7069 45.6714 73.6445 45.6636 73.5821C45.4839 72.428 45.3433 71.2661 45.1246 70.1276C44.5699 67.2814 43.7183 64.5365 42.2652 62.0178C41.398 60.5206 40.3511 59.1637 38.8511 58.2358C37.9918 57.7055 37.0621 57.4248 36.0386 57.4794C34.7418 57.5495 33.6714 58.1188 32.7105 58.9454C31.3746 60.0995 30.4371 61.5421 29.6793 63.1095C27.6871 67.2112 26.9058 71.6014 26.6871 76.1086C26.5621 78.6118 26.6402 81.1149 26.9683 83.6102C27.3746 86.7684 28.0855 89.8408 29.4058 92.7494C30.2808 94.6833 31.3746 96.4691 33.0855 97.8103C35.0621 99.3699 37.5152 99.3543 39.4839 97.7947C40.9449 96.6328 41.9371 95.1278 42.7808 93.498C44.3199 90.5192 44.9527 87.3221 45.1011 84.008C45.2339 81.1539 44.8277 78.3934 43.7339 75.7421C43.0152 73.9876 41.9371 72.6074 40.0855 71.9211C37.7808 71.0634 35.2418 71.9445 34.1089 74.0734C33.4918 75.2353 33.3746 76.4751 33.5855 77.832C33.7496 77.7228 33.8589 77.6292 33.9839 77.5669C34.4839 77.3251 34.9683 77.021 35.4918 76.865C37.0152 76.4128 38.4839 77.1536 39.1011 78.6118C39.3902 79.2902 39.4449 79.992 39.4058 80.7094C39.3433 81.9181 38.5543 82.9864 37.4136 83.3997C35.8355 83.9768 34.0933 83.4465 32.898 82.0429C30.5464 79.2746 30.7261 75.0559 33.3355 72.3812C33.8902 71.812 34.5386 71.3441 35.1402 70.8372C35.0308 70.7748 34.8589 70.6969 34.7027 70.5799C32.8902 69.3088 32.1089 67.5387 32.273 65.3709C32.3668 64.1388 33.023 63.203 34.1949 62.6884C34.3121 62.6338 34.4449 62.6182 34.6011 62.5714C34.3043 63.6709 34.4449 64.2012 35.2183 64.981C35.4371 65.1993 35.6558 65.4333 35.9058 65.6126C37.1168 66.4626 38.3355 67.3048 39.5699 68.1313C41.8824 69.6987 44.1871 71.2661 45.6636 73.7693ZM27.6168 96.3599C27.0777 95.7594 26.5152 95.1824 26.0152 94.5586C22.148 89.6693 20.6402 84.0079 20.6402 77.8788C20.6402 76.4595 20.8043 75.0247 21.0074 73.6211C21.5386 70.0184 22.7496 66.6575 24.7339 63.5851C25.6011 62.2439 26.6168 61.0196 27.8043 59.8967C27.7418 59.9045 27.7105 59.8967 27.6949 59.9123C27.6168 59.9669 27.5464 60.0215 27.4761 60.0761C24.6871 62.2205 22.7183 64.9966 21.3511 68.2015C19.4839 72.584 18.9839 77.1536 19.6168 81.8557C20.1636 85.9028 21.5933 89.6147 24.0699 92.8898C25.0777 94.231 26.2418 95.4007 27.6168 96.3599ZM44.5464 96.3521C44.5543 96.3599 44.5621 96.3755 44.5777 96.3833C44.6558 96.3287 44.7418 96.2819 44.8199 96.2195C46.9293 94.5976 48.5621 92.5779 49.8121 90.2541C52.1402 85.9496 53.0308 81.3333 52.7339 76.4595C52.5621 73.7147 51.9839 71.0712 50.9449 68.5212C49.7027 65.48 47.9136 62.8209 45.4214 60.6531C45.1089 60.3802 44.7808 60.1385 44.4527 59.8811C44.4214 59.9123 44.3902 59.9513 44.3589 59.9825C44.7496 60.349 45.1558 60.6921 45.523 61.082C45.898 61.4797 46.2418 61.9008 46.5699 62.3453C49.7261 66.5873 51.2027 71.4143 51.4996 76.6389C51.6402 79.1264 51.4683 81.5984 50.9605 84.0391C50.1246 88.0707 48.5308 91.7591 45.8589 94.9329C45.4449 95.4241 44.9839 95.8764 44.5464 96.3521Z" fill="#78756E"/>
<path d="M105.04 78.0118C104.626 78.5031 104.227 78.9319 103.883 79.392C102.235 81.591 101.321 84.102 100.813 86.7689C100.352 89.1706 100.313 91.5958 100.422 94.0288C100.43 94.2627 100.469 94.4888 100.493 94.7618C100.321 94.7773 100.188 94.8085 100.055 94.8085C98.5709 94.8085 97.0866 94.8007 95.6022 94.8163C95.2584 94.8241 95.1959 94.6916 95.2037 94.3875C95.2506 91.3385 95.8912 88.4142 96.985 85.5836C98.0006 82.9557 99.3678 80.5383 101.321 78.4719C102.219 77.5205 103.219 76.7017 104.383 76.0311C103.852 74.6353 103.219 73.3174 102.376 72.1087C101.844 71.3445 101.235 70.6505 100.462 70.1281C98.9772 69.1377 97.5866 69.1923 96.1725 70.284C96.1022 70.3386 96.0241 70.3776 95.8756 70.479C95.8756 69.9253 95.8678 69.4262 95.8834 68.935C95.8834 68.8648 95.985 68.7868 96.0553 68.74C97.5006 67.7731 99.0084 66.9387 100.735 66.5722C103.368 66.0108 105.462 66.8919 107.118 68.9428C108.485 70.6349 109.391 72.5844 110.016 74.6431C110.915 77.5907 111.719 80.5773 112.524 83.5561C113.337 86.5817 114.172 89.5917 115.563 92.4146C116.446 94.2003 117.516 95.8457 119.102 97.1089C120.485 98.2085 122.071 98.8089 123.829 98.9415C124.204 98.9726 124.344 99.074 124.337 99.4717C124.313 100.563 124.337 100.563 123.243 100.54C120.594 100.485 118.008 100.088 115.618 98.8713C113.102 97.6002 111.313 95.5961 109.977 93.1632C108.626 90.699 107.774 88.0399 107.04 85.3418C106.399 83.0025 105.79 80.6553 105.172 78.3081C105.126 78.2301 105.094 78.1677 105.04 78.0118ZM101.696 67.7887C103.219 68.1084 104.36 68.9974 105.29 70.1826C106.43 71.6331 107.196 73.2862 107.727 75.0252C108.618 77.9338 109.43 80.8736 110.243 83.8135C110.922 86.262 111.602 88.7183 112.602 91.0577C113.493 93.1398 114.555 95.1049 116.297 96.6255C116.891 97.1479 117.743 97.6704 118.274 97.764C117.352 97.2493 116.633 96.5787 116.008 95.8067C114.852 94.3875 114.048 92.7655 113.501 91.0421C112.532 87.962 111.641 84.8584 110.758 81.7548C110.001 79.0957 109.337 76.4132 108.188 73.8867C107.438 72.2335 106.571 70.6505 105.227 69.3951C104.243 68.4749 103.079 67.8745 101.696 67.7887Z" fill="#78756E"/>
<path d="M114.703 71.9123C114.562 71.5224 114.406 71.1715 114.304 70.805C114.281 70.7192 114.375 70.5477 114.461 70.4853C114.851 70.2046 115.226 69.8848 115.656 69.6977C117.633 68.8243 119.672 68.6528 121.726 69.3858C123.39 69.9784 124.312 71.3119 124.312 73.082C124.312 80.0845 124.312 87.0871 124.312 94.0896C124.312 94.6277 124.289 94.6355 123.765 94.5887C122.898 94.5185 122.07 94.3314 121.312 93.8869C120.031 93.1305 119.265 91.9686 118.914 90.565C118.679 89.6292 118.523 88.6467 118.515 87.6875C118.476 83.0634 118.492 78.4392 118.5 73.815C118.5 73.0976 118.289 72.4582 117.836 71.9123C117.226 71.1793 116.281 70.9999 115.445 71.46C115.203 71.5692 114.984 71.733 114.703 71.9123ZM122.422 92.5768C121.242 91.8594 120.773 90.7209 120.554 89.4577C120.429 88.7481 120.383 88.0151 120.367 87.2898C120.343 85.3793 120.398 83.4689 120.351 81.5662C120.297 79.4763 120.148 77.3943 120.039 75.3044C120.023 74.9613 119.968 74.6182 119.929 74.2673C119.883 74.2673 119.836 74.2673 119.789 74.2673C119.656 76.4273 119.484 78.5873 119.414 80.7474C119.351 82.8762 119.375 85.0128 119.406 87.1417C119.429 88.4517 119.718 89.715 120.351 90.8847C120.812 91.7269 121.453 92.3585 122.422 92.5768Z" fill="#78756E"/>
<path d="M123.781 64.7055C123.781 66.3665 122.523 67.6298 120.883 67.622C119.258 67.6142 118.016 66.3509 118.016 64.7133C118.016 63.0524 119.258 61.8047 120.922 61.8047C122.555 61.8047 123.781 63.0524 123.781 64.7055ZM120.586 62.834C119.859 62.7404 119.359 63.0913 119.008 63.6294C118.539 64.3468 118.547 65.1032 119.023 65.8206C119.398 66.3899 119.945 66.655 120.641 66.6082C119.859 66.2183 119.367 65.6491 119.344 64.7367C119.328 63.8322 119.813 63.2473 120.586 62.834Z" fill="#78756E"/>
<path d="M111.039 132.153C111.352 132.714 111.617 133.198 111.883 133.681C112.367 134.57 112.836 135.467 113.344 136.348C113.539 136.684 113.531 136.886 113.164 137.042C113.062 137.089 112.969 137.151 112.82 137.237C111.781 135.288 110.75 133.369 109.711 131.42C109.992 131.241 110.234 131.053 110.5 130.936C110.602 130.89 110.797 130.952 110.898 131.03C112.242 132.075 113.57 133.136 114.906 134.196C114.789 133.736 114.648 133.237 114.539 132.73C114.281 131.553 114.047 130.367 113.789 129.19C113.734 128.948 113.797 128.792 114.023 128.683C114.234 128.581 114.422 128.449 114.672 128.301C115.945 130.071 117.211 131.825 118.5 133.619C118.352 133.728 118.219 133.814 118.109 133.907C117.883 134.102 117.727 134.063 117.547 133.814C116.641 132.512 115.719 131.225 114.797 129.931C114.75 129.868 114.711 129.806 114.664 129.743C115.023 131.42 115.383 133.089 115.734 134.75C115.773 134.937 115.82 135.186 115.734 135.335C115.547 135.646 115.297 135.639 115 135.397C113.727 134.344 112.43 133.284 111.039 132.153Z" fill="#78756E"/>
<path d="M120.969 123.167C121.875 122.294 122.75 121.459 123.664 120.586C125.031 121.997 126.367 123.385 127.719 124.789C127.859 124.68 127.977 124.586 128.148 124.454C128.664 125 129.172 125.545 129.68 126.083C129.32 126.661 129.203 126.676 128.781 126.239C128.562 126.013 128.367 125.772 128.125 125.506C127.742 125.857 127.422 126.154 127.109 126.458C126.547 126.996 126 127.557 125.422 128.08C125.18 128.298 125.203 128.446 125.414 128.649C125.594 128.821 125.727 129.039 125.906 129.203C126.203 129.468 126.156 129.671 125.852 129.873C125.797 129.912 125.75 129.951 125.719 129.975C125.18 129.429 124.648 128.883 124.102 128.329C124.437 128.111 124.281 127.783 124.187 127.44C123.875 126.372 123.187 125.538 122.461 124.734C121.977 124.228 121.492 123.721 120.969 123.167ZM122.234 123.276C123.359 124.391 124.57 125.592 125.039 127.362C125.711 126.645 126.328 125.998 126.953 125.327C125.859 124.196 124.711 123.019 123.516 121.787C123.086 122.294 122.68 122.762 122.234 123.276Z" fill="#78756E"/>
<path d="M144.633 59.6761C142.531 60.3701 140.469 61.0563 138.375 61.7503C138.281 61.5008 138.164 61.2981 138.148 61.0875C138.141 60.9861 138.297 60.8146 138.422 60.7756C139.711 60.3311 141.008 59.91 142.305 59.4889C142.641 59.3798 142.969 59.2628 143.305 59.1614C143.547 59.0912 143.609 58.9821 143.523 58.7325C143.273 58.0073 143.031 57.2821 142.805 56.5491C142.711 56.2528 142.539 56.3308 142.352 56.3932C140.75 56.9234 139.148 57.4537 137.539 57.9839C137.43 58.0229 137.32 58.0541 137.148 58.1009C137.055 57.8124 136.961 57.5394 136.852 57.2197C138.711 56.6115 140.531 56.011 142.367 55.4106C142.352 55.3092 142.352 55.2313 142.328 55.1611C142.234 54.9271 142.313 54.8102 142.563 54.7478C143.102 54.5996 143.633 54.4359 144.164 54.2565C144.453 54.1551 144.523 54.3267 144.594 54.5372C144.672 54.7556 144.672 54.9037 144.406 54.9817C144.117 55.0675 143.852 55.2001 143.563 55.2858C143.289 55.3638 143.227 55.4808 143.328 55.7615C143.75 56.9702 144.148 58.1945 144.555 59.411C144.578 59.4889 144.594 59.5513 144.633 59.6761Z" fill="#78756E"/>
<path d="M104.406 136.122C104.414 134.414 105.187 133.362 106.516 132.941C107.758 132.543 108.969 132.956 109.758 134.087C110.437 135.062 110.836 136.13 110.57 137.346C110.109 139.429 107.367 140.294 105.797 138.851C104.898 138.033 104.43 137.003 104.406 136.122ZM109.75 136.676C109.625 135.615 109.211 134.617 108.203 133.939C107.594 133.533 106.937 133.471 106.281 133.83C105.641 134.181 105.328 134.726 105.312 135.452C105.297 136.59 105.734 137.526 106.586 138.259C107.188 138.781 107.891 138.898 108.625 138.555C109.383 138.212 109.711 137.58 109.75 136.676Z" fill="#78756E"/>
<path d="M141.141 101.723C139.821 101.692 138.688 101.239 137.899 100.156C137.18 99.1652 137.196 98.0891 137.735 97.0286C138.251 96.0304 139.126 95.5859 140.227 95.5859C141.618 95.5859 142.829 96.0538 143.633 97.2235C144.313 98.2138 144.243 99.2978 143.696 100.327C143.165 101.333 142.258 101.739 141.141 101.723ZM141.235 100.811C141.383 100.787 141.633 100.772 141.876 100.709C143.344 100.343 143.844 98.6817 142.798 97.5978C141.969 96.74 140.938 96.3735 139.743 96.5607C139.008 96.6776 138.477 97.0753 138.204 97.785C137.938 98.4946 138.126 99.1106 138.618 99.6487C139.29 100.397 140.149 100.756 141.235 100.811Z" fill="#78756E"/>
<path d="M141.633 51.6298C140.492 51.5752 139.359 52.121 138.187 51.5362C138.172 51.661 138.156 51.7545 138.156 51.8481C138.172 52.5421 137.883 53.0568 137.25 53.3531C136.602 53.6572 135.945 53.6338 135.383 53.166C134.586 52.5031 134.258 51.5674 133.992 50.6082C133.969 50.5225 134.164 50.3119 134.297 50.2495C135.531 49.6413 136.773 49.0486 138.016 48.456C138.484 48.2299 138.961 48.0193 139.422 47.7776C139.68 47.6372 139.852 47.6372 139.953 47.9491C140 48.0973 140.086 48.2299 140.18 48.4248C139.328 48.8381 138.492 49.2436 137.664 49.6491C137.953 50.5692 138.32 51.0917 139.477 50.9202C139.852 50.8656 140.227 50.8266 140.594 50.7798C141.281 50.6862 141.5 50.85 141.633 51.6298ZM136.945 50C136.523 50.1949 136.117 50.3899 135.711 50.5848C134.805 51.0293 134.766 51.1853 135.359 52.0197C135.43 52.1132 135.5 52.2068 135.578 52.2926C135.922 52.6513 136.328 52.7371 136.789 52.5499C137.227 52.3706 137.461 52.0509 137.5 51.5752C137.539 50.9747 137.258 50.4991 136.945 50Z" fill="#78756E"/>
<path d="M147.18 76.1325C146.29 76.1325 145.43 76.1403 144.571 76.1247C144.251 76.1169 144.165 76.2573 144.173 76.5458C144.204 77.31 144.227 78.0742 144.235 78.8384C144.235 79.1347 144.337 79.2205 144.626 79.2127C145.383 79.1893 146.133 79.2049 146.891 79.1893C147.149 79.1815 147.321 79.2205 147.298 79.5402C147.274 79.8054 147.36 80.1017 146.915 80.0783C146.524 80.0549 146.133 80.0861 145.743 80.0939C144.274 80.1173 142.805 80.1485 141.329 80.1641C141.04 80.1719 140.673 80.2888 140.704 79.7508C140.735 79.2751 140.704 79.2751 141.344 79.2673C141.907 79.2595 142.462 79.2439 143.024 79.2439C143.313 79.2439 143.446 79.1425 143.43 78.8306C143.391 78.043 143.376 77.2476 143.368 76.4523C143.368 76.2027 143.274 76.1091 143.016 76.1169C142.352 76.1403 141.688 76.1403 141.024 76.1715C140.774 76.1871 140.641 76.1169 140.68 75.8596C140.719 75.6179 140.501 75.2436 141.008 75.2436C141.883 75.2436 142.751 75.228 143.626 75.2124C144.641 75.1968 145.657 75.1656 146.673 75.15C147.219 75.1422 147.219 75.1422 147.212 75.7036C147.212 75.8128 147.196 75.9142 147.18 76.1325Z" fill="#78756E"/>
<path d="M123.797 129.564C123.578 129.743 123.398 129.915 123.195 130.032C123.101 130.086 122.922 130.055 122.812 129.993C122.351 129.72 121.914 129.416 121.453 129.15C121.351 129.096 121.148 129.088 121.062 129.15C120.586 129.494 120.14 129.876 119.68 130.227C119.5 130.367 119.484 130.499 119.562 130.694C119.711 131.084 119.844 131.474 119.976 131.864C120.195 132.496 120.14 132.613 119.437 132.901C119.219 132.293 119 131.685 118.781 131.077C118.265 129.634 117.765 128.191 117.234 126.756C117.133 126.484 117.18 126.328 117.414 126.172C118.101 125.712 117.851 125.688 118.547 126.133C120.203 127.185 121.844 128.254 123.492 129.322C123.586 129.384 123.672 129.462 123.797 129.564ZM119.172 129.642C119.672 129.252 120.117 128.901 120.594 128.527C119.742 127.965 118.945 127.45 118.14 126.92C118.484 127.809 118.812 128.683 119.172 129.642Z" fill="#78756E"/>
<path d="M133.992 112.023C133.968 111.891 133.953 111.758 133.906 111.633C133.593 110.807 133.32 109.964 132.937 109.169C132.648 108.576 132.835 108.163 133.273 107.688C133.71 108.873 134.124 110.019 134.546 111.15C134.601 111.15 134.632 111.158 134.648 111.15C135.312 110.495 136.124 110.448 136.976 110.604C137.609 110.721 138.242 110.869 138.874 110.994C138.726 111.664 138.468 111.844 137.828 111.727C137.288 111.625 136.757 111.493 136.218 111.446C135.413 111.384 134.945 111.703 134.578 112.507C135.179 112.873 135.781 113.247 136.382 113.622C136.468 113.676 136.562 113.731 136.648 113.785C137.117 114.074 137.101 114.074 136.812 114.542C136.679 114.76 136.562 114.815 136.328 114.667C134.648 113.63 132.96 112.6 131.265 111.579C130.828 111.314 131.203 111.103 131.281 110.877C131.39 110.581 131.562 110.698 131.742 110.807C132.343 111.173 132.945 111.524 133.554 111.883C133.663 111.945 133.781 112 133.89 112.062C133.921 112.062 133.953 112.039 133.992 112.023Z" fill="#78756E"/>
<path d="M147.273 81.4023C147.241 81.7143 147.249 81.9794 147.179 82.2211C147.155 82.3147 146.983 82.4083 146.858 82.4395C146.382 82.572 145.905 82.689 145.421 82.7904C145.171 82.8372 145.069 82.9697 145.054 83.2115C145.023 83.7651 144.96 84.3266 144.952 84.8802C144.952 85.005 145.085 85.1843 145.202 85.2389C145.632 85.4495 146.077 85.6288 146.53 85.7926C146.827 85.9017 146.96 86.0499 146.851 86.3696C146.804 86.51 146.804 86.6737 146.78 86.8687C146.648 86.8219 146.538 86.7985 146.437 86.7517C144.554 85.9329 142.679 85.0986 140.788 84.3032C140.351 84.116 140.476 83.8197 140.468 83.5078C140.46 83.1959 140.593 83.0555 140.898 82.9775C142.874 82.4863 144.851 81.9794 146.819 81.4803C146.944 81.4569 147.069 81.4413 147.273 81.4023ZM144.351 83.0165C143.358 83.2582 142.421 83.4766 141.429 83.7183C142.374 84.1082 143.257 84.4747 144.187 84.8646C144.241 84.2252 144.288 83.6637 144.351 83.0165Z" fill="#78756E"/>
<path d="M144.992 60.9648C145.062 61.2612 145.148 61.4795 145.148 61.7056C145.148 61.8226 145.038 61.9864 144.929 62.0566C144.507 62.3373 144.077 62.6024 143.64 62.8597C143.445 62.9767 143.382 63.0937 143.445 63.3354C143.577 63.8501 143.679 64.3725 143.781 64.895C143.827 65.1289 143.929 65.2537 144.195 65.2693C144.585 65.2849 144.968 65.3629 145.359 65.3941C146.093 65.4643 146.109 65.4799 146.195 66.3064C146.085 66.3064 145.968 66.3142 145.867 66.3064C143.992 66.1115 142.117 65.9165 140.242 65.7294C140.124 65.7138 140.007 65.6826 139.89 65.6904C139.452 65.7294 139.249 65.5656 139.156 65.1056C139.077 64.7079 139.148 64.5129 139.507 64.3024C141.171 63.312 142.82 62.2905 144.468 61.2768C144.617 61.1754 144.773 61.0896 144.992 60.9648ZM142.71 63.3822C141.835 63.9125 141.031 64.3959 140.179 64.9106C141.179 65.0042 142.124 65.09 143.124 65.1835C142.976 64.5441 142.851 64.006 142.71 63.3822Z" fill="#78756E"/>
<path d="M141.696 105.406C141.633 105.57 141.586 105.679 141.555 105.788C141.438 106.186 141.188 106.287 140.789 106.209C140.336 106.116 139.867 106.069 139.399 106.03C139.297 106.022 139.141 106.092 139.094 106.178C138.797 106.724 138.516 107.278 138.258 107.847C138.211 107.94 138.282 108.143 138.367 108.229C138.68 108.556 139 108.884 139.36 109.165C139.672 109.414 139.75 109.648 139.508 109.976C139.438 110.069 139.399 110.178 139.321 110.311C139.227 110.241 139.133 110.194 139.071 110.124C137.578 108.658 136.102 107.176 134.602 105.726C134.297 105.429 134.5 105.219 134.61 104.969C134.727 104.712 134.828 104.517 135.203 104.572C137.25 104.845 139.297 105.086 141.344 105.336C141.446 105.344 141.539 105.375 141.696 105.406ZM137.563 107.59C137.883 106.95 138.133 106.435 138.422 105.874C137.407 105.726 136.477 105.601 135.68 105.484C136.242 106.116 136.867 106.81 137.563 107.59Z" fill="#78756E"/>
<path d="M130.461 116.168C130.922 115.669 131.289 115.169 131.758 114.803C132.555 114.179 133.437 114.203 134.172 114.741C134.937 115.302 135.211 116.136 134.906 117.088C134.648 117.907 134.109 118.569 133.555 119.209C133.359 119.435 133.211 119.263 133.055 119.154C131.664 118.148 130.281 117.142 128.891 116.136C128.633 115.949 128.367 115.754 128.07 115.536C128.258 115.286 128.422 115.06 128.609 114.811C129.266 115.294 129.883 115.739 130.461 116.168ZM131.187 116.69C131.898 117.189 132.609 117.696 133.32 118.195C133.961 117.727 134.328 116.838 134.148 116.246C133.984 115.715 133.477 115.294 132.961 115.271C132.289 115.24 131.539 115.832 131.187 116.69Z" fill="#78756E"/>
<path d="M143.126 92.5387C143.055 92.9208 142.993 93.303 142.907 93.6773C142.852 93.9034 142.899 94.0048 143.141 94.0515C143.79 94.1841 144.43 94.3479 145.079 94.4804C145.305 94.5272 145.344 94.613 145.297 94.8235C145.157 95.4396 145.165 95.4474 144.532 95.2992C142.735 94.8859 140.938 94.4726 139.141 94.0749C138.86 94.0126 138.758 93.8956 138.813 93.6227C138.93 93.0534 139.008 92.4686 139.172 91.9149C139.501 90.7998 140.352 90.215 141.329 90.3787C142.501 90.5659 143.086 91.2911 143.126 92.5387ZM142.321 92.6479C142.336 91.9305 141.954 91.447 141.243 91.2833C140.672 91.1507 140.141 91.4626 139.868 92.1177C139.766 92.3672 139.735 92.6479 139.657 92.9053C139.586 93.1392 139.68 93.2406 139.899 93.2874C140.352 93.3887 140.805 93.5057 141.258 93.6227C142.126 93.8332 142.243 93.7474 142.313 92.8429C142.329 92.7805 142.321 92.7181 142.321 92.6479Z" fill="#78756E"/>
<path d="M101.406 139.504C101.64 140.159 101.859 140.767 102.078 141.376C102.265 141.906 102.273 141.906 101.758 142.077C101.664 142.109 101.562 142.132 101.429 142.171C101.211 141.602 101 141.048 100.797 140.487C100.312 139.161 99.8357 137.828 99.3279 136.502C99.2185 136.206 99.2576 136.05 99.5388 135.917C100.281 135.566 101.008 135.2 101.859 135.184C102.711 135.168 103.273 135.558 103.594 136.315C103.922 137.095 103.898 137.89 103.258 138.475C102.836 138.865 102.25 139.083 101.734 139.372C101.64 139.418 101.547 139.45 101.406 139.504ZM102.984 137.321C102.883 136.377 102.226 135.831 101.367 136.018C101.101 136.073 100.851 136.182 100.594 136.268C100.351 136.354 100.281 136.494 100.383 136.751C100.586 137.243 100.758 137.742 100.945 138.241C101.156 138.794 101.164 138.81 101.711 138.6C101.969 138.498 102.25 138.366 102.437 138.163C102.664 137.921 102.804 137.601 102.984 137.321Z" fill="#78756E"/>
<path d="M146 71.304C146 70.6568 146.07 70.0719 145.984 69.5105C145.867 68.7697 145.305 68.4031 144.656 68.4889C144.063 68.5669 143.695 69.0582 143.68 69.7912C143.672 70.1109 143.68 70.4306 143.68 70.7971C143.508 70.8127 143.305 70.8361 143.063 70.8595C143.024 70.6723 142.984 70.493 142.945 70.3214C142.852 69.9004 142.656 69.5416 142.281 69.2999C141.961 69.0894 141.617 69.0816 141.281 69.2531C140.953 69.4169 140.789 69.6976 140.781 70.0719C140.774 70.571 140.797 70.6801 141.328 71.6549C140.938 72.0916 140.742 72.0994 140.453 71.6237C140.055 70.9687 139.883 70.2669 140.031 69.5027C140.164 68.8632 140.5 68.4109 141.156 68.255C141.844 68.0912 142.414 68.2862 142.859 68.832C142.922 68.91 142.984 68.9958 143.078 69.1128C143.117 69.0192 143.149 68.9568 143.156 68.8866C143.266 68.1848 143.656 67.7325 144.352 67.561C145.117 67.3738 145.797 67.561 146.25 68.216C146.867 69.1128 146.961 70.1187 146.68 71.1558C146.656 71.2494 146.469 71.3352 146.352 71.3508C146.219 71.3898 146.063 71.3196 146 71.304Z" fill="#78756E"/>
<path d="M128.141 116.945C127 117.67 126.125 118.536 126.492 120.002C126.758 121.062 127.938 122.091 128.938 122.154C130.438 122.24 131.141 121.21 131.742 120.072C132.375 120.165 132.469 120.321 132.188 120.859C131.844 121.507 131.422 122.099 130.813 122.528C129.969 123.121 129.032 123.292 128.078 122.91C126.664 122.349 125.719 121.343 125.555 119.775C125.469 118.964 125.735 118.2 126.258 117.569C126.578 117.186 126.969 116.859 127.344 116.524C127.617 116.274 127.852 116.321 127.992 116.68C128.024 116.758 128.078 116.836 128.141 116.945Z" fill="#78756E"/>
<path d="M97.0703 143.498C96.4766 141.377 95.8906 139.311 95.2891 137.174C96.4141 136.839 97.5156 136.511 98.6172 136.184C98.6641 136.262 98.6953 136.301 98.7109 136.347C98.9531 136.924 98.9453 136.932 98.3438 137.104C97.8047 137.252 97.2734 137.423 96.7266 137.556C96.4375 137.626 96.3828 137.751 96.4688 138.024C96.9297 139.591 97.375 141.166 97.8281 142.734C97.9766 143.233 97.9766 143.233 97.4609 143.389C97.3438 143.42 97.2344 143.451 97.0703 143.498Z" fill="#78756E"/>
<path d="M146.374 89.2164C146.312 90.3081 146.335 90.0742 145.499 89.9572C143.71 89.6999 141.929 89.4114 140.148 89.154C139.882 89.115 139.781 89.0215 139.827 88.7563C139.968 87.805 140.117 86.8614 140.242 85.9101C140.288 85.5514 140.515 85.6605 140.734 85.6761C140.984 85.6917 141.085 85.7931 141.038 86.0504C140.945 86.6275 140.859 87.2045 140.765 87.7816C140.679 88.2806 140.718 88.3352 141.21 88.4054C142.804 88.6472 144.398 88.8889 145.984 89.1306C146.101 89.1462 146.226 89.1852 146.374 89.2164Z" fill="#78756E"/>
<path d="M135.977 55.1154C136.719 54.8113 137.422 54.5305 138.125 54.242C139.328 53.7508 140.531 53.2751 141.727 52.7526C142.164 52.5577 142.18 52.8696 142.312 53.1113C142.477 53.4154 142.328 53.509 142.07 53.6104C140.328 54.3122 138.586 55.0374 136.844 55.747C136.328 55.9576 136.328 55.9576 136.102 55.4351C136.062 55.3571 136.031 55.2714 135.977 55.1154Z" fill="#78756E"/>
<path d="M140.477 73.1276C141.422 73.0418 142.344 72.9638 143.258 72.8859C144.305 72.8001 145.359 72.7221 146.406 72.6207C147.047 72.5583 147.055 72.5505 147.055 73.2134C147.055 73.2913 147.039 73.3615 147.023 73.4707C146.555 73.5175 146.094 73.5721 145.625 73.6111C144.031 73.7436 142.438 73.8606 140.844 73.9932C140.586 74.0166 140.477 73.9386 140.477 73.689C140.477 73.5253 140.477 73.3615 140.477 73.1276Z" fill="#78756E"/>
</g>
<defs>
<clipPath id="clip0_1100_7091">
<rect width="160" height="159" fill="white"/>
</clipPath>
</defs>
</svg>
