<svg width="213" height="164" viewBox="0 0 213 164" fill="none" xmlns="http://www.w3.org/2000/svg">
<path fill-rule="evenodd" clip-rule="evenodd" d="M106.494 3.75C79.9822 3.75 58.4902 25.242 58.4902 51.7536C58.4902 78.2653 79.9822 99.7572 106.494 99.7572C108.324 99.7572 110.131 99.6548 111.908 99.4553L98.5807 56.9403L89.5402 69.8579C88.9465 70.7063 87.7774 70.9127 86.929 70.3189C86.0806 69.7252 85.8741 68.5561 86.4679 67.7077L97.1647 52.4234L91.4569 34.215L80.5323 48.1974C79.8947 49.0135 78.7164 49.1581 77.9004 48.5206C77.0844 47.883 76.9397 46.7047 77.5773 45.8887L90.673 29.1274C90.7331 29.0467 90.8001 28.9702 90.8739 28.8988C91.0641 28.7147 91.2871 28.5765 91.5266 28.4878C91.9473 28.3323 92.4168 28.3303 92.8444 28.4929L124.487 39.5629C125.465 39.9049 125.98 40.9745 125.638 41.9519C125.296 42.9294 124.226 43.4445 123.249 43.1026L95.0842 33.2493L100.851 51.6445L119.078 57.6404C120.062 57.964 120.597 59.0237 120.273 60.0074C119.95 60.9911 118.89 61.5262 117.906 61.2026L102.23 56.046L115.659 98.8834C137.787 94.6057 154.497 75.1312 154.497 51.7536C154.497 25.242 133.006 3.75 106.494 3.75ZM54.7402 51.7536C54.7402 23.1709 77.9111 0 106.494 0C135.077 0 158.247 23.1709 158.247 51.7536C158.247 80.3364 135.077 103.507 106.494 103.507C77.9111 103.507 54.7402 80.3364 54.7402 51.7536ZM146.756 161.625C147.009 161.805 147.299 161.896 147.625 161.896H147.734C148.096 161.896 148.385 161.787 148.603 161.571C148.82 161.39 148.947 161.138 148.983 160.813L149.092 158.81C149.128 158.161 149.164 157.222 149.2 155.995C149.236 154.804 149.255 153.758 149.255 152.856C149.255 152.098 149.073 151.557 148.711 151.232C148.349 150.871 147.77 150.672 146.973 150.636C146.502 150.636 146.122 150.654 145.833 150.691H145.018C144.873 148.417 144.782 146.883 144.746 146.089V146.631C144.71 145.115 144.638 142.842 144.529 139.81C144.42 136.743 144.348 134.975 144.312 134.505V131.853V126.657C144.312 125.177 144.33 123.445 144.366 121.46C144.402 119.439 144.438 117.905 144.475 116.859C144.511 116.642 144.547 116.3 144.583 115.83C144.656 115.325 144.692 114.892 144.692 114.531C144.692 113.485 144.366 112.799 143.714 112.474C143.425 112.33 143.135 112.258 142.845 112.258C142.374 112.258 142.049 112.456 141.867 112.853C141.614 113.322 141.487 114.08 141.487 115.127L141.542 116.588C141.542 118.826 141.578 121.713 141.65 125.249L141.976 138.24C141.976 139.107 142.012 140.478 142.085 142.354C142.193 144.123 142.248 145.927 142.248 147.767V150.961L137.794 151.557C137.576 150.763 137.432 150.095 137.359 149.554C137.287 149.012 137.251 148.453 137.251 147.876C137.251 147.659 137.214 147.046 137.142 146.035C136.78 141.885 136.544 138.944 136.436 137.212C136.327 135.48 136.273 133.387 136.273 130.933C136.273 128.768 136.291 126.963 136.327 125.52C136.327 124.545 136.345 123.715 136.381 123.03C136.418 122.308 136.454 121.695 136.49 121.189C136.599 119.782 136.653 118.357 136.653 116.913C136.653 115.722 136.472 114.694 136.11 113.828C136.001 113.611 135.693 113.431 135.186 113.286C134.68 113.106 134.317 113.052 134.1 113.124C133.847 113.196 133.684 113.322 133.611 113.503C133.539 113.647 133.503 113.846 133.503 114.098V114.585C133.611 116.318 133.666 117.851 133.666 119.187V121.081L133.72 123.571C133.829 127.108 134.028 132.449 134.317 139.594C134.426 142.12 134.625 145.909 134.915 150.961C134.915 151.647 135.078 152.296 135.404 152.91C135.766 153.487 136.345 153.722 137.142 153.614C138.518 153.505 140.166 153.397 142.085 153.289C144.004 153.144 145.47 153.054 146.484 153.018C146.484 154.353 146.466 155.454 146.43 156.32L146.376 160.975C146.376 161.228 146.502 161.444 146.756 161.625ZM21.4008 161.896C21.4008 162.689 21.781 163.141 22.5415 163.249C23.4468 163.321 23.9899 162.96 24.171 162.166C24.2072 162.022 24.2253 161.697 24.2253 161.192L24.171 159.297C24.2434 157.565 24.3158 156.248 24.3883 155.346C24.4607 154.191 24.5874 153.162 24.7685 152.26C24.8771 151.936 24.9314 151.647 24.9314 151.394C24.9314 150.817 24.5512 150.456 23.7908 150.312C23.1028 150.167 21.8173 150.095 19.9343 150.095V148.958V148.146C19.9705 147.785 19.9705 147.37 19.9343 146.901L19.6084 142.138C19.4635 140.55 19.3368 138.565 19.2282 136.184C19.0471 131.637 18.9204 126.693 18.8479 121.352L18.7936 118.699C18.7936 117.292 18.9385 116.155 19.2282 115.289C19.3006 115.073 19.3368 114.91 19.3368 114.802C19.3368 114.441 19.1919 114.134 18.9023 113.882C18.6488 113.629 18.3048 113.485 17.8702 113.449C17.5805 113.413 17.3452 113.431 17.1641 113.503C16.9831 113.575 16.8201 113.719 16.6753 113.936C16.2769 114.585 16.0778 115.65 16.0778 117.13V118.862L16.295 123.355C16.4399 125.484 16.5304 127.035 16.5666 128.01C16.7839 134.072 16.965 140.243 17.1098 146.522C17.146 146.992 17.1279 147.731 17.0555 148.742L17.0012 150.528C17.0012 150.564 16.4761 150.618 15.426 150.691C13.4706 150.763 12.3842 150.871 12.167 151.015C12.2032 150.763 12.2213 150.275 12.2213 149.554C12.2213 147.569 12.0945 145.404 11.8411 143.058C11.5152 138.619 11.3522 135.137 11.3522 132.611L11.4065 129.58V121.352C11.4427 120.522 11.4608 120.053 11.4608 119.944C11.4971 119.692 11.5152 117.887 11.5152 114.531C11.5152 113.99 11.3341 113.557 10.972 113.232C10.6099 112.907 10.1572 112.745 9.61408 112.745C9.14333 112.745 8.79932 112.835 8.58206 113.016C8.401 113.16 8.31047 113.431 8.31047 113.828V114.044C8.38289 116.642 8.45532 118.573 8.52774 119.836L8.90796 129.255L9.34249 139.756C9.52355 144.375 9.61408 148.182 9.61408 151.178C8.60016 151.322 7.85783 151.394 7.38709 151.394C6.40938 151.394 5.54031 151.232 4.77988 150.907C4.70746 148.597 4.63503 146.901 4.56261 145.819L4.18239 140.027L4.01944 137.483C3.8746 135.859 3.78407 134.614 3.74786 133.748C3.71165 133.242 3.69354 132.467 3.69354 131.42V129.147L3.74786 126.386C3.82028 124.654 3.85649 123.228 3.85649 122.11L3.80218 119.944C3.80218 117.671 3.74786 115.975 3.63923 114.856C3.49438 113.629 2.78826 113.016 1.52087 113.016C0.977703 113.016 0.579379 113.088 0.325901 113.232C0.108633 113.34 0 113.557 0 113.882C0 114.098 0.0181056 114.279 0.0543168 114.423C0.235373 115.145 0.344006 116.065 0.380218 117.184C0.416429 118.302 0.434534 118.988 0.434534 119.241V120.756L0.814752 128.876C0.814752 129.886 0.832858 130.662 0.869069 131.204C0.869069 132.791 0.887174 133.946 0.923386 134.668C0.959597 135.534 1.05013 136.743 1.19497 138.295L1.35792 140.676C1.46655 142.372 1.6295 146.017 1.84677 151.611C1.84677 152.152 1.95541 152.567 2.17267 152.856C2.42615 153.144 2.84258 153.343 3.42196 153.451C5.37736 153.704 7.04308 153.83 8.41911 153.83C9.46923 153.83 10.5013 153.776 11.5152 153.668C15.3536 153.235 18.2323 152.928 20.1515 152.747C20.3688 152.711 20.6223 152.711 20.912 152.747H21.6181C21.6181 155.526 21.6 157.24 21.5638 157.89C21.6 157.673 21.5457 159.009 21.4008 161.896ZM30.1484 153.776C30.5467 154.101 30.9812 154.263 31.452 154.263H36.0689C36.7207 154.263 37.2639 154.119 37.6984 153.83C38.1692 153.577 38.4045 153.199 38.4045 152.693C38.4045 151.827 37.7165 151.394 36.3405 151.394C35.4714 151.394 34.7291 151.412 34.1135 151.448L32.321 151.502C32.2486 151.502 32.2124 150.492 32.2124 148.471C32.2124 147.389 32.2667 145.747 32.3754 143.545C32.4116 142.102 32.4297 140.478 32.4297 138.674C32.4297 136.869 32.3935 135.498 32.321 134.56H33.679C34.0411 134.632 34.548 134.668 35.1998 134.668C35.7068 134.668 36.1232 134.542 36.4491 134.289C36.775 134 36.938 133.657 36.938 133.26C36.938 132.25 36.0689 131.745 34.3308 131.745C33.8962 131.745 33.5341 131.763 33.2444 131.799L32.3754 131.853L32.2124 130.987C32.2124 130.121 32.2667 128.822 32.3754 127.09C32.4116 125.935 32.4297 124.636 32.4297 123.192C32.4297 122.182 32.4116 121.406 32.3754 120.865C33.6065 121.045 34.9826 121.406 36.5034 121.947C36.938 121.767 37.3001 121.532 37.5898 121.243C37.9157 120.919 38.0786 120.576 38.0786 120.215C38.0786 119.565 37.282 119.006 35.6887 118.537C34.1316 118.068 32.7556 117.833 31.5606 117.833C30.0397 117.833 29.2793 119.114 29.2793 121.677C29.2793 122.146 29.3336 122.903 29.4423 123.95C29.5509 124.96 29.6052 125.718 29.6052 126.223C29.6052 128.353 29.5328 130.987 29.3879 134.127C29.2793 137.627 29.225 140.261 29.225 142.03L29.3336 145.494C29.4423 147.046 29.4966 148.201 29.4966 148.958C29.4966 149.391 29.5147 149.77 29.5509 150.095V151.178V152.585C29.5871 153.054 29.7863 153.451 30.1484 153.776ZM46.6704 153.938C46.1997 152.026 45.9643 149.373 45.9643 145.981L46.073 141.164C46.1454 139.72 46.1816 138.114 46.1816 136.346C45.9643 135.841 45.8557 135.39 45.8557 134.993V134.83C46.2178 134.145 46.3989 132.593 46.3989 130.175L46.4532 127.685C46.4894 126.891 46.5075 126.007 46.5075 125.033C46.5075 122.903 46.3626 121.225 46.073 119.998C46.1816 119.493 46.3626 119.06 46.6161 118.699C46.8696 118.302 47.1774 118.104 47.5395 118.104H49.9295C50.9434 118.104 51.8305 118.338 52.591 118.808C53.3514 119.241 53.9308 119.872 54.3291 120.702C55.0533 122.182 55.4155 123.932 55.4155 125.953C55.4155 127.396 55.3974 128.533 55.3611 129.363C55.2887 130.41 55.1077 131.366 54.818 132.232C54.7093 132.701 54.5464 133.098 54.3291 133.423C54.1481 133.712 53.8765 134.072 53.5144 134.505C53.0074 135.119 52.1745 135.696 51.0158 136.238C50.545 136.49 49.9295 136.725 49.169 136.941V142.733L49.2777 146.198L49.3863 147.876C49.5311 149.897 49.6036 151.611 49.6036 153.018C49.6036 153.451 49.4225 153.812 49.0604 154.101C48.6983 154.426 48.2818 154.588 47.8111 154.588L46.6704 153.938ZM49.2233 134.722C51.3598 134.397 52.428 131.348 52.428 125.574C52.428 124.527 52.3737 123.715 52.2651 123.138C52.1564 122.705 52.0116 122.362 51.8305 122.11C51.6495 121.821 51.3779 121.586 51.0158 121.406C50.6175 121.189 50.1829 121.081 49.7122 121.081C49.7122 121.045 49.513 121.027 49.1147 121.027V124.112C49.1147 126.242 49.1328 128.136 49.169 129.796C49.169 131.673 49.1871 132.9 49.2233 133.477V134.614V134.722ZM62.3273 151.827C62.2548 153.054 62.798 153.632 63.9568 153.559C64.3551 153.559 64.7353 153.505 65.0974 153.397C65.4958 153.253 65.8941 153.054 66.2924 152.802C66.7269 152.549 67.0528 152.351 67.2701 152.206C69.1893 151.087 70.4024 149.355 70.9093 147.01C71.1266 145.855 71.2352 144.736 71.2352 143.654C71.2352 141.957 71.0361 140.37 70.6377 138.89C70.3119 137.014 69.6963 135.696 68.791 134.939C67.8857 134.181 66.6002 133.712 64.9345 133.531L65.4233 120.161C67.9581 119.872 69.6057 119.62 70.3662 119.403C70.7283 119.295 71.018 119.114 71.2352 118.862C71.4525 118.573 71.5249 118.284 71.4525 117.996C71.3801 117.635 71.1447 117.31 70.7464 117.021C70.3481 116.697 69.9859 116.606 69.66 116.751C68.791 116.931 67.8857 117.057 66.9442 117.13C66.0389 117.202 65.0974 117.256 64.1197 117.292C63.4317 117.328 62.8523 117.581 62.3816 118.05C61.9471 118.519 61.7298 119.06 61.7298 119.674C61.7298 119.818 61.766 120.035 61.8384 120.323C62.0557 121.045 62.1824 121.731 62.2186 122.38C62.2911 123.03 62.3273 123.842 62.3273 124.816V126.169V131.258C62.3273 133.531 62.3454 135.245 62.3816 136.4C62.4178 137.302 62.4359 138.637 62.4359 140.406V144.411C62.4359 146.071 62.4178 147.298 62.3816 148.092L62.3273 151.827ZM66.9985 149.337C66.4191 149.987 65.7673 150.42 65.0431 150.636V136.184C65.9846 136.22 66.6726 136.49 67.1071 136.995C67.5779 137.465 67.9219 138.132 68.1392 138.998C68.4651 140.334 68.628 141.705 68.628 143.112C68.628 144.447 68.4651 145.819 68.1392 147.226C67.9581 147.984 67.5779 148.688 66.9985 149.337ZM88.3713 154.047C87.5385 154.047 86.9229 153.92 86.5246 153.668C86.1262 153.415 85.9271 152.946 85.9271 152.26C85.9271 151.178 85.746 149.337 85.3839 146.739L85.1666 145.602L79.7893 144.79C79.572 145.62 79.2642 147.298 78.8659 149.824C78.6486 151.593 78.3046 152.766 77.8339 153.343C77.5804 153.668 77.2183 153.83 76.7475 153.83C76.313 153.83 75.9147 153.704 75.5526 153.451C75.1905 153.162 75.0094 152.82 75.0094 152.423L75.118 152.152L75.1723 151.936C77.5623 142.661 79.3728 133.513 80.604 124.491C80.604 124.347 80.6221 124.112 80.6583 123.788C80.6945 123.427 80.7308 122.922 80.767 122.272C80.8756 120.937 80.9842 119.872 81.0929 119.078C81.2377 118.284 81.455 117.689 81.7447 117.292H83.5915C84.0984 117.292 84.5329 117.418 84.8951 117.671C85.2572 117.887 85.4382 118.212 85.4382 118.645C85.4382 121.388 85.8184 125.466 86.5789 130.879C87.3031 136.436 87.6652 140.334 87.6652 142.571C87.6652 142.787 87.7557 143.347 87.9368 144.249C88.1179 145.079 88.2084 145.62 88.2084 145.873C88.2084 146.125 88.3894 147.208 88.7516 149.121C89.0775 150.853 89.2404 151.972 89.2404 152.477V152.531C89.2404 153.325 88.9507 153.83 88.3713 154.047ZM84.7864 143.654C84.6778 143.112 84.6235 142.445 84.6235 141.651C84.6235 138.403 84.3338 134.253 83.7544 129.201L83.2112 123.571C81.6542 132.052 80.5859 138.457 80.0065 142.787C80.5497 143.148 82.143 143.437 84.7864 143.654ZM97.9761 150.582L98.0304 152.693L99.0081 153.397C99.4788 153.397 99.8953 153.235 100.257 152.91C100.656 152.585 100.855 152.206 100.855 151.773C100.855 148.128 100.565 143.004 99.9858 136.4C99.3702 129.363 99.0624 124.239 99.0624 121.027L99.1167 120.756L99.1711 120.486L100.257 120.702C100.873 120.81 101.344 120.865 101.67 120.865C102.14 120.865 102.557 120.738 102.919 120.486C103.281 120.197 103.462 119.836 103.462 119.403C103.462 118.537 102.901 118.104 101.778 118.104H101.344H100.909C99.8229 118.104 98.5917 118.014 97.2156 117.833C95.7672 117.689 94.536 117.617 93.5221 117.617C93.1238 117.617 92.7254 117.743 92.3271 117.996C91.965 118.212 91.784 118.465 91.784 118.753C91.784 119.114 91.9831 119.439 92.3814 119.728C92.9608 120.089 94.3006 120.305 96.4009 120.377C96.4733 122.507 96.7268 127.324 97.1613 134.83C97.5958 142.336 97.8674 146.288 97.9761 146.685L97.9217 148.525C97.9217 149.283 97.9399 149.969 97.9761 150.582ZM112.688 153.505C109.538 153.505 107.963 152.964 107.963 151.881C107.963 151.015 108.524 150.582 109.647 150.582H110.244L110.787 150.636C111.077 150.636 111.276 150.546 111.385 150.366C111.493 150.185 111.548 149.861 111.548 149.391C111.548 148.778 111.511 147.822 111.439 146.522C111.33 145.656 111.204 144.105 111.059 141.867C110.733 136.346 110.57 132.178 110.57 129.363C110.57 128.353 110.588 127.432 110.624 126.602L110.679 123.842C110.679 122.651 110.624 121.658 110.516 120.865C109.936 121.009 109.52 121.081 109.266 121.081C108.397 121.081 107.963 120.648 107.963 119.782C107.963 119.349 108.234 118.97 108.777 118.645C109.321 118.32 110.009 118.086 110.842 117.942C112.29 117.653 113.575 117.508 114.698 117.508C115.133 117.508 115.495 117.671 115.784 117.996C116.11 118.284 116.273 118.627 116.273 119.024C116.273 119.421 116.146 119.764 115.893 120.053C115.676 120.341 115.386 120.486 115.024 120.486C114.807 120.486 114.626 120.468 114.481 120.432H114.046C113.684 120.432 113.413 120.522 113.231 120.702C113.087 120.847 113.014 121.135 113.014 121.568C113.014 125.069 113.231 130.337 113.666 137.374C113.738 138.674 113.883 140.586 114.101 143.112C114.282 144.772 114.372 146.468 114.372 148.201V150.257C114.589 150.221 114.951 150.203 115.458 150.203C116.979 150.203 117.74 150.835 117.74 152.098V152.423L116.382 153.343C116.346 153.343 116.219 153.361 116.002 153.397H114.915C113.757 153.469 113.014 153.505 112.688 153.505ZM155.778 154.101C155.452 154.101 155.144 153.938 154.855 153.614C154.601 153.289 154.547 152.964 154.692 152.639C154.8 152.314 155.054 151.773 155.452 151.015C156.575 149.175 157.317 146.685 157.679 143.545C157.715 143.329 157.571 143.058 157.245 142.733C156.955 142.372 156.774 142.102 156.701 141.921L155.941 140.839C155.181 139.792 154.547 138.836 154.04 137.97C153.569 137.068 153.117 135.877 152.682 134.397C152.501 133.784 152.374 133.134 152.302 132.449C152.229 131.727 152.193 131.276 152.193 131.095L152.085 129.85C152.048 129.237 151.994 128.695 151.922 128.226C151.849 127.721 151.795 127.306 151.759 126.981C151.433 124.888 151.27 123.174 151.27 121.839C151.27 121.334 151.288 120.955 151.324 120.702C151.36 120.161 151.36 119.674 151.324 119.241V118.158C151.36 117.436 151.614 117.075 152.085 117.075C152.193 117.075 152.392 117.112 152.682 117.184C154.022 117.581 154.692 118.338 154.692 119.457C154.692 119.746 154.656 120.287 154.583 121.081L154.42 123.3C154.42 124.311 154.438 125.069 154.474 125.574C154.764 128.569 155.09 131.528 155.452 134.451C155.561 135.245 155.814 135.985 156.213 136.671C156.647 137.32 157.082 137.862 157.516 138.295C157.987 138.692 158.259 138.89 158.331 138.89C158.548 138.24 158.675 137.807 158.711 137.591C158.928 134.379 159.055 132.015 159.091 130.5C159.128 129.237 159.146 127.144 159.146 124.221V117.887C159.182 117.599 159.254 117.4 159.363 117.292C159.508 117.148 159.743 117.075 160.069 117.075C160.793 117.075 161.391 117.346 161.862 117.887C162.332 118.393 162.513 119.006 162.405 119.728C162.296 120.594 162.242 121.749 162.242 123.192C162.242 124.058 162.26 124.654 162.296 124.978C162.332 125.303 162.35 125.754 162.35 126.332C162.35 127.234 162.278 128.515 162.133 130.175C162.133 130.572 162.097 131.204 162.024 132.07C161.952 133.152 161.771 134.812 161.481 137.05L161.264 138.836C161.047 141.001 160.612 143.672 159.96 146.847C159.743 147.858 159.417 148.922 158.983 150.041C158.548 151.124 158.059 152.134 157.516 153.072C157.408 153.325 157.172 153.559 156.81 153.776C156.448 153.992 156.104 154.101 155.778 154.101ZM169.224 153.235C169.333 153.596 169.406 153.848 169.442 153.992C170.094 154.065 170.492 154.101 170.637 154.101C171.216 154.101 171.614 153.938 171.832 153.614C172.049 153.325 172.176 152.784 172.212 151.99C172.103 150.799 172.049 148.706 172.049 145.71C172.049 143.87 172.103 142.12 172.212 140.46C172.248 140.207 172.248 139.9 172.212 139.54C172.176 139.179 172.158 138.872 172.158 138.619C172.085 136.707 172.013 133.874 171.94 130.121C171.94 129.399 172.031 126.422 172.212 121.189C172.212 120.648 172.465 120.377 172.972 120.377H173.081C174.493 120.45 175.362 120.522 175.688 120.594C176.05 120.666 176.322 120.702 176.503 120.702C177.046 120.702 177.571 120.54 178.078 120.215C178.151 119.421 178.078 118.862 177.861 118.537C177.644 118.176 177.173 117.923 176.449 117.779C174.928 117.454 173.135 117.292 171.071 117.292C170.456 117.292 169.931 117.508 169.496 117.942C169.061 118.375 168.844 118.862 168.844 119.403C168.844 121.785 168.953 125.285 169.17 129.904C169.424 133.694 169.55 136.923 169.55 139.594C169.55 141.073 169.532 142.192 169.496 142.95C169.351 145.007 169.243 148.128 169.17 152.314C169.134 152.567 169.152 152.874 169.224 153.235ZM182.496 154.75C182.206 154.75 181.952 154.66 181.735 154.48C181.518 154.299 181.355 154.065 181.246 153.776C181.21 153.704 181.192 153.596 181.192 153.451C181.192 152.982 181.445 152.603 181.952 152.314C182.966 151.881 183.727 151.232 184.234 150.366C184.777 149.464 185.157 148.417 185.374 147.226C186.026 143.69 186.352 139.846 186.352 135.696C186.352 134.145 186.334 132.972 186.298 132.178C186.044 126.079 185.827 121.785 185.646 119.295V119.078C185.646 118.753 185.718 118.501 185.863 118.32C186.008 118.14 186.262 118.014 186.624 117.942C188.941 117.508 190.788 117.292 192.164 117.292C192.888 117.292 193.431 117.31 193.793 117.346C194.626 117.382 195.26 117.635 195.695 118.104C196.129 118.573 196.346 119.223 196.346 120.053L196.401 122.922C196.473 125.448 196.509 127.342 196.509 128.605L196.455 131.204C196.455 135.029 196.6 139.864 196.89 145.71C197.034 148.345 197.161 150.384 197.27 151.827C197.306 152.477 197.197 152.946 196.944 153.235C196.727 153.523 196.346 153.704 195.803 153.776C194.608 153.848 193.975 153.289 193.902 152.098C194.011 151.051 194.065 150.005 194.065 148.958C194.065 147.912 194.047 147.046 194.011 146.36L193.956 140.189C193.956 137.194 193.902 134.127 193.793 130.987C193.721 128.389 193.612 125.935 193.468 123.625C193.323 121.316 193.178 119.908 193.033 119.403C192.816 119.439 192.363 119.529 191.675 119.674C190.987 119.818 190.046 119.944 188.851 120.053C188.742 121.713 188.688 122.903 188.688 123.625C188.688 124.455 188.742 125.177 188.851 125.79C188.923 126.765 188.995 128.19 189.068 130.067V131.258C189.068 137.104 189.014 141.055 188.905 143.112C188.833 143.69 188.796 144.141 188.796 144.465C188.651 145.981 188.507 147.136 188.362 147.93C188 149.842 186.895 151.791 185.048 153.776C184.542 154.353 183.727 154.678 182.604 154.75H182.496ZM203.223 151.881C203.223 152.964 204.798 153.505 207.949 153.505C208.274 153.505 209.017 153.469 210.176 153.397H211.262C211.479 153.361 211.606 153.343 211.642 153.343L213 152.423V152.098C213 150.835 212.24 150.203 210.719 150.203C210.212 150.203 209.85 150.221 209.632 150.257V148.201C209.632 146.468 209.542 144.772 209.361 143.112C209.143 140.586 208.999 138.674 208.926 137.374C208.492 130.337 208.274 125.069 208.274 121.568C208.274 121.135 208.347 120.847 208.492 120.702C208.673 120.522 208.944 120.432 209.306 120.432H209.741C209.886 120.468 210.067 120.486 210.284 120.486C210.646 120.486 210.936 120.341 211.153 120.053C211.407 119.764 211.533 119.421 211.533 119.024C211.533 118.627 211.37 118.284 211.045 117.996C210.755 117.671 210.393 117.508 209.958 117.508C208.836 117.508 207.55 117.653 206.102 117.942C205.269 118.086 204.581 118.32 204.038 118.645C203.495 118.97 203.223 119.349 203.223 119.782C203.223 120.648 203.658 121.081 204.527 121.081C204.78 121.081 205.196 121.009 205.776 120.865C205.884 121.658 205.939 122.651 205.939 123.842L205.884 126.602C205.848 127.432 205.83 128.353 205.83 129.363C205.83 132.178 205.993 136.346 206.319 141.867C206.464 144.105 206.591 145.656 206.699 146.522C206.772 147.822 206.808 148.778 206.808 149.391C206.808 149.861 206.754 150.185 206.645 150.366C206.536 150.546 206.337 150.636 206.047 150.636L205.504 150.582H204.907C203.784 150.582 203.223 151.015 203.223 151.881Z" fill="#78756E"/>
</svg>
