<svg width="180" height="44" viewBox="0 0 180 44" fill="none" xmlns="http://www.w3.org/2000/svg">
<path fill-rule="evenodd" clip-rule="evenodd" d="M22.2262 33.2839H28.4808C32.7753 33.2839 36.2568 29.7434 36.2568 25.376V13.8849C36.2568 9.51747 32.7753 5.97697 28.4808 5.97697H15.5208C11.2262 5.97697 7.74478 9.51746 7.74478 13.8849V26.539C7.74478 30.2641 10.7142 33.2839 14.3773 33.2839H16.3213V36.7974L22.2262 33.2839ZM14.8649 39.9544C14.6489 40.0829 14.3773 39.9245 14.3773 39.67V35.2609C9.6406 35.2609 5.80078 31.356 5.80078 26.539V13.8849C5.80078 8.42561 10.1526 4 15.5208 4H28.4808C33.849 4 38.2008 8.42561 38.2008 13.8849V25.376C38.2008 30.8353 33.849 35.2609 28.4808 35.2609H22.7531L14.8649 39.9544ZM15.5447 11.5182C15.2359 11.4725 14.9211 11.5357 14.6526 11.6973H14.6294C14.0065 12.069 13.445 12.5369 12.9666 13.0876C12.5679 13.5556 12.352 14.0286 12.2955 14.4847C12.2623 14.755 12.2855 15.0286 12.3636 15.2871L12.3935 15.304C12.842 16.6436 13.4267 17.9326 14.141 19.1455C15.062 20.8492 16.1954 22.4248 17.5131 23.8334L17.553 23.8908L17.6161 23.9381L17.6543 23.9837L17.7008 24.0243C19.0908 25.3683 20.6438 26.5264 22.3221 27.4705C24.2408 28.5331 25.4052 29.0348 26.1046 29.2443V29.2544C26.3089 29.3186 26.4949 29.3473 26.6826 29.3473C27.2782 29.3026 27.842 29.0563 28.284 28.6479C28.8239 28.1614 29.2807 27.5887 29.6362 26.9519V26.94C29.97 26.2981 29.8571 25.6933 29.3754 25.2828C28.4077 24.423 27.3614 23.6593 26.2507 23.0022C25.5065 22.5917 24.7507 22.84 24.4451 23.2556L23.7922 24.0935C23.4567 24.5091 22.8487 24.4517 22.8487 24.4517L22.8321 24.4618C18.2955 23.2843 17.0846 18.6134 17.0846 18.6134C17.0846 18.6134 17.0281 17.9782 17.4483 17.6538L18.2656 16.9849C18.6577 16.6605 18.9301 15.8936 18.5098 15.1368C17.868 14.0062 17.1185 12.9425 16.2723 11.9608C16.0877 11.7298 15.8288 11.5725 15.5414 11.5165L15.5447 11.5182ZM23.0153 14.2211C22.7188 14.2211 22.4786 14.4655 22.4786 14.7669C22.4786 15.0684 22.7188 15.3127 23.0153 15.3127C24.5103 15.3127 25.7224 16.5453 25.7224 18.0658C25.7224 18.3672 25.9626 18.6116 26.2591 18.6116C26.5555 18.6116 26.7958 18.3672 26.7958 18.0658C26.7958 15.9424 25.1032 14.2211 23.0153 14.2211ZM22.4786 12.1268C22.4786 11.8253 22.7188 11.581 23.0153 11.581C26.5364 11.581 29.3908 14.4838 29.3908 18.0647C29.3908 18.3661 29.1505 18.6105 28.8541 18.6105C28.5577 18.6105 28.3174 18.3661 28.3174 18.0647C28.3174 15.0867 25.9435 12.6726 23.0153 12.6726C22.7188 12.6726 22.4786 12.4282 22.4786 12.1268ZM23.0153 8.94244C22.7188 8.94244 22.4786 9.1868 22.4786 9.48824C22.4786 9.78968 22.7188 10.034 23.0153 10.034C27.3767 10.034 30.9124 13.6297 30.9124 18.0652C30.9124 18.3666 31.1527 18.611 31.4491 18.611C31.7455 18.611 31.9858 18.3666 31.9858 18.0652C31.9858 13.0268 27.9696 8.94244 23.0153 8.94244Z" fill="#4F4840"/>
<path d="M107.775 6.14498C107.659 6.04524 107.519 5.97896 107.368 5.95332C107.218 5.92767 107.064 5.94363 106.922 5.99947L73.0244 19.265C72.6789 19.3991 72.3863 19.6419 72.1908 19.9568C71.9952 20.2718 71.9074 20.6417 71.9404 21.0109C71.9734 21.3801 72.1256 21.7285 72.3739 22.0037C72.6222 22.2789 72.9533 22.466 73.3171 22.5366L82.6403 24.3665V34.7099C82.6403 35.1101 82.7598 35.5011 82.9836 35.8329C83.2075 36.1646 83.5253 36.4218 83.8964 36.5716C84.1353 36.6674 84.3901 36.7167 84.6475 36.7171C84.9168 36.7165 85.1832 36.6616 85.4309 36.5559C85.6786 36.4501 85.9025 36.2956 86.0892 36.1015L90.7726 31.251L97.9648 37.5584C98.3294 37.88 98.7984 38.0583 99.2845 38.0602C99.4968 38.0593 99.7078 38.026 99.9101 37.9615C100.241 37.8567 100.539 37.6668 100.774 37.4109C101.009 37.1549 101.172 36.8419 101.248 36.503L108.042 6.96456C108.076 6.81653 108.069 6.66202 108.022 6.51763C107.975 6.37324 107.89 6.24441 107.775 6.14498ZM73.2737 20.8908C73.2638 20.8099 73.2821 20.728 73.3253 20.6589C73.3685 20.5898 73.4341 20.5377 73.5112 20.5111L102.723 9.07875L83.1538 23.1036L73.5764 21.2236C73.4952 21.2117 73.4207 21.1721 73.3655 21.1114C73.3103 21.0507 73.2778 20.9727 73.2737 20.8908ZM85.1275 35.1716C85.035 35.2669 84.9162 35.3325 84.7863 35.36C84.6564 35.3876 84.5213 35.3759 84.398 35.3264C84.2748 35.2769 84.1691 35.1918 84.0944 35.082C84.0196 34.9723 83.9793 34.8427 83.9784 34.7099V25.2931L89.7623 30.3611L85.1275 35.1716ZM99.9435 36.1986C99.9177 36.3121 99.8626 36.417 99.7837 36.5028C99.7049 36.5885 99.605 36.6522 99.494 36.6875C99.383 36.7228 99.2647 36.7285 99.1508 36.7041C99.0369 36.6797 98.9314 36.6259 98.8446 36.5481L84.3849 23.868L106.413 8.08187L99.9435 36.1986Z" fill="#4F4840" stroke="#4F4840"/>
<path fill-rule="evenodd" clip-rule="evenodd" d="M144.319 31.1682C144.443 30.6475 144.369 30.0993 144.112 29.63C142.789 27.2172 142.117 24.5016 142.162 21.7504C142.207 18.9993 142.968 16.3072 144.37 13.9391C145.771 11.571 147.765 9.60842 150.156 8.24443C152.546 6.88062 155.25 6.16225 158.002 6.16C160.418 6.16102 162.801 6.71416 164.97 7.77712C167.139 8.84026 169.037 10.3852 170.517 12.2938C171.997 14.2024 173.021 16.4242 173.511 18.7891C174.001 21.1541 173.943 23.5997 173.342 25.9389C172.742 28.2781 171.614 30.4491 170.045 32.2858C168.476 34.1225 166.508 35.5763 164.291 36.5359C162.074 37.4956 159.667 37.9357 157.254 37.8226C154.84 37.7095 152.485 37.0462 150.368 35.8835C149.898 35.6257 149.35 35.5515 148.828 35.6753L142.913 37.081L144.319 31.1682ZM149.085 6.36834C151.802 4.81855 154.874 4.00233 158.002 4C160.747 4.00095 163.456 4.62949 165.921 5.83754C168.386 7.04559 170.542 8.80117 172.224 10.97C173.906 13.1389 175.07 15.6636 175.626 18.3512C176.183 21.0387 176.117 23.8179 175.434 26.4762C174.752 29.1345 173.47 31.6015 171.687 33.6886C169.905 35.7758 167.668 37.4277 165.149 38.5182C162.63 39.6087 159.895 40.1088 157.153 39.9803C154.41 39.8518 151.734 39.0981 149.328 37.7768L140.001 39.9933L142.218 30.6685C140.715 27.9268 139.951 24.8411 140.002 21.7149C140.054 18.5888 140.918 15.5298 142.511 12.839C144.104 10.1481 146.369 7.91814 149.085 6.36834ZM163.101 23.62C163.506 23.755 165.69 24.835 166.141 25.06C166.225 25.1022 166.304 25.1405 166.378 25.1764C166.698 25.3312 166.922 25.4397 167.086 25.6225C167.209 26.3386 167.115 27.0751 166.816 27.7375C166.493 28.2802 166.06 28.749 165.544 29.1133C165.028 29.4777 164.441 29.7296 163.822 29.8524C161.961 30.0659 160.081 29.6712 158.463 28.7274C155.379 27.1733 152.75 24.8479 150.831 21.9775C149.783 20.6525 149.149 19.0482 149.007 17.365C148.969 16.6619 149.081 15.9587 149.338 15.3027C149.594 14.6468 149.988 14.0534 150.493 13.5625C150.641 13.3893 150.823 13.2495 151.029 13.1525C151.235 13.0555 151.459 13.0035 151.687 13H152.565C152.604 13.003 152.645 13.0032 152.687 13.0034C152.954 13.0045 153.266 13.0058 153.578 13.765C153.696 14.0539 153.886 14.4868 154.086 14.9455C154.495 15.8799 154.951 16.9216 154.951 17.0725C155.014 17.1941 155.047 17.3292 155.047 17.4662C155.047 17.6033 155.014 17.7383 154.951 17.86C154.574 18.6034 154.184 19.0105 153.906 19.3008C153.553 19.6694 153.381 19.8494 153.645 20.29C154.995 22.6961 157.134 24.5636 159.702 25.5775C160.152 25.915 160.422 25.8925 160.67 25.5775C161.174 25.0265 161.648 24.4482 162.088 23.845C162.381 23.395 162.696 23.485 163.101 23.62Z" fill="#4F4840"/>
</svg>
