<svg width="45" height="44" viewBox="0 0 45 44" fill="none" xmlns="http://www.w3.org/2000/svg">
<path fill-rule="evenodd" clip-rule="evenodd" d="M36.3506 17.8462H39.1198C39.1161 14.5423 37.802 11.3748 35.4658 9.03857C33.1296 6.70237 29.9621 5.38828 26.6583 5.38462V8.15385C29.2279 8.15678 31.6915 9.17887 33.5085 10.9959C35.3255 12.8129 36.3476 15.2765 36.3506 17.8462ZM36.1152 40H36.3506C37.4522 40 38.5088 39.5624 39.2878 38.7834C40.0668 38.0044 40.5044 36.9478 40.5044 35.8462V28.5354C40.5083 27.9855 40.3484 27.447 40.0451 26.9883C39.7418 26.5297 39.3088 26.1717 38.8013 25.96L33.5813 23.8692C33.0801 23.6584 32.5279 23.5998 31.9936 23.7008C31.4592 23.8017 30.9665 24.0578 30.5767 24.4369L27.5721 27.4138C24.9546 26.9481 22.5436 25.6887 20.6661 23.8063C18.7886 21.9238 17.5355 19.5095 17.0767 16.8908L20.0259 13.9138C20.4093 13.5299 20.6715 13.0417 20.7798 12.51C20.8881 11.9783 20.8378 11.4265 20.6352 10.9231L18.5306 5.74462C18.3254 5.22936 17.9702 4.78759 17.511 4.47653C17.0518 4.16548 16.5098 3.99947 15.9552 4H8.65825C8.54748 4 8.43718 4.00416 8.32733 4.01246C7.22899 4.09699 6.2092 4.61433 5.49228 5.4507C4.77535 6.28707 4.42001 7.37396 4.50441 8.47231C5.04441 15.4785 8.90748 38.4354 36.1152 40ZM8.12807 6.87304C8.29626 6.80396 8.47642 6.76869 8.65825 6.76923H15.969L18.0459 11.9892L14.1136 15.9631L14.1967 16.6277C14.1967 16.7523 15.8306 28.7985 27.8767 30.3077L28.5413 30.3908L32.5152 26.4446L37.7352 28.5354V35.8462L37.7324 35.932C37.7103 36.2985 37.5436 36.6411 37.2689 36.8847C36.9941 37.1282 36.634 37.2527 36.2675 37.2308C11.9952 35.8462 7.91056 16.4615 7.27364 8.26462C7.27087 8.22677 7.26948 8.18846 7.26948 8.1497C7.27003 7.96786 7.30638 7.78792 7.37647 7.62014C7.44656 7.45236 7.549 7.30003 7.67796 7.17184C7.80692 7.04365 7.95987 6.94212 8.12807 6.87304ZM30.748 17.875H33.498C33.4959 16.0523 32.7708 14.3049 31.482 13.0161C30.1932 11.7272 28.4457 11.0022 26.623 11V13.75C27.7167 13.7511 28.7653 14.186 29.5387 14.9594C30.312 15.7327 30.747 16.7813 30.748 17.875Z" fill="#4F4840"/>
</svg>
