<svg aria-hidden="true" style="position: absolute; width: 0; height: 0; overflow: hidden;" version="1.1"
     xmlns="http://www.w3.org/2000/svg" xmlns:xlink="http://www.w3.org/1999/xlink">
    <defs>
        <symbol id="icon-fb" viewBox="0 0 32 32">
            <path d="M10.289 4.268v0c-3.325 0-6.021 2.696-6.021 6.021v11.433c0 3.325 2.696 6.021 6.021 6.021h3.134v-8.328h-2.753v-3.301h2.748v-2.424c0-2.818 1.678-4.354 4.121-4.354 0.824-0.003 1.649 0.040 2.468 0.131v2.944h-1.685c-1.328 0-1.587 0.652-1.587 1.605v2.103h3.177l-0.411 3.301h-2.766v8.323h4.987c3.325 0 6.021-2.696 6.021-6.021v-11.433c0-3.325-2.696-6.021-6.021-6.021h-11.433zM10.289 2.668h11.433c4.209 0 7.621 3.412 7.621 7.621v0 11.433c0 4.209-3.412 7.621-7.621 7.621v0h-11.433c-4.209 0-7.621-3.412-7.621-7.621v0-11.433c0-4.209 3.412-7.621 7.621-7.621v0z"></path>
        </symbol>

        <symbol id="icon-viber" viewBox="0 0 32 32">
            <path d="M10.62 8.269c-0.047-0.007-0.102-0.011-0.158-0.011-0.206 0-0.399 0.057-0.563 0.156l0.005-0.003h-0.019c-0.5 0.293-0.951 0.663-1.335 1.097-0.32 0.369-0.493 0.743-0.539 1.103-0.027 0.213-0.008 0.429 0.053 0.633l0.025 0.013c0.36 1.057 0.829 2.075 1.403 3.032 0.782 1.408 1.68 2.623 2.713 3.707l-0.007-0.007 0.032 0.045 0.051 0.037 0.031 0.036 0.037 0.032c1.081 1.029 2.298 1.932 3.618 2.673l0.091 0.047c1.54 0.839 2.475 1.235 3.036 1.4v0.008c0.164 0.051 0.313 0.073 0.464 0.073 0.499-0.038 0.944-0.241 1.287-0.554l-0.002 0.002c0.433-0.384 0.8-0.836 1.085-1.339v-0.009c0.267-0.507 0.177-0.984-0.209-1.308-0.739-0.649-1.56-1.244-2.433-1.759l-0.075-0.041c-0.597-0.324-1.204-0.128-1.449 0.2l-0.524 0.661c-0.269 0.328-0.757 0.283-0.757 0.283l-0.013 0.008c-3.641-0.929-4.613-4.616-4.613-4.616s-0.045-0.501 0.292-0.757l0.656-0.528c0.315-0.256 0.533-0.861 0.196-1.459-0.552-0.948-1.146-1.768-1.811-2.524l0.015 0.017c-0.145-0.178-0.348-0.304-0.58-0.35l-0.006-0.001 0.003 0.001zM16.773 6.667c-0.368 0-0.667 0.298-0.667 0.667s0.298 0.667 0.667 0.667v0c1.685 0 3.085 0.551 4.193 1.607 0.569 0.577 1.013 1.261 1.304 2.011 0.292 0.751 0.425 1.552 0.391 2.355-0 0.008-0.001 0.018-0.001 0.028 0 0.368 0.299 0.667 0.667 0.667 0.359 0 0.651-0.283 0.667-0.638l0-0.001c0.004-0.089 0.006-0.194 0.006-0.299 0-0.933-0.179-1.825-0.505-2.642l0.017 0.048c-0.381-0.963-0.925-1.785-1.606-2.473l-0.013-0.013c-1.375-1.313-3.113-1.983-5.121-1.983z"></path>
            <path d="M16.727 8.859c-0.368 0-0.667 0.298-0.667 0.667s0.298 0.667 0.667 0.667v0h0.023c1.216 0.087 2.101 0.493 2.72 1.157 0.637 0.685 0.967 1.537 0.941 2.591-0 0.005-0 0.010-0 0.015 0 0.368 0.299 0.667 0.667 0.667 0.363 0 0.658-0.29 0.667-0.651v-0.001c0.032-1.383-0.413-2.576-1.296-3.528v-0.003c-0.903-0.968-2.141-1.48-3.632-1.58l-0.023-0.003-0.067 0.001z"></path>
            <path d="M16.701 11.093c-0.022-0.003-0.047-0.004-0.073-0.004-0.368 0-0.667 0.298-0.667 0.667s0.298 0.667 0.667 0.667c0.001 0 0.002 0 0.004 0h-0c0.557 0.029 0.913 0.197 1.137 0.423 0.227 0.227 0.393 0.591 0.424 1.16 0.007 0.363 0.303 0.654 0.667 0.654 0.368 0 0.667-0.298 0.667-0.667 0-0.021-0.001-0.041-0.003-0.061l0 0.003c-0.043-0.8-0.293-1.507-0.807-2.027-0.516-0.52-1.219-0.773-2.016-0.816z"></path>
            <path d="M9.423 3.179c1.936-0.452 4.159-0.711 6.443-0.711s4.507 0.259 6.641 0.75l-0.199-0.038 0.452 0.1c2.537 0.581 4.51 2.507 5.152 4.97l0.011 0.048c0.513 1.941 0.808 4.169 0.808 6.467s-0.295 4.526-0.848 6.649l0.040-0.183c-0.652 2.511-2.626 4.436-5.116 5.008l-0.046 0.009-0.453 0.1c-1.938 0.453-4.164 0.713-6.45 0.713-0.581 0-1.159-0.017-1.731-0.050l0.079 0.004-3.537 3.163c-0.176 0.158-0.41 0.255-0.667 0.255-0.494 0-0.904-0.358-0.985-0.829l-0.001-0.006-0.587-3.496c-2.279-0.725-4.014-2.544-4.608-4.824l-0.011-0.048c-0.513-1.941-0.808-4.169-0.808-6.467s0.295-4.526 0.848-6.649l-0.040 0.183c0.653-2.51 2.627-4.434 5.116-5.006l0.046-0.009 0.452-0.1zM21.872 5.129c-1.805-0.422-3.878-0.663-6.007-0.663s-4.202 0.242-6.192 0.699l0.185-0.036-0.453 0.101c-1.798 0.413-3.196 1.778-3.651 3.523l-0.008 0.034c-0.474 1.793-0.746 3.852-0.746 5.975s0.272 4.181 0.784 6.144l-0.037-0.169c0.463 1.78 1.862 3.145 3.627 3.551l0.033 0.006 0.12 0.027c0.396 0.091 0.699 0.408 0.767 0.805l0.001 0.006 0.392 2.344 2.496-2.233c0.176-0.159 0.411-0.256 0.668-0.256 0.024 0 0.049 0.001 0.073 0.003l-0.003-0c2.665 0.189 5.344-0.011 7.952-0.593l0.452-0.101c1.798-0.413 3.197-1.777 3.652-3.523l0.008-0.034c0.995-3.92 0.995-8.027 0-11.949-0.463-1.78-1.862-3.145-3.627-3.551l-0.033-0.006-0.453-0.101z"></path>
        </symbol>

        <symbol id="icon-whatsapp" viewBox="0 0 32 32">
            <path d="M25.347 6.533c-2.372-2.388-5.658-3.867-9.29-3.867-0.017 0-0.034 0-0.050 0h0.003c-4.865 0.005-9.116 2.632-11.416 6.543l-0.034 0.062c-1.12 1.901-1.781 4.188-1.781 6.629 0 2.423 0.651 4.693 1.788 6.646l-0.034-0.063-1.867 6.849 7.004-1.833c1.821 1.031 3.997 1.647 6.314 1.667l0.006 0c0 0 0.001 0 0.001 0 3.663 0 6.981-1.476 9.393-3.865l-0.001 0.001c2.412-2.389 3.916-5.692 3.949-9.346l0-0.006c-0.025-3.689-1.546-7.018-3.985-9.415l-0.002-0.002zM16.008 26.884c-0.002 0-0.004 0-0.007 0-2.065 0-3.996-0.57-5.646-1.561l0.050 0.028-0.4-0.251-4.153 1.1 1.101-4.049-0.267-0.417c-1.036-1.646-1.651-3.649-1.651-5.794 0-3.472 1.61-6.569 4.124-8.583l0.022-0.017c1.863-1.494 4.256-2.398 6.86-2.398 3.016 0 5.75 1.213 7.738 3.178l-0.001-0.001c2.023 1.977 3.291 4.719 3.336 7.757l0 0.008c-0.029 3.047-1.281 5.796-3.288 7.784l-0.001 0.001c-2.007 1.988-4.769 3.216-7.818 3.216-0 0-0 0-0.001 0h0zM22.029 18.651c-0.333-0.167-1.952-0.968-2.252-1.067-0.3-0.1-0.533-0.168-0.751 0.165-0.327 0.448-0.677 0.876-1.051 1.284-0.183 0.233-0.383 0.251-0.717 0-1.925-0.774-3.476-2.142-4.462-3.874l-0.023-0.044c-0.351-0.583 0.333-0.549 0.967-1.8 0.045-0.085 0.071-0.185 0.071-0.291s-0.026-0.207-0.073-0.295l0.002 0.003c0-0.167-0.751-1.8-1.017-2.449-0.267-0.651-0.533-0.551-0.751-0.567h-0.649c-0.354 0.005-0.669 0.165-0.883 0.414l-0.001 0.002c-0.683 0.664-1.107 1.591-1.107 2.618 0 0.070 0.002 0.14 0.006 0.209l-0-0.010c0.105 1.247 0.573 2.435 1.351 3.416 1.431 2.12 3.336 3.816 5.57 4.961l0.084 0.039c0.927 0.55 2.044 0.875 3.237 0.875 0.258 0 0.512-0.015 0.763-0.045l-0.030 0.003c0.949-0.193 1.737-0.767 2.21-1.552l0.008-0.015c0.221-0.491 0.291-1.036 0.2-1.567-0.151-0.167-0.367-0.251-0.7-0.417z"></path>
        </symbol>

        <symbol id="icon-arrow-right" viewBox="0 0 32 32">
            <path d="M19.414 27.414l10-10c0.781-0.781 0.781-2.047 0-2.828l-10-10c-0.781-0.781-2.047-0.781-2.828 0s-0.781 2.047 0 2.828l6.586 6.586h-19.172c-1.105 0-2 0.895-2 2s0.895 2 2 2h19.172l-6.586 6.586c-0.39 0.39-0.586 0.902-0.586 1.414s0.195 1.024 0.586 1.414c0.781 0.781 2.047 0.781 2.828 0z"></path>
        </symbol>

        <symbol id="icon-arrow" viewBox="0 0 32 32">
            <path d="M20 6.667l-1.88 1.88 6.107 6.12h-21.56v2.667h21.56l-6.12 6.12 1.893 1.88 9.333-9.333-9.333-9.333z"></path>
        </symbol>

        <!--<symbol id="icon-telegram" viewBox="0 0 33 32">-->
        <!--<path stroke-linejoin="miter" stroke-linecap="butt" stroke-miterlimit="4" stroke-width="0.7273" d="M29.646 3.652c-0.086-0.075-0.191-0.124-0.304-0.143s-0.228-0.007-0.334 0.034l-25.332 9.914c-0.258 0.1-0.477 0.282-0.623 0.517s-0.212 0.512-0.187 0.788c0.025 0.276 0.138 0.536 0.324 0.742s0.433 0.345 0.705 0.398l6.967 1.367v7.73c0 0.299 0.089 0.591 0.257 0.839s0.405 0.44 0.682 0.552c0.178 0.072 0.369 0.108 0.561 0.109 0.201-0 0.4-0.041 0.586-0.12s0.352-0.195 0.492-0.34l3.5-3.625 5.375 4.714c0.273 0.24 0.623 0.374 0.986 0.375 0.159-0.001 0.316-0.025 0.468-0.074 0.247-0.078 0.47-0.22 0.646-0.412s0.298-0.425 0.354-0.678l5.078-22.075c0.025-0.111 0.020-0.226-0.015-0.334s-0.099-0.204-0.185-0.279zM3.862 14.672c-0.007-0.060 0.006-0.122 0.039-0.173s0.081-0.091 0.139-0.111l21.831-8.544-14.625 10.481-7.158-1.405c-0.061-0.009-0.116-0.039-0.158-0.084s-0.066-0.104-0.069-0.165zM12.721 25.345c-0.069 0.071-0.158 0.12-0.255 0.141s-0.198 0.012-0.29-0.025c-0.092-0.037-0.171-0.101-0.227-0.183s-0.086-0.179-0.087-0.278v-7.038l4.323 3.788-3.464 3.595zM23.794 26.113c-0.019 0.085-0.061 0.163-0.119 0.227s-0.134 0.112-0.216 0.138c-0.083 0.026-0.171 0.031-0.256 0.012s-0.164-0.058-0.229-0.117l-10.806-9.476 16.462-11.798-4.835 21.013z"></path>-->
        <!--</symbol>-->

        <symbol id="icon-telegram" viewBox="0 0 38 34">
            <path d="M36.7747 1.14498C36.6593 1.04524 36.5188 0.978965 36.3685 0.953316C36.2181 0.927667 36.0636 0.943626 35.9217 0.999465L2.02444 14.265C1.67889 14.3991 1.38629 14.6419 1.19076 14.9568C0.995235 15.2718 0.907365 15.6417 0.940396 16.0109C0.973428 16.3801 1.12557 16.7285 1.3739 17.0037C1.62222 17.2789 1.95327 17.466 2.31715 17.5366L11.6403 19.3665V29.7099C11.6403 30.1101 11.7598 30.5011 11.9836 30.8329C12.2075 31.1646 12.5253 31.4218 12.8964 31.5716C13.1353 31.6674 13.3901 31.7167 13.6475 31.7171C13.9168 31.7165 14.1832 31.6616 14.4309 31.5559C14.6786 31.4501 14.9025 31.2956 15.0892 31.1015L19.7726 26.251L26.9648 32.5584C27.3294 32.88 27.7984 33.0583 28.2845 33.0602C28.4968 33.0593 28.7078 33.026 28.9101 32.9615C29.2412 32.8567 29.539 32.6668 29.7738 32.4109C30.0086 32.1549 30.1722 31.8419 30.2482 31.503L37.0423 1.96456C37.0764 1.81653 37.0694 1.66202 37.0223 1.51763C36.9751 1.37324 36.8896 1.24441 36.7747 1.14498ZM2.27366 15.8908C2.26385 15.8099 2.28207 15.728 2.3253 15.6589C2.36852 15.5898 2.43412 15.5377 2.51117 15.5111L31.7234 4.07875L12.1538 18.1036L2.5764 16.2236C2.49522 16.2117 2.42068 16.1721 2.36548 16.1114C2.31027 16.0507 2.27782 15.9727 2.27366 15.8908ZM14.1275 30.1716C14.035 30.2669 13.9162 30.3325 13.7863 30.36C13.6564 30.3876 13.5213 30.3759 13.398 30.3264C13.2748 30.2769 13.1691 30.1918 13.0944 30.082C13.0196 29.9723 12.9793 29.8427 12.9784 29.7099V20.2931L18.7623 25.3611L14.1275 30.1716ZM28.9435 31.1986C28.9177 31.3121 28.8626 31.417 28.7837 31.5028C28.7049 31.5885 28.605 31.6522 28.494 31.6875C28.383 31.7228 28.2647 31.7285 28.1508 31.7041C28.0369 31.6797 27.9314 31.6259 27.8446 31.5481L13.3849 18.868L35.4132 3.08187L28.9435 31.1986Z"
                  fill="#4F4840" stroke="#4F4840"/>
        </symbol>

        <symbol id="icon-mail" viewBox="0 0 32 32">
            <path d="M26.636 25.974h-21.273c-1.358 0-2.455-1.114-2.455-2.494v-14.961c0-1.38 1.096-2.494 2.455-2.494h21.273c1.358 0 2.455 1.114 2.455 2.494v14.961c0 1.38-1.096 2.494-2.455 2.494zM5.364 7.688c-0.458 0-0.818 0.366-0.818 0.831v14.961c0 0.465 0.36 0.831 0.818 0.831h21.273c0.458 0 0.818-0.366 0.818-0.831v-14.961c0-0.465-0.36-0.831-0.818-0.831h-21.273z"></path>
            <path d="M16 19.258c-1.145 0-2.193-0.465-2.978-1.313l-8.591-9.276c-0.311-0.332-0.295-0.864 0.033-1.18s0.851-0.299 1.162 0.033l8.591 9.276c0.933 1.014 2.635 1.014 3.567 0l8.591-9.259c0.311-0.332 0.835-0.349 1.162-0.033s0.344 0.848 0.033 1.18l-8.591 9.276c-0.785 0.848-1.833 1.313-2.978 1.313v-0.017z"></path>
        </symbol>

        <symbol id="icon-instagram" viewBox="0 0 33 32">
            <path d="M10.309 2.273c-2.286 0.135-4.246 0.998-5.807 2.559-1.34 1.339-2.143 2.942-2.455 4.892-0.073 0.459-0.084 1.409-0.084 6.954 0.001 6.836 0.001 6.815 0.268 7.855 0.895 3.48 3.761 6.012 7.33 6.476 0.545 0.071 1.585 0.084 6.801 0.084 7.223 0 7.137 0.005 8.629-0.519 3.084-1.084 5.293-3.844 5.716-7.145 0.045-0.354 0.057-2.32 0.043-7.063l-0.019-6.572-0.124-0.545c-0.404-1.779-1.16-3.185-2.369-4.404-1.304-1.314-2.905-2.135-4.84-2.481-0.394-0.071-1.391-0.084-6.627-0.095-3.391-0.007-6.299-0.004-6.464 0.005zM23.249 4.522c2.657 0.541 4.636 2.477 5.231 5.118 0.12 0.532 0.121 0.578 0.142 6.508 0.014 3.958 0.001 6.212-0.037 6.682-0.138 1.672-0.756 3.024-1.909 4.176-0.745 0.745-1.559 1.25-2.571 1.597-0.903 0.308-0.887 0.308-7.732 0.308-4.231 0-6.417-0.020-6.681-0.059-1.395-0.209-2.62-0.832-3.642-1.848-1.168-1.162-1.777-2.513-1.909-4.229-0.039-0.503-0.051-2.788-0.037-6.682 0.022-5.837 0.023-5.925 0.14-6.442 0.418-1.852 1.508-3.373 3.092-4.314 0.719-0.428 1.708-0.765 2.508-0.855 0.672-0.076 13.018-0.039 13.404 0.040zM23.018 9.057v1.091h1.909v-2.182h-1.909v1.091zM15.561 9.931c-2.739 0.343-4.949 2.272-5.7 4.826l-0.012 0.048c-0.199 0.688-0.257 1.113-0.256 1.888 0.003 1.862 0.721 3.561 2.041 4.836 2.323 2.243 5.817 2.57 8.489 0.796 1.512-1.004 2.605-2.671 2.923-4.46 0.102-0.57 0.118-1.693 0.031-2.217-0.468-2.853-2.589-5.059-5.418-5.634-0.527-0.108-1.578-0.149-2.098-0.084zM17.608 12.216c1.538 0.446 2.737 1.641 3.207 3.196 0.129 0.426 0.148 0.587 0.151 1.227 0.004 1.058-0.171 1.675-0.716 2.532-1.62 2.545-5.225 2.863-7.273 0.641-1.107-1.201-1.503-2.855-1.055-4.407 0.496-1.719 1.894-2.959 3.733-3.313 0.344-0.066 1.561 0.012 1.953 0.125z"></path>
        </symbol>

        <symbol id="icon-carbon_phone" viewBox="0 0 32 32">
            <path d="M24 13h-2c-0.001-0.795-0.317-1.558-0.88-2.12s-1.325-0.879-2.12-0.88v-2c1.326 0.002 2.596 0.529 3.534 1.466s1.465 2.208 1.466 3.534z"></path>
            <path d="M28 13h-2c-0.002-1.856-0.74-3.635-2.053-4.947s-3.092-2.050-4.947-2.053v-2c2.386 0.003 4.674 0.952 6.361 2.639s2.636 3.975 2.639 6.361zM26 29h-0.17c-19.65-1.13-22.44-17.71-22.83-22.77-0.061-0.793 0.196-1.578 0.713-2.182s1.254-0.978 2.048-1.039c0.079-0.006 0.159-0.009 0.239-0.009h5.27c0.4-0 0.792 0.119 1.124 0.344s0.588 0.544 0.736 0.916l1.52 3.74c0.146 0.364 0.183 0.762 0.104 1.146s-0.268 0.737-0.544 1.014l-2.13 2.15c0.331 1.891 1.236 3.635 2.592 4.994s3.097 2.269 4.988 2.605l2.17-2.15c0.281-0.274 0.637-0.459 1.023-0.532s0.785-0.031 1.147 0.122l3.77 1.51c0.366 0.153 0.679 0.411 0.898 0.743s0.335 0.72 0.332 1.117v5.28c0 0.796-0.316 1.559-0.879 2.121s-1.326 0.879-2.121 0.879zM6 5c-0.131-0-0.261 0.025-0.383 0.075s-0.232 0.123-0.325 0.216c-0.093 0.093-0.167 0.203-0.218 0.324s-0.077 0.251-0.077 0.382c0 0.028 0.001 0.056 0.003 0.083 0.46 5.92 3.41 19.92 20.94 20.92 0.265 0.016 0.525-0.074 0.723-0.25s0.319-0.423 0.335-0.688l0.002-0.062v-5.28l-3.77-1.51-2.87 2.85-0.48-0.060c-8.7-1.090-9.88-9.79-9.88-9.88l-0.060-0.48 2.84-2.87-1.5-3.77h-5.28z"></path>
        </symbol>

        <symbol id="icon-calendar" viewBox="0 0 32 32">
            <path d="M22.667 4h5.333c0.354 0 0.693 0.14 0.943 0.391s0.391 0.589 0.391 0.943v21.333c0 0.354-0.141 0.693-0.391 0.943s-0.589 0.391-0.943 0.391h-24c-0.354 0-0.693-0.141-0.943-0.391s-0.391-0.589-0.391-0.943v-21.333c0-0.354 0.14-0.693 0.391-0.943s0.589-0.391 0.943-0.391h5.333v-2.667h2.667v2.667h8v-2.667h2.667v2.667zM26.667 14.667h-21.333v10.667h21.333v-10.667zM20 6.667h-8v2.667h-2.667v-2.667h-4v5.333h21.333v-5.333h-4v2.667h-2.667v-2.667zM8 17.333h2.667v2.667h-2.667v-2.667zM14.667 17.333h2.667v2.667h-2.667v-2.667zM21.333 17.333h2.667v2.667h-2.667v-2.667z"></path>
        </symbol>

        <symbol id="icon-chat" viewBox="0 0 32 32">
            <path d="M13.333 4h5.333c2.829 0 5.542 1.124 7.543 3.124s3.124 4.713 3.124 7.542c0 2.829-1.124 5.542-3.124 7.543s-4.714 3.124-7.543 3.124v4.667c-6.667-2.667-16-6.667-16-15.333 0-2.829 1.124-5.542 3.124-7.542s4.713-3.124 7.542-3.124zM16 22.667h2.667c1.051 0 2.091-0.207 3.061-0.609s1.853-0.991 2.595-1.734c0.743-0.743 1.332-1.625 1.734-2.595s0.609-2.011 0.609-3.061-0.207-2.091-0.609-3.061c-0.402-0.971-0.991-1.853-1.734-2.595s-1.625-1.332-2.595-1.734-2.011-0.609-3.061-0.609h-5.333c-2.122 0-4.157 0.843-5.657 2.343s-2.343 3.535-2.343 5.657c0 4.813 3.283 7.955 10.667 11.307v-3.307z"></path>
        </symbol>

        <symbol id="icon-folder" viewBox="0 0 32 32">
            <path d="M5.333 6.667v18.667h21.333v-16h-11.219l-2.667-2.667h-7.448zM16.552 6.667h11.448c0.354 0 0.693 0.14 0.943 0.391s0.391 0.589 0.391 0.943v18.667c0 0.354-0.141 0.693-0.391 0.943s-0.589 0.391-0.943 0.391h-24c-0.354 0-0.693-0.141-0.943-0.391s-0.391-0.589-0.391-0.943v-21.333c0-0.354 0.14-0.693 0.391-0.943s0.589-0.391 0.943-0.391h9.885l2.667 2.667z"></path>
        </symbol>

        <symbol id="icon-menu" viewBox="0 0 24 24">
            <path d="M3 13h18c0.552 0 1-0.448 1-1s-0.448-1-1-1h-18c-0.552 0-1 0.448-1 1s0.448 1 1 1zM3 7h18c0.552 0 1-0.448 1-1s-0.448-1-1-1h-18c-0.552 0-1 0.448-1 1s0.448 1 1 1zM3 19h18c0.552 0 1-0.448 1-1s-0.448-1-1-1h-18c-0.552 0-1 0.448-1 1s0.448 1 1 1z"></path>
        </symbol>

        <symbol id="icon-x" viewBox="0 0 24 24">
            <path d="M5.293 6.707l5.293 5.293-5.293 5.293c-0.391 0.391-0.391 1.024 0 1.414s1.024 0.391 1.414 0l5.293-5.293 5.293 5.293c0.391 0.391 1.024 0.391 1.414 0s0.391-1.024 0-1.414l-5.293-5.293 5.293-5.293c0.391-0.391 0.391-1.024 0-1.414s-1.024-0.391-1.414 0l-5.293 5.293-5.293-5.293c-0.391-0.391-1.024-0.391-1.414 0s-0.391 1.024 0 1.414z"></path>
        </symbol>

        <symbol id="icon-location" viewBox="0 0 44 44">
            <path fill-rule="evenodd" clip-rule="evenodd"
                  d="M22 6.27027C19.1856 6.27027 16.4941 7.39045 14.5157 9.37198C12.5387 11.3522 11.4357 14.0289 11.4357 16.8108C11.4357 18.1505 12.0638 20.1362 13.15 22.492C14.2151 24.8023 15.6454 27.3128 17.0906 29.6465C18.5333 31.9761 19.9779 34.1088 21.0628 35.6603C21.4185 36.169 21.7352 36.6147 22 36.9837C22.2648 36.6147 22.5815 36.169 22.9372 35.6603C24.0221 34.1088 25.4667 31.9761 26.9094 29.6465C28.3546 27.3128 29.7849 24.8023 30.85 22.492C31.9362 20.1362 32.5643 18.1505 32.5643 16.8108C32.5643 14.0289 31.4613 11.3522 29.4843 9.37198C27.5059 7.39045 24.8144 6.27027 22 6.27027ZM22 38.8649C21.1368 39.561 21.1367 39.5609 21.1365 39.5607L21.1273 39.5483L21.1012 39.5132L21.0015 39.3784C20.9145 39.2605 20.7877 39.0876 20.6266 38.8657C20.3044 38.422 19.8451 37.7821 19.2943 36.9945C18.1936 35.4203 16.7239 33.2509 15.2523 30.8746C13.7832 28.5023 12.2992 25.9031 11.1786 23.4726C10.079 21.0875 9.25 18.7014 9.25 16.8108C9.25 13.3996 10.6033 10.1368 12.9986 7.73774C15.3925 5.34005 18.6311 4 22 4C25.3689 4 28.6075 5.34005 31.0014 7.73774C33.3967 10.1368 34.75 13.3996 34.75 16.8108C34.75 18.7014 33.921 21.0875 32.8214 23.4726C31.7008 25.9031 30.2168 28.5023 28.7477 30.8746C27.2761 33.2509 25.8064 35.4203 24.7057 36.9945C24.1549 37.7821 23.6956 38.422 23.3734 38.8657C23.2123 39.0876 23.0855 39.2605 22.9985 39.3784L22.8988 39.5132L22.8727 39.5483L22.864 39.56C22.8638 39.5602 22.8632 39.561 22 38.8649ZM22 38.8649L22.864 39.56C22.657 39.8369 22.3376 40 22 40C21.6624 40 21.3436 39.8376 21.1365 39.5607L22 38.8649Z"
                  fill="#4F4840"/>
            <path fill-rule="evenodd" clip-rule="evenodd"
                  d="M22 12.2105C19.3548 12.2105 17.2105 14.3548 17.2105 17C17.2105 19.6452 19.3548 21.7895 22 21.7895C24.6452 21.7895 26.7895 19.6452 26.7895 17C26.7895 14.3548 24.6452 12.2105 22 12.2105ZM15 17C15 13.134 18.134 10 22 10C25.866 10 29 13.134 29 17C29 20.866 25.866 24 22 24C18.134 24 15 20.866 15 17Z"
                  fill="#4F4840"/>
        </symbol>

    </defs>
</svg>