<svg width="38" height="34" viewBox="0 0 38 34" fill="none" xmlns="http://www.w3.org/2000/svg">
<path d="M36.7747 1.14498C36.6593 1.04524 36.5188 0.978965 36.3685 0.953316C36.2181 0.927667 36.0636 0.943626 35.9217 0.999465L2.02444 14.265C1.67889 14.3991 1.38629 14.6419 1.19076 14.9568C0.995235 15.2718 0.907365 15.6417 0.940396 16.0109C0.973428 16.3801 1.12557 16.7285 1.3739 17.0037C1.62222 17.2789 1.95327 17.466 2.31715 17.5366L11.6403 19.3665V29.7099C11.6403 30.1101 11.7598 30.5011 11.9836 30.8329C12.2075 31.1646 12.5253 31.4218 12.8964 31.5716C13.1353 31.6674 13.3901 31.7167 13.6475 31.7171C13.9168 31.7165 14.1832 31.6616 14.4309 31.5559C14.6786 31.4501 14.9025 31.2956 15.0892 31.1015L19.7726 26.251L26.9648 32.5584C27.3294 32.88 27.7984 33.0583 28.2845 33.0602C28.4968 33.0593 28.7078 33.026 28.9101 32.9615C29.2412 32.8567 29.539 32.6668 29.7738 32.4109C30.0086 32.1549 30.1722 31.8419 30.2482 31.503L37.0423 1.96456C37.0764 1.81653 37.0694 1.66202 37.0223 1.51763C36.9751 1.37324 36.8896 1.24441 36.7747 1.14498ZM2.27366 15.8908C2.26385 15.8099 2.28207 15.728 2.3253 15.6589C2.36852 15.5898 2.43412 15.5377 2.51117 15.5111L31.7234 4.07875L12.1538 18.1036L2.5764 16.2236C2.49522 16.2117 2.42068 16.1721 2.36548 16.1114C2.31027 16.0507 2.27782 15.9727 2.27366 15.8908ZM14.1275 30.1716C14.035 30.2669 13.9162 30.3325 13.7863 30.36C13.6564 30.3876 13.5213 30.3759 13.398 30.3264C13.2748 30.2769 13.1691 30.1918 13.0944 30.082C13.0196 29.9723 12.9793 29.8427 12.9784 29.7099V20.2931L18.7623 25.3611L14.1275 30.1716ZM28.9435 31.1986C28.9177 31.3121 28.8626 31.417 28.7837 31.5028C28.7049 31.5885 28.605 31.6522 28.494 31.6875C28.383 31.7228 28.2647 31.7285 28.1508 31.7041C28.0369 31.6797 27.9314 31.6259 27.8446 31.5481L13.3849 18.868L35.4132 3.08187L28.9435 31.1986Z" fill="#4F4840" stroke="#4F4840"/>
</svg>
